<?xml version="1.0" encoding="UTF-8"?>
<svg id="Layer_1" xmlns="http://www.w3.org/2000/svg" version="1.1" viewBox="0 0 535.4 323.4">
  <!-- Generator: Adobe Illustrator 30.2.1, SVG Export Plug-In . SVG Version: 2.1.1 Build 1)  -->
  <defs>
    <style>
      .st0 {
        fill: #fff;
      }
    </style>
  </defs>
  <path class="st0" d="M269.3,172.8c0,13.2,10.7,24,24,24h95.7s0-20.2,0-20.2h-91c-.7,0-1.3-.6-1.3-1.3v-2.3c0-.7.6-1.3,1.3-1.3h91s0-20.1,0-20.1h-91c-.7,0-1.3-.6-1.3-1.3v-2.3c0-.7.6-1.3,1.3-1.3h91s0-20.3,0-20.3h-95.7c-13.2,0-24,10.7-24,24v22.3Z"/>
  <path class="st0" d="M392,196.8h27.4s0-11.2,0-11.2c0-.7.6-1.3,1.3-1.3h64.7c14.6,0,26.3-11.8,26.3-26.3v-5c0-14.6-11.8-26.3-26.3-26.3h-67c-14.6,0-26.3,11.8-26.3,26.3v43.8ZM481.9,153.1c1.3,0,2.4,1.1,2.4,2.4s-1.1,2.4-2.4,2.4h-62.5s0-4.8,0-4.8h62.5Z"/>
  <path class="st0" d="M146.5,172.8c0,13.2,10.7,24,24,24h95.7s0-20.2,0-20.2h-91c-.7,0-1.3-.6-1.3-1.3v-2.3c0-.7.6-1.3,1.3-1.3h91s0-20.1,0-20.1h-91c-.7,0-1.3-.6-1.3-1.3v-2.3c0-.7.6-1.3,1.3-1.3h91s0-20.3,0-20.3h-95.7c-13.2,0-24,10.7-24,24v22.3Z"/>
  <path class="st0" d="M143.4,169.2v-15c0-15.2-12.4-27.6-27.6-27.6H23.8s0,70.2,0,70.2h92.1c15.2,0,27.6-12.4,27.6-27.6ZM51.1,164.1v-4.8s62.5,0,62.5,0c1.3,0,2.4,1.1,2.4,2.4s-1.1,2.4-2.4,2.4h-62.5Z"/>
  <g>
    <path class="st0" d="M506.4,196.8c-2.9,0-5.3-2.4-5.3-5.3s2.4-5.3,5.3-5.3,5.3,2.4,5.3,5.3-2.4,5.3-5.3,5.3ZM506.4,187.4c-2.3,0-4.2,1.9-4.2,4.2s1.9,4.2,4.2,4.2,4.2-1.9,4.2-4.2-1.9-4.2-4.2-4.2Z"/>
    <path class="st0" d="M506.1,191.1c.3,0,.5,0,.6-.2.1-.1.2-.3.2-.5s0-.4-.2-.5c-.1-.1-.3-.2-.6-.2h-.6v1.4h.6M505.5,192.1v2.1h-1.4v-5.5h2.2c.7,0,1.3.1,1.6.4.3.2.5.6.5,1.2s0,.7-.3.9c-.2.2-.4.4-.8.5.2,0,.4.1.5.3.2.2.3.4.5.7l.8,1.6h-1.5l-.7-1.4c-.1-.3-.3-.5-.4-.6-.1-.1-.3-.2-.6-.2h-.4"/>
  </g>
</svg>