<?xml version="1.0" encoding="UTF-8"?>
<svg id="CONTEN_IDO" xmlns="http://www.w3.org/2000/svg" version="1.1" viewBox="0 0 408.3 157.3">
  <!-- Generator: Adobe Illustrator 30.2.1, SVG Export Plug-In . SVG Version: 2.1.1 Build 1)  -->
  <defs>
    <style>
      .st0 {
        fill: gray;
      }

      .st1 {
        fill: #d3d5d6;
      }
    </style>
  </defs>
  <g>
    <path class="st1" d="M61,107l-1.4-.6c-.6.1-1.2.2-1.9.2h-1.6c-.4,0-.8,0-1.3,0h-3.7s-.8-.7-.8-.7h-1.4l-3-3.9c-.2-.3-.4-.6-.6-.9h0s0,0,0,0c-.7-1.2-1-2.2-1.3-3.1v-.4c0,.3.3,1.2.9,2.2l-1.3-4.5c-.2-.5-.4-1.2-.5-1.9-.2-1.3-.2-2.5,0-3.5,0-.4.2-.8.3-1.2-.2-.8-.3-1.5-.3-2.3,0-.8,0-1.8.3-2.8,0,0,0,0,0,0,0-.1,0-.3.1-.4,0-.1,0-.2.1-.4h0c.2-.5.4-.9.6-1.4,0-.3.1-.6.2-.8,0,.1,0,.2,0,.4.1-.2.3-.5.5-.7,0,0,0,0,0,0,.1-.2.3-.4.4-.5,0,0,0,0,.1.1-.2.3-.3.5-.4.8,0,0,0,0,0,0,0,.1-.1.3-.2.4,0,.2-.2.4-.2.6,0,.3.1.6.2.9h.3c.1-.3.2-.4.4-.6,0,0,0,0,0,0-.1.1-.3.3-.4.4l.5-.2c0,.1.2.3.2.4h-1s0,0,0,0h0c0,0-.7,0-.7,0-.1.6-.2,1.1-.2,1.7,0,.3,0,.7,0,1,0,.2.2.3.3.5l.5-.3,1.5-2.3c0,0,0,.1.1.2l1.1-.8h-.9l.6-.9h.2c0,0,0,0,0,0h0s.4-.1.4-.1c0,0,.2,0,.2.1h.9s.2-.2.2-.2v.2c.1,0,.4,0,.4,0l.3-.6h0s-.3.6-.3.6h1.9s0,0,0,0h0s.6,0,.6,0h0c0,0-.2-.2-.2-.2h.2v-1.3h0s0,0,0,0v-.5c0,0-.1,0-.2,0h.2v-1l-.5-1.4-.3.7h0s.3-.8.3-.8v-.3c-.3,0-.6-.1-.8-.2l-.4-1.1c-.4.2-.8.3-1.2.5-.4-.2-.8-.4-1.1-.6h-.3s0,0,.1,0h0s0,0,0,0c.8-.6,1.6-1,2.6-1.4h0c-.5-.3-1-.4-1.6-.7l1.2-.5v-.2s.1,0,.2,0l.5-.2-1-.6-.2-.6s0,0,0,0l.4-.6-.9.8h0s1.1-.9,1.1-.9l.2-.2h0s0,0-.1,0h.1c0,0,0-.1,0-.1h-2.7s2.7-.2,2.7-.2l-.4-1.3h-.6s-.2-.2-.2-.2l-.7.9c-.4-.3-.9-.7-1.4-1.2-.3.2-.6.4-.9.6l-.5-1c.2-.2.3-.3.5-.5-.3-.3-.6-.7-.9-1,0,.1-.1.2-.2.3h0c-.3.5-.5,1-.6,1.6,0,0,0,0,0,0,0,0,0,.1,0,.2,0,0,0,0,0,0,0,.2-.1.4-.1.6,0,0,0,0,0,0,0,.1,0,.2,0,.3,0,0,0,0,0,.1,0,0,0-.1.1-.2,0,0,0,0,0,0,0,0,0,0,0,0,0,0,0,0,0,0,0,0,0,0,0,0,0,0-.1.2-.2.3,0,0,0,.1,0,.2,0,0,0,0,0-.1,0,0,0,.1,0,.2,0,.4,0,.7,0,1.1-.2.3-.4.6-.5.8,0,.4-.1.7-.1,1.1,0,.9,0,1.7.2,2.5h0c0,.3.1.6.2.9h0c.1.4.3.8.4,1.1-.6,1.3-1.1,3-.9,4.8h-1.6l1-10.9c.1-1.5.5-2.7,1.1-3.7,0,0,0,0,0-.1,0-.1,0-.3,0-.5,0,0,0,.3.1.5,0,0,0-.2.1-.2-.1-.3-.2-.5-.3-.8h0s0,0,0,0c0,0,0-.2,0-.2,0,0,0,0,0,0-.2-1.2-.3-2.4-.2-3.5-.5-1.3-.7-2.8-.4-4.5l-.7-.4,1.9-7.1c.1-.5.2-.9.4-1.3,0,0,0-.1,0-.2l-.6-1.2,1.8-1,2.6-4h.4s.1-.2.1-.2h3.5s.6-.6.6-.6h2.6s.1-.8.1-.8h8s3.8-.2,3.8-.2l1.1.9h4.6v.3h1.5c0-.1,0-.1,0-.1h.2c-.5,0-1-.2-1.6-.2h14.5l-3.4,2.5c.4.3.9.6,1.3.8l-.2.2c0,0,.1.1.2.2.3,0,.5,0,.8.1l.5-1c1,.5,1.7,1.1,2.4,1.7-.1-.2-.3-.3-.4-.5l.2.2c.2.3.5.5.7.8,0,0,0,.1.1.2,0,0,0,0,.1,0,1.2.7,2,1.6,2.7,2.5.3.4.6.9.9,1.4l11.1,2.8-.9,1.2h56.5l-62,13.1h0c0,.6,0,1.1,0,1.6,0-.2,0-.5.1-.7v.2c0,.8-.3,2.4-1.1,4.1-.4.8-.8,1.6-1.4,2.3,0,0,0,.3,0,.3,0-.1,0-.2,0-.3,0,0,0,0,0,0,0,.4-.1.7-.2,1l-2,7.3h-1.8c-.9.9-1.9,1.5-2.8,1.9h-.2c0,.1-2.2,2.3-2.2,2.3h-.3s-.2.2-.2.2h-1.7c0,0-.2,0-.3.1-.1,0-.3.1-.4.2.2,0,.4-.2.6-.3h-3.4v-.2h-1.6l.4,1.2-1.5.4h-.2s-1,.3-1,.3h-2.2s0,7.6,0,7.6h-2.5s-1.5,8-1.5,8c0,0-8.3.1-8.3.1s-1.9,0-1.9,0ZM81.6,52.7h1.4c0-.1-.5-1.3-.5-1.3l-.9,1.3ZM46.1,74.5s0,0,0,0l-.6.5.6-.5Z"/>
    <path class="st1" d="M121.3,105.7c-.1,0-.2,0-.4-.1h-.2s0,0,.2,0c-.3-.1-.6-.2-.8-.3-.4.2-.8.3-1.2.5.3,0,.6,0,.9,0h-1.1c-1.1.4-2.2.5-3.2.5h-8.4s-.5-3.1-.5-3.1l-1.5,1.7h-.2s.3.6.3.6c-.7.3-1.3.5-2.4.7h-.5c.3,0,.5,0,.6,0l-.5-1.3h-1.6c.5-.1,1-.3,1.4-.5l-.2-.6c-.5.4-1,.8-1.7,1.1h-1.6s-.3-.6-.3-.6v.6h-.4s-.3-.2-.3-.2c.2-.1.5-.3.7-.4l-.7-1.3c-.2.1-.4.3-.6.4v1l-.3-.2-.5-.3c-1.4.8-3,1.3-4.4,1.5-.8-.4-1.6-.9-2.4-1.5v.9s-.2,0-.2,0c.5.3,1.1.5,1.6.7h-.1c-1.5,0-2.8-.3-4.1-.8h-2.4c0,0-2.8-4.4-2.8-4.4-.7-1.1-1.4-2.6-1.6-4.4-1.1-2.9-.7-5.7-.1-7.7,0,0,0,0,0,.1,0,0,0-.2,0-.2h0c.1-.6.3-.9.4-1.2l.3-1-.4-.7c0,.3-.2.6-.2,1v-1.3h0l-2.1-3.7,1.2-2.1-.3-2.5-1.2-.7h1.1s-.1-1.2-.1-1.2l-.4-.5.3-.5h0s0,0,0,0l1.9-3.7s0,0,0-.1c0-.1,0-.2,0-.4h-9.4l8.7-12.2c0-.8.3-1.6.6-2.4.1-.3.2-.6.4-.9v-.5c.1,0-2.4-2.8-2.4-2.8l4.8-2.5c.5-.6,1-1.1,1.5-1.5l1.6-2.5h3.4s.6-.6.6-.6h2.4s.1-.8.1-.8h8.2s3.9-.2,3.9-.2l1.1,1h4.6v.3l1.8-.2c-.5,0-1-.2-1.6-.2h16.4l-4,2.7h.6l.2-.5c.3.1.6.3.8.5h5.2l1.1,5,11.2,2.8-6.1,8.8c0,.4,0,.8,0,1.3,0-.2,0-.3,0-.5,0,0-.1.8-.1.9,0,0,0,.3,0,.3,0,0,0-.1,0-.2,0,.2,0,.4-.1.6l.2,3.2c0,.6,0,1.2,0,1.8,0-.2.1-.5.1-.7v.2c0,.5-.2,1.3-.5,2.3h67.9l-50.4,13.2h23.8l-41,16.9.3,5-11-.3c-.2,0-.3,0-.5,0-1.1.4-2.3.7-3.4.7v-1.4ZM125.4,84.4s0,0,0,0h0s0,0,0,0ZM118.2,52.7l2-.2h0c0,0-.7-1.8-.7-1.8l-1.3,1.9Z"/>
    <path class="st1" d="M181.9,89.1h-6.6c-.1.7-.3,1.4-.6,2,0,0,0-.1.1-.2,0,0-.2.4-.2.5-.8,1.7-2.1,3.1-3.5,4.1l-.9,3.6v.2c0,0,0,0,0,0l-.4,1.8h-2.5s0,0,0,0c-.8.7-1.8,1.4-3.1,1.9h-.2c0,.1-1.5,1.4-1.5,1.4l.2,2-8.2.8v.2c0,0-1.4,0-1.4,0h-.1s-1.2,0-1.2,0c-.3,0-.5,0-.7,0h-3.6c-.2,0-.3,0-.5,0-.6.1-1.2.2-1.9.3v-.5c-.4-.1-.9-.2-1.4-.4,0,0-.1,0-.2,0h-1.1c-.1,0-.2,0-.3,0,0,0-3,0-3,0h-5.1s-.3-1.7-.3-1.7h-11.1l5.7-3.5h-3.7l-.5-5.7-3.7-3.8-6.1,8.1,1.4-12.9-.4-.4.4-.2.3-2.7-9-6.7-20.2-11.1,30.7.2c0,0,0-.1,0-.2.1-.2.3-.5.4-.7v-.3c0-.4,0-.8.2-1.2l.4-4,2.4-1.7h0c0,0,0,0,0,0l1.2-.9c.5-.6,1-1.1,1.5-1.6-.3.5-.5,1-.7,1.5-.2.2-.4.3-.5.5l.3.4c0,.3-.2.6-.2.9.2-.1.4-.3.6-.4l.5.7c0,.3,0,.6,0,.9,0,.1,0,.3,0,.4,0,0,0,.2,0,.2h1.1s.2.2.2.2h1.3l.5,1.4v-.2s0,.2,0,.2l.3,1v.5s.3.6.3.6v.2c0,0,.1,0,.1,0l.4.5h.1v-1l.8-.6.3.8-.7.7.9-.2h0s-1,.2-1,.2l-.3.3,1.2.9v-1c.1,0,.2-.2.2-.2h0v-.2h0c0,.1.2-.9.2-.9l-.4.4-.3-.8.9-.7v-.4c0,0,.1.3.1.3l.6-.5v-1.3h0s0,0,0,0h0s.3,1,.3,1l.8-.6v-.6s.8,0,.8,0l.2-.2v-1.4c.2.3.4.5.6.7l-.2-.7-.4-.3v-1.5l-.2-1h-.4s0-.8,0-.8h0s0-.3,0-.3h0s.4,0,.4,0l.4.5h.8c0,.1,0-.5,0-.5v.7l2,.3v-1.1s.4,0,.4,0l.2-.4-.6-.4v-1s-1.6,0-1.6,0l-.4-.2v.2-.2s-1.3-.9-1.3-.9v-1.3c0,0,0,0-.1,0v-2.7c0,.1,0,.2-.2.3,0,.1-.2.2-.2.3-.4.6-.6,1.3-.8,2.1v-.6c-.2.2-.3.4-.4.6l-2.1-1.5c-.2.3-.5.5-.6.8l.9,1c.5-.1,1.1-.2,1.8-.2h0c-.5.1-1,.3-1.5.5h0c-.4.2-.8.3-1.1.5h0c-.4.2-.8.4-1.1.7-.1,0-.3,0-.4.1,0,0,0,.2,0,.2-.8.7-1.6,1.5-2.1,2.4v-1.1c0,0,.3-.6.3-.6-.2.1-.3.2-.4.3v-1c0,0,2.6-3.1,2.6-3.1.4-.4.8-.8,1.1-1.1-.2.1-.4.2-.5.3.1,0,.3-.2.4-.3.2-.2.5-.4.8-.6.3-.2.5-.3.8-.5l1.9-2.7h1.2s.7-15.1.7-15.1L113.2,0l47,42.5h18.1l-8.3,7.1h3.2v5.1c-.1,0,.4.8.4.8h2.3l.5,4.2,1.1,1.6h48.9l-42.5,9.8.8,1.2,80.1,16.9h-69s20.2,30.7,20.2,30.7l-33.9-30.7ZM162.6,94.5h0ZM126,84.6h.4c0,0,.1-.3.1-.3v-.6s-.5.7-.5.7v.3ZM130.5,67.1l.4-.5.2-2.6-.4-1.3-.5.4v2.6s.2,1.3.2,1.3ZM144,61.3h0s0,0,0,0h.4c0,0,0-.2.1-.3h-.1c0,0-.3.2-.3.2v-.5c0,0,0,0,0,0h-.4c0-.1-.3.5-.3.5h.6,0ZM134.9,58.5l1.3-1.2v-.5c.1,0,.2-.6.2-.6h-1.1c0,0-.7,1.9-.7,1.9l.3.4ZM134.6,58.1l.7-1.8h-1.9v.4l1.2,1.4ZM129.6,62.1h0ZM139.6,59.6l-.4.7.4-.7Z"/>
    <path class="st1" d="M181.2,108l-3.3-1h-.3s-1.3-.5-1.3-.5h0s-.2-.1-.2-.1c-.7.1-1.3.2-2,.2h-1.7c-.4,0-.8,0-1.3,0h-3.7s-.8-.7-.8-.7h-1.3l-3-3.7c-1.3-1.6-1.7-3.1-2-4.2v-.4c0,.4.3,1.2.9,2.2l-1.5-5.2c-.7-2.3-.5-4.3,0-6-.4-1.7-.4-3.4,0-5,0,0,0,0,0,0,0-.3.2-.5.3-.8h0c.2-.5.4-1,.7-1.5,0-.2,0-.4.2-.6,0,0,0,.2,0,.3.1-.2.3-.5.5-.7,0,0,0,0,0,0,.1-.2.3-.4.4-.6,0,0,0,0,0,0-.2.3-.3.5-.4.8,0,0,0,0,0,0-.2.3-.3.7-.4,1.1,0,.3.2.6.3,1h.3c0,0,.3-.5.4-.6,0,0,0,0,0,0-.2.2-.3.3-.4.5l.6-.2c0,.1.1.3.2.4h-1s-.7,0-.7,0c-.1.5-.2,1-.2,1.6,0,.4,0,.8,0,1.2,0,.2.2.3.2.5l.5-.3,1.5-2.3c.1.2.2.3.3.5.5-.4.9-.8,1.3-1.1h-1.3l.6-.9h.4c0-.1.2-.1.2-.1h0c0,0,.2-.1.2-.1,0,0,.1,0,.2.1h1.3s.1-.1.1-.1h0c0,.1.2.1.2.1l.2-.5h0s-.2.5-.2.5h1.7s.1,0,.1,0h0c0,0,.4,0,.4,0h0c0,0-.2-.2-.2-.2h.2v-1.3h.2s-.2-.5-.2-.5h0c0,0,0,0,0,0h0v-1.2l-.4-1.2-.3.6h0s.3-.6.3-.6v-.3c-.3,0-.5,0-.6-.1l-.5-1.3c-.5.2-1,.4-1.4.6-.4-.2-.8-.4-1.1-.6h-.2s.1,0,.1,0c0,0,0,0,0,0,.8-.6,1.8-1.1,2.7-1.4h0c-.5-.2-1.1-.4-1.7-.7l1.4-.6h0s0,0,0,0l.5-.2-.8-.4-.2-.7.5-.8h0c0,0,0,0,0,0v-.2c0,0,0,0,0,0,0,0,0,0,0,0h0s-2.9,0-2.9,0l2.8-.2-.3-1.3h-.7s-.7,1-.7,1c-.4-.3-1.1-.8-1.7-1.4-.4.2-.7.4-1,.7l-.5-1c.2-.2.4-.4.6-.5-.3-.3-.6-.7-.9-1,0,.1-.1.3-.2.4h0c-.2.5-.5,1-.6,1.6,0,0,0,0,0,0,0,0,0,.1,0,.2,0,0,0,0,0,0,0,.2-.1.4-.1.6,0,0,0,0,0,0,0,0,0,.2,0,.3,0,0,0,0,0,.1,0,0,0-.1.1-.2,0,0,0,0,0,0,0,0,0,0,0,0,0,0,0,0,0,0,0,0,0,0,0,0,0,0,0,.2-.1.3,0,0,0,.1,0,.2,0,0,0,0,0-.1,0,0,0,.1,0,.2,0,.4,0,.7,0,1.1-.2.3-.4.5-.5.8,0,.4-.1.8-.1,1.2,0,.9,0,1.7.2,2.4h0c0,.4.2.7.3,1.1h0c.1.4.2.7.4,1-.6,1.3-1.1,3-.9,4.8h-1.4l.8-10.8c.1-1.5.5-2.8,1.1-3.8,0,0,0,0,0,0,0-.1,0-.3,0-.5,0,0,0,.2,0,.5,0,0,0-.2.1-.2-.1-.2-.2-.5-.3-.8h0c0,.2.2.4.4.7.3-.5.6-.9.9-1.3l-.4-.8h.2c-.2-.3-.4-.7-.6-1,0,0,0,0,0,0v-.2c-.2-.2-.3-.5-.4-.7-.2,1.1-.2,2.2,0,3.1-.2-1.3-.3-2.5-.2-3.6-.4-1.2-.6-2.5-.5-3.9,0-.1,0-.2,0-.3l-.6-.3,1.8-7.3c0-.5.2-.9.4-1.3.2-.6.5-1.2.8-1.8l-.2-.7,1.1-.5,2.3-3.6h.6s.1-.2.1-.2h3.4s.6-.6.6-.6h6.9c.9-.4,1.9-.6,2.9-.7l5-.4,1,1.2h4.2l12-13.1,1.2,13.1h8l-6.9,4h4.8l1,4.6,10.2,2.4-3.2,5.8.2,4.1,37.2,10.4h-36.5c.1.3.2.7.3,1.1h0s0,0,0-.1c0,0,0,0,0,.1h27.8l-1.9.6h41.5l-73.5,18.7c-.3.4-.6.7-1,1.1-.3.3-.6.7-1,1-.6,1.1-1.4,2.1-2.5,3-.8.6-1.6,1.1-2.4,1.4l-1.3,3.5.2,1h-5s-22.2,14.6-22.2,14.6l4.6-12.8ZM167.1,79.6h0c0,0,0,0,0,0h0c0,0,0,0,0,0Z"/>
    <path class="st1" d="M223.7,107.8c-.7,0-1.4,0-2-.2h-3.2s-.1-1.3-.1-1.3c-.1,0-.3-.1-.4-.2l-4.4-1.3h-74.7l60.6-15.7c0,.3.2.7.3,1h.3c0-.5,0-.8,0-1.2h.3c0-.3-.2-.5-.2-.7,0-.4,0-.8.2-1.1-.2-.3-.4-.6-.6-.9,0-.2,0-.3,0-.4.1.2.3.4.5.6,0,.2,0,.3.2.5,0,0,0,0,0,0,0,0,0,.2.1.4,0,0,0,0,0,0,.2.5.4.9.6,1.3h0s0,0,0,0c.2.3.3.5.5.8,0,0,.3.3.3.4,0-.2,0-.4,0-.5h.4c0-.2-.2-.3-.3-.4,0-.2,0-.4.1-.5h.3c.2,0,.4.1.6.2,0,0,0,.2-.1.3l1.7-.6-1-.2h0s.4-.1.4-.1l-.3-.2.4-.9h0s-.2.4-.2.4c-.2-.1-.4-.3-.7-.4h-.3s-.1-.2-.1-.2c0,0,0,0,0,0,0,0-.1,0-.2-.1l-1.7-2.5.3-1.4-.3-.6c-.2.3-.4.6-.6,1l-.4-.6c0,.2-.1.4-.2.5,0,0,0,0,0,0,0-.2.1-.4.2-.6,0,0,0-.1-.1-.2,0,.2,0,.5,0,.7-.4-.8-.7-1.6-.9-2.4-.3,1.5-.2,2.9,0,4,.1.3.3.6.6.9,0,0,0,.2,0,.2-.2-.3-.3-.6-.5-1,0,.3.1.5.2.8-.1-.3-.2-.6-.4-1.1,0-.2-.1-.3-.2-.5h0s.1.1.2.3c-.4-1.3-.7-3.2-.3-5.3,0-.3-.1-.6-.1-.9,0-.6,0-1.2,0-1.8-.2-.7-.3-1.4-.4-2.3l-6.1-8.5,7-1.9c-.2.6-.4,1.2-.4,1.6,0,.7,0,1.5.1,2.2.2-.9.6-1.9,1.1-2.8-.1-.3-.3-.7-.4-1.1h0c0-.2-.1-.4-.2-.5,0,0,0,0,0,0-.1-.4-.2-.9-.3-1.3-.3-1.7,0-3.4.6-5l1.2-3.6,2-1-3-1.4c-.9,2-.9,3.7-.9,4.4v-.4c-.4-6.5,3.3-9.4,5.5-10.5l6.5-3.2,1.9,1.9v-.5c1.9,0,3.7.6,5.3,1.6h1.7v1.2c.5.4,1,.9,1.5,1.4v-.3s2.4.3,2.4.3l.5-1.3c.3.1.6.2.8.4-.8-.7-1.7-1.3-2.6-1.7h2.9l.4,2c0,0,.1,0,.2.1l1.5-2.9h6.2c.2,0,.4,0,.6,0h4.4l.6.8c-.1,0-.2,0-.3,0-.7-.2-1.5-.4-2.4-.4v1.8s0,0,0,0h0c.2-.1.3-.2.5-.3l.2.6c.8-.6,1.5-1,2.3-1.3l1,1.4.2-1c-.3-.2-.6-.4-1-.5.4-.1.8-.3,1.1-.4h0c0-.1,0-.1,0-.1,0,0,0,0,0,0,0,0,0,0,0,0,0,0,0,0,0,0h0s0,0,.1,0c.3,0,.5,0,.8,0,.9-.2,1.8-.2,2.5-.2h1l.9.2h4l1.7,5.1.3-.2c1.2,1.6,2.3,4.5,2.2,7.5l.4,1.3-.6.4c0,.3-.1.7-.2,1l87.4,18.3-85.3-.2,1.1,1.6-2.6,4.8,2.8,4-4.2,4.3-.3,1-1,.7c-1,2.5-2.6,3.8-3.5,4.5l-.3.2c.1-.1.3-.2.4-.4-.4.3-.7.5-1.1.7l2.1,4.5-5.8,1.1-1.2,2.2-.4-1.4-.6,2.1h-2.9s.2.5.2.5c0,0-14.8,0-14.8,0ZM224.6,97.4h0ZM251,75.7h0s0,0,0,0h0ZM207.5,58.4v-.2s0,0,0,0v.2ZM221.1,52.5h0c0,0,0,0,0,0,0,0,0,0,0,0ZM221.1,52.4h0s0-.2,0-.2h-.1c0,0,0,.1,0,.2ZM237.7,50.6l.6-.8v.3c.1,0,.8-.8.8-.8v-.2c-.1,0-.5.2-.5.2l.2-.3h0l-2.1-2.8,1.4,3.4-1.3.9h.7ZM239.1,49.1h.3s.2-.3.2-.3h0c0-.1-.5.3-.5.3Z"/>
    <path class="st1" d="M259.6,107.6h-1.3s-.1-1.3-.1-1.3c-.1,0-.5-.3-.5-.3h0c0,0-5.6-1.4-5.6-1.4-1.4-.3-2.3-.9-2.8-1.1-.2,0-.4-.2-.6-.3.5.2,2.1,1,4.4,1.1.3.2.6.4.9.6.2.1.4.2.5.2l.2-.4c.8.2,1.6.4,2.6.4v-.4c-.2,0-1.1.2-1.1.2l-.4-2.7.9-2.1c.2.6.4,1.2.6,1.7v-2.9l.4,1.6-.2-1.9h.6c0,0-.2-.9-.2-.9h-.3s.2-.4.2-.4v-.6c-.1,0-.3,0-.3,0h-.2c0-.1,0-.2,0-.2h-.5s0,0,0,0h-.2s-1.5-.1-1.5-.1l.2.2-.2-.2h-.1s0-.2,0-.2l-1-1.1h-.5v-.6h0s-.8.5-.8.5h0c0,0,0,0,0,0h0s-1,0-1,0c0-.5.1-1,.2-1.4h0s-.3,1.4-.3,1.4h-.5s0-1.7,0-1.7l-1.6-.6c0,0,0,.1,0,.2l.2,2-.2-2c-.1.3-.2.7-.3,1v-1.2l-.3.8v-2.7h0s0,1.3,0,1.3h0c0,.1,0,.1,0,.1v1.8c0,0-.5.9-.5.9h-.3c0,.2,0,.5,0,.8v.3c-.4,0-.7,0-1-.2,0-.5,0-1,0-1.2v-2.2c0,0-.1,0-.1,0-.7,0-1.5,0-2.3-.3l1.5-2.5h-.3s-1.6,2.4-1.6,2.4c-.3,0-.6-.2-.9-.3,0,.3,0,.6,0,.9.1,0,.2.1.3.2,0,0-.2-.1-.3-.2,0,.5,0,.9,0,1.4-.1,0-.2-.2-.4-.3,0-.5-.1-.9-.2-1.4-.2-.1-.3-.2-.4-.2h0c0,0,.2,0,.3.1,0-.2,0-.5,0-.7h0c0,0,0,0,0,0,0-.8.2-1.6.4-2.3h-.8c0-.1.5-1.1.5-1.1h-.3s-.2.5-.2.5c-.3-.1-.5-.3-.8-.5h-.2s-1.3-1.8-1.3-1.8c0,.1,0,.3-.1.4-.2-.2-.3-.3-.5-.5,0,.1,0,.3,0,.4,0,0,0-.3,0-.4-.5-.6-1-1.2-1.3-1.9l-.3.3c.1,1.2.4,2.3.9,3.3.3.3.6.6,1,1,0,.1,0,.3,0,.4-.3-.3-.5-.6-.8-.9.2.3.4.7.6,1-.3-.4-.6-.8-.8-1.3-.2-.3-.4-.6-.7-1h0c0,0,.3.3.5.6-.5-.9-.8-1.8-1-2.6l-44.7,35.5,39.2-51.3-1.8-2.6,4.7-1.2,6.9-9c.1-.2.3-.3.4-.5l1.3-1.7.6-.3c.1-.2.3-.5.4-.6,0-.1,1.7-2.9,1.7-2.9l-2.4-2.7,3.5.8,5.6-9.7,4,6.3c.1,0,.3,0,.4,0v-.8c1.3,0,2.4.3,3.4.6-.4,0-.7,0-1,0,0,0,.1,0,.2,0-.1,0-.5,0-1,.1h0c-.6.1-1.2.3-1.6.4h0c0,0-.1,0-.2,0h0c-.1,0-.4.2-.4.2,0,0-.4.3-.5.3,0,0,0,0,0,0,0,0,0,0-.1,0,0,0,.1,0,.2-.1-.3.2-.5.4-.8.6v-.2c-.1,0-.2.1-.3.2l-.2-.3c-.5.1-1.1.3-1.5.4h.1c-.1,0-.4,0-.4,0,0,0,0,0,0,0v.2c0,0,.4-.3.4-.3l.2.3c.2,0,.4,0,.6,0v.6c0,0-.1.2-.2.2l.2.4v.2c-.2.3-.3.6-.4.9l.2.8h.2c0,0,0,.8,0,.8l.3,1.1h0c0-.5.2-1.1.4-1.7h.3c0,0,.3.6.3.6,0,.3,0,.7,0,1.1h.6v.2c.1,0,0-.2,0-.2h.2l.8,1v-2.1c0,0,0,0,0,0v-.6l.5.7,2.3.6c-.1.6-.2,1.2-.2,1.8l.7-.2v-1.6h.3c0,0,0-.3,0-.3l.2.3,2.1.5c0-.2,0-.5.2-.7h.7c0,.1.3.8.3.8l1.2-.3,1.4-3.7-1.3,3.5,1.7.3v-.4s-1.2-.5-1.2-.5l1-2.6c.2.2.4.5.5.7l.4-3,.3-.7c0,0-.1.1-.2.2v-.6c.2,0,.3-.1.5-.2h0v-.2c0,0-.2-.1-.2-.2,0,0,0,0,0,0l.2-.7c0,0-.1,0-.2,0v-.5c-.4,0-.7.2-.7.2-.2,0-.4.2-.7.3-.3-.1-.5-.2-.8-.3l1.2-6.3,12.5,7.7c.8.5,1.4,1,2,1.6-.4-.2-.7-.3-1-.4v1.6c-.1,0,.4,0,.4,0,.1,0,.3,0,.4,0h.4l.4-.7c.2.2.4.4.5.7h1.1c0,0-.2-.2-.2-.2-.4-.3-.9-.5-1.3-.7l9.9-17.5-2.1,14.6,8.9-14.3-3,40.2c0,.1,0,.3,0,.4l-.5,7-3.1.8h0c0,.1.5.9.5.9l1.2-.3-1.2.3.2.3c.2.4.5.7.7,1.1h0s.4.7.4.7c.4.7.7,1.5.9,2.2,0-.2,0-.4,0-.7h0c0-.8,0-1.6,0-2.4h0c0-.3,0-.6-.2-.8v.2c.2.7.6,2,.5,3.6l2.6,4.2-4.1,4-.5,1.2-1.1.7c-.3.8-.7,1.5-1.1,2-.5.7-1.1,1.3-1.7,1.9-.2.1-.8.7-.8.7.1-.1.2-.2.3-.3-.3.2-.7.5-1,.7l2.6,5.1-7.6,1.3-.7,2.6h-2.7s.3.7.3.7h-9.2s-13.3,23.6-13.3,23.6l3.4-23.8ZM264.5,76h0s0,0,0-.1c0,0,0,0-.1.1ZM264.6,72.1s0,0,0,0h0ZM260.8,67.9c.3.2.6.4.9.5h0c-.1-.3-.3-.5-.4-.8l-.5.2ZM260.8,67.9h0c0-.1,0,0,0,0,0,0,0,0,0,0ZM243.6,63.9h2.1s-.2-1.2-.2-1.2l-1.9,1.1h0ZM276.5,54.2h0c0,0-.2,0-.2,0h.1ZM277.3,53.3h0c0-.1,0-.3,0-.3,0,0,0,.2,0,.3ZM260.6,79.8c.4-.3.9-.5,1.4-.8h0s-1.5,1.1-1.5,1.1v-.3ZM264,77.5c0-.1,0-.3.1-.4.1,0,.2,0,.4.1l-.4.3s0,0,0,0ZM266.5,45.8h0Z"/>
    <path class="st1" d="M295.8,107.2c-1.8,0-3.4-.5-4.9-1.3l-4.4-2.3-.7-5.2c0-.6-.3-2.6.2-4.9l-.4.3.4-.9v-.5c0-.7,0-1.4.1-2l.2-1.6c-.1-.6-.2-1.3-.2-2s0-.4,0-.7l-.4-4h-66.4l55.8-14.6c-.3-.5-.5-1-.6-1.4l-.8-2-1.8-2.3.6-.8-.2-.6.9-.8-5.5-7.9,8.7-2.4c.2-.3.5-.6.7-.8-.1.2-.3.5-.4.8h.3c.8-.9,1.7-1.4,2.5-1.8l-.4-.6c1.6-1.1,3.5-1.7,5.6-1.7h2.5l.4.2.7,1.5-.2,1.9c0-.2.2-.3.3-.5v-1.2s.3.6.3.6l-.3.5c0-.1.2-.3.3-.4h0s0,0,0,0c0,0,.1-.1.2-.2v.5s.8,1.6.8,1.6l.4-.4v1.2h0s0-1.2,0-1.2l2.9-2.9h0c-.5-.5-.9-.9-1.3-1.1.3-.2.6-.3.8-.4h0c0-.1,0-.2.1-.2-.7-.2-1.6-.3-2.5-.3h0c-.3,0-.5,0-.8,0,0,0,0,0-.1,0h0s0,0-.1,0h0c-.1,0-.3-.1-.4-.1v.2c0,0-.1,0-.2,0v-1.2s.4,0,.4,0h.4c1.6.1,2.9.6,4,1.2.2,0,.4-.1.6-.2.1,0,.3,0,.4-.1v-1.3c1.4,0,2.5.4,3.5.8.1,0,.3,0,.4,0h3.8s0-.7,0-.7c1.2,0,2.4.2,3.5.7h2.9s0-8.2,0-8.2l13.2,8.1,13.3-9.6-6.6,14.7,4.7,4.6-3.1,3.9c.2.6.3,1.1.4,1.8,0,.6.1,1.2,0,1.8v4.5c0,0,30.3,8.5,30.3,8.5h-42.6c0,1.1-.2,2.1-.5,3,0,0,0,0,0,0,0,.2-.1.3-.2.5h0c0,.2-.1.4-.2.5,0,.2,0,.4,0,.6v.6c0-.3-.1-.5-.2-.8-.2.5-.5,1-.8,1.4.2.7.3,1.4.3,1.8h0c0,.1,0,0,0,0,0-.6-.2-1.2-.4-1.8,0,0,0,0,0,0,0,0,0,0,0,0-.3.4-.7.9-1.1,1.3-.2.2-.5.4-.7.6.6-.7,1.2-1.6,1.6-2.5,0-.1-.1-.2-.2-.3,0,0,0,0,0,0,0-.1-.1-.3-.2-.4h0c-.1-.3-.3-.5-.5-.8,0,.1-.2.2-.3.3l-.5.6c0,0,.1.1.2.1h0c0,0-.1,0-.2-.1l-.2.2-2.9.7.6,1.5h0c0,0,0,0,.1,0h0s.4.4.4.4c0,0,0,0,.1,0,.4.3.8.5,1.1.8,0,0,0,0-.1,0l1.3,1c0,0,.2.2.2.3l-.2.2c0,0,.1.1.2.2,0,0,.1-.1.2-.2.2.2.4.5.5.7,0,0,0,0,0,.1.6.7,1.1,1.4,1.4,2.2.2.5.4.9.5,1.1.3.9.5,1.8.6,2.8,0-.2.1-.4.2-.5l1.2,3.6-1.4,1.5c0,.2,0,.3,0,.5,0,0-.5,9.9-.5,9.9l-6.5-.2c.8-.4,1.6-.9,2.1-1.5-1.5.9-3.3,1.4-5.1,1.4s-.1,0-.1,0h0c-.2,0-.4,0-.6,0v1c.1,0,.2,0,.3,0v.3c0,0-7.3,0-7.3,0-1.3.6-2.8,1-4.3,1ZM310,79.4h0c0,0,0,0,0,0h0ZM288.4,52h1s-.9-.8-.9-.8v.8ZM301.6,50.6c0,.2.2.3.2.5v-.2l-.2-.3ZM288.7,50.3h0c0,0-.2-.2-.2-.2h0c0,0,.2.2.2.2ZM292.6,52.7h0ZM288.7,45.9h.1c0,0,0,1.2,0,1.2l-.2.3v-1.6ZM288.3,45.7h0s0,.1,0,.1h0Z"/>
    <path class="st1" d="M353.6,90.5h0ZM356.1,88.6h0c0,0,0,0,0,0h0ZM347.5,85.2h0ZM344.8,82.9l.2-.3s0,0,0-.1h-.2s0,.5,0,.5ZM342,80.8l.3-1h0c-.1-.1-.2-.2-.3-.2h0s0,1.2,0,1.2ZM334.4,58.2l-.2-.2h0c0,.1.2.2.3.2ZM332.4,57.8c.5,0,1.1.2,1.7.4h0c0,0-1.8-1.8-1.8-1.8v1.4ZM331.2,57.7h0,0s0,0,0,0ZM325.6,56.7h0c0,0,0-.5,0-.5v.5ZM344.7,53.8h.6c0,0-.4-.4-.4-.4l-.2.4ZM358.6,75.5s0,0,.1,0c0,0,0,0,0,0h0ZM328,54.6h0ZM328,52.3v-.2l.3-.3.7,1.4-1-.9ZM325.4,49.9l-2-1.8h1.8c0,0,0,0,0,0v-2.2c-.4,0-.8,0-1.2,0s-.4,0-.7,0h.4c.4-.1.8-.2,1.3-.2h0c0,.1,0,0,0,0,.2,0,.3,0,.5,0h1.1c0,0,0,.3,0,.3.4-.4.7-.7,1.1-1v1.6c-.4-.2-.8-.3-1.2-.4l-.2,2.2.3.7.4.2-.2.3h0c0,.1-.1,0-.1,0l-.6,1.2-.2-.2v.6c0,0-.8,1.3-.8,1.3v-2.6ZM327.9,52.2h.1c0-.1,0,0,0,0h-.1Z"/>
  </g>
  <g>
    <path class="st0" d="M54.1,54c0,0,.7-.3.7-.2,0,0,1.4,1.2,1.3,1.1.2,0,1.5-1.8,1.4-1.7,0,0,1.4.8,1.6.8-.2,0,1.2-.1,1.2,0,0,0,1.2-.3,1.2-.4,0,0,1.4.5,1.5.5,0,0,1.1-1.7,1.2-1.6-.1,0,1.3.7,1.4.6,0,0,1.2.9,1.1.9,0,0,1.5-.9,1.6-.9-.1,0,1.1,1.3,1.2,1.3,0,0,1.3-.7,1.3-.7,0,0,1.2-1.1,1.1-1.2.1,0,1.5.8,1.6.8,0,0,1.3,1.1,1.5,1.1-.2,0,1.2-1,1.3-1-.2,0,1.4-.1,1.4-.2,0,0,1.2.7,1.2.7,0,0,1.3.7,1.4.8-.1,0,1.4-.9,1.5-.9,0,0,1.1,1.2.9,1.1.2,0,.6,1.9.6,1.9,0,0,1.7,0,1.6,0,0,0,.7,1,.6,1,.1,0,.6,1.5.6,1.5,0,0,.9,1,1.1,1-.2,0,1.3.9,1.3.9,0,0,.5,1.4.6,1.5,0,0-.3,1.4-.3,1.5,0,0-.2,1.4,0,1.5-.2,0-.5,1.4-.7,1.4.1,0,.9,1.4,1,1.4-.2,0-.2,1.4-.3,1.5,0,0-.7,1.2-.9,1.3.2,0-.7,1.2-.7,1.2,0,0-1.1,1.2-1.2,1.2,0,0,.5,1.6.4,1.6,0,0-.2,1.5,0,1.5-.2,0-.8,1.3-1,1.2.1,0-1.5.4-1.4.5-.2,0-1.2,1.1-1.1,1,0,0-1.5.2-1.5.2,0,0-1,1.1-.8,1-.1,0-1.6.7-1.4.8-.1,0-1.7-.4-1.7-.4,0,0-1.4.3-1.3.3,0,0-1.5-.5-1.3-.4-.2,0-1.4.4-1.5.5,0,0-1.2-.4-1.3-.5,0,0-1.2-.5-1.1-.5-.1,0-1.3.9-1.4.9.1,0-1.3-1.2-1.3-1.2,0,0-1.2.8-1.1.7-.1,0-1.5-1.5-1.5-1.4,0,0-.3,1.9-.4,1.9,0,0-1.2.6-1.2.6,0,0,.4,1.6.4,1.6,0,0,.2,1.3.3,1.3,0,0-.4,1.5-.2,1.4-.1,0-.5,1.4-.5,1.4,0,0,1.4,1.3,1.4,1.3,0,0-1.2,1.4-1.3,1.5,0,0-.5,1.4-.4,1.3,0,0,.2,1.6,0,1.6.2,0,.9,1.3.9,1.3,0,0-.2,1.4-.1,1.4,0,0-1.3,1-1.5.9.2,0-1.3-.5-1.4-.5,0,0-1.2-1.2-1.3-1.3,0,0-1.3.8-1.3.7,0,0-1.2.8-1.2.7,0,0-1.5-.6-1.4-.6-.2,0-1.5.7-1.5.7,0,0-1-.7-1-.7,0,0-.4-1.3-.4-1.4,0,0,.2-1.3.1-1.3,0,0-.7-1.4-.5-1.4-.2,0,1.6-1.3,1.6-1.4,0,0-1.8-1.2-1.9-1.1.1,0,1.1-1.5,1.2-1.5-.1,0-.9-1.5-.8-1.6,0,0,1.1-1.2,1-1.1.1,0-.2-1.4,0-1.5-.2,0-.8-1.3-.9-1.3,0,0,0-1.4-.2-1.3.1,0,1.5-1.3,1.4-1.3,0,0,.3-1.6.3-1.7,0,0-2.3-.9-2.5-.8.2,0,.3-1.7.3-1.7,0,0,.9-1.3.8-1.4.1,0-.7-1.2-.7-1.2,0,0,1.5-1.5,1.4-1.4.1,0,.2-1.4.2-1.5,0,0-1.1-1.5-1.2-1.5,0,0,.7-1.1.7-1.2,0,0-.1-1.5-.3-1.6.1,0-.3-1.2,0-1.2-.2,0-.5-1.4-.6-1.3.2,0,1.8-1.4,1.9-1.3-.1,0-1.8-1.4-1.7-1.4-.1,0,.6-1.4.7-1.5,0,0,0-1.2,0-1.1.2,0,.3-1.4.3-1.4,0,0,.7-1.4.6-1.4,0,0-.6-1.2-.5-1.2ZM72.7,72.6s1.3-.6,1.3-.6c0,0,1.9.8,1.8.8,0,0,.4-2.3.4-2.3,0,0,1.5-.5,1.6-.5,0,0,.3-1.4.3-1.4,0,0-.1-1.4-.1-1.4,0,0,.3-1.6.3-1.6,0,0-1.9-.4-1.9-.4,0,0-.2-1.3-.2-1.4,0,0-.7-1.4-.7-1.4,0,0-1.7.6-1.7.5,0,0-1.3-1.3-1.2-1.3,0,0-1.4.7-1.4.7,0,0-1.3,1.1-1.3,1.1,0,0-1.4-.7-1.4-.8,0,0-1.4-1-1.3-1,0,0-1.4.9-1.4.9,0,0-1.1.2-1.1.1,0,0-.2.9-.2.9,0,0-.5,1.4-.5,1.5,0,0,1.2,1.2,1.3,1.2,0,0-.6,1.5-.6,1.5,0,0-1.2,1.4-1.2,1.4,0,0,1.1,1.5,1.1,1.5,0,0-.3,1.3-.3,1.3,0,0,1.5.6,1.5.6,0,0,1.4-.2,1.5-.3,0,0,1.2-1,1.2-1,0,0,1.4,0,1.5,0,0,0,1.3.5,1.3.5,0,0,1.5.8,1.5.8Z"/>
    <path class="st0" d="M90.6,54c-.1,0,.8-.4.7-.3,0,0,1.4,1.2,1.3,1.1.2,0,1.5-1.8,1.4-1.7,0,0,1.4.8,1.6.8-.2,0,1.2-.1,1.2,0,0,0,1.3-.3,1.3-.4,0,0,1.5.5,1.5.5,0,0,1.1-1.7,1.2-1.6-.1,0,1.3.7,1.4.6,0,0,1.2.9,1.2.9,0,0,1.6-.9,1.7-.9-.1,0,1.1,1.3,1.2,1.3,0,0,1.3-.7,1.3-.7,0,0,1.2-1.1,1.1-1.2.1,0,1.6.8,1.6.8,0,0,1.3,1.1,1.5,1.1-.2,0,1.2-1,1.4-1-.2,0,1.4-.1,1.4-.2,0,0,1.1.6,1.1.7,0,0,1.2.7,1.4.7-.1,0,1.2-1.1,1.3-1.1,0,0,1.2,1,1,.9.2,0,.8,1.8.9,1.8,0,0,1.6-.3,1.6-.3,0,0,.8.9.7.8.1,0,.8,1.4.7,1.5,0,0,1,1,1.2.9-.2,0,1.3.8,1.3.8,0,0,.6,1.4.6,1.5,0,0-.2,1.5-.3,1.5,0,0-.2,1.4,0,1.5-.2,0-.5,1.5-.7,1.5.1,0,.9,1.3,1,1.4-.2,0-.2,1.4-.3,1.5,0,0-.7,1.1-.9,1.2.2,0-.8,1-.7,1,0,0-1.2.9-1.3.9.1,0,.1,1.7,0,1.6,0,0-.7,1.4-.5,1.4-.2,0-1.4,1.1-1.5,1.1.2,0-1.4-.3-1.3-.2-.2,0,1.4,0,1.4,0,0,0,.8,1.2.8,1.3,0,0,1.6.3,1.7.3-.1,0,1.1,1.3,1.2,1.4-.1,0,0,1.7,0,1.7,0,0,.6,1.4.7,1.4,0,0-.4,1.5-.2,1.6-.2,0,.4,1.3.3,1.4.1,0-.2,1.4-.3,1.3,0,0-.5,1.3-.4,1.3-.1,0,.8,1.1.7,1.1.2,0-1,1.4-1,1.4,0,0,.8,1.3.9,1.2-.1,0-1.6,1.6-1.7,1.6,0,0,2.5.2,2.4.2,0,0,.1,2,.2,2,0,0,.5,1.4.4,1.5,0,0-1.4.2-1.4.2,0,0-1.6-.4-1.4-.4-.2,0-1.5-.3-1.6-.3,0,0-1.2,1.4-1.3,1.4,0,0-1.4-1.3-1.4-1.3,0,0-1.4-.5-1.3-.5,0,0-1.6.3-1.8.4.2,0-1.2.7-1.2.7,0,0-.3-1.3-.2-1.4-.1,0-1.3-.9-1.5-.9.2,0,.5-1.5.4-1.5,0,0,1.2-1.6,1.2-1.6,0,0-.8-1.5-.8-1.5,0,0-.7-.9-.8-1,0,0,.7-1.4.9-1.4-.2,0-1-1.1-1-1.2,0,0,.8-1.6.8-1.6,0,0-.8-1.7-.8-1.7,0,0-.4-.9-.5-1,0,0-1.3,0-1.1,0-.2,0-1.1-2.2-1.1-2.3,0,0-1.8,1.6-2,1.7.1,0-1.3-1.1-1.2-1.1-.1,0-1.7.8-1.6.7,0,0-1.4-1.2-1.5-1.1.2,0-1.3.3-1.1.2-.2,0-1.5.7-1.6.6,0,0-1.1,0-1.3.1.2,0-1.1,1-1.2,1,0,0-.2,1.6-.3,1.6,0,0,2.5,1,2.3,1,.2,0,0,1.6,0,1.7,0,0-.9,1.2-1.1,1.1.1,0,1,1.3,1,1.4,0,0-1.5,1.3-1.6,1.4.1,0,0,1.2,0,1.2,0,0,1.1,1.6,1,1.5,0,0-.5,1.3-.5,1.2,0,0,.1,1.5,0,1.5.1,0,.4,1.5.6,1.4-.2,0-1.7.5-1.9.5.2,0-1.2-1.7-1-1.6-.1,0-1.4,1.6-1.2,1.6-.1,0-1.5-.7-1.5-.8,0,0-1.3,0-1.5,0,.2,0-1.2-.2-1.1-.1,0,0-1.3-.8-1.4-.9,0,0-.7.5-.7.5,0,0-1.1-.7-1-.7,0,0,.5-1.3.3-1.2.2,0-1.1-1.3-1-1.4,0,0,.2-1.6.3-1.6-.1,0,1.1-1.3,1-1.3,0,0-.9-1.4-.9-1.3,0,0,0-1.3,0-1.4.2,0,.9-1.5,1.1-1.5-.1,0-.9-1.3-.9-1.3,0,0,1-1.4,1.2-1.5-.2,0-1.8-1.2-1.6-1.3-.2,0,1.1-1.3,1.1-1.3,0,0,.3-1.6.2-1.6,0,0-.5-1.2-.4-1.2-.2,0-.2-1.4,0-1.5-.2,0,.5-1.3.5-1.4,0,0-1-1.2-.9-1.2,0,0,.4-1.6.5-1.6-.2,0,.2-1.2.3-1.2-.1,0-.5-1.5-.4-1.5-.1,0,.3-1.3.1-1.4.1,0,.3-1.2.5-1.3-.2,0-.2-1.4-.2-1.4,0,0-.2-1.4-.2-1.4,0,0,0-1.4.2-1.4-.2,0-.3-1.4-.3-1.5,0,0-.1-1.3-.2-1.3,0,0-.9-1.3-.7-1.3-.2,0,1-1.4,1-1.3,0,0,0-1.5,0-1.5-.1,0,0-1.1.2-1.1ZM109.9,72.1s1.3-.6,1.3-.6c0,0,2,.8,1.9.8,0,0,.6-2.3.6-2.3,0,0,1.5-.4,1.5-.4,0,0,.3-1.3.3-1.3,0,0-.2-1.3-.2-1.3,0,0,.3-1.5.3-1.5,0,0-1.9-.3-1.8-.3,0,0-.2-1.3-.1-1.3,0,0-.6-1.3-.6-1.3,0,0-1.6.6-1.6.6,0,0-1.1-1.3-1.1-1.3,0,0-1.4.7-1.4.7,0,0-1.3,1.1-1.3,1.1,0,0-1.4-.7-1.4-.8,0,0-1.4-1-1.3-1,0,0-1.4.9-1.4.9,0,0-1.6.2-1.6.2,0,0-1.1-.5-1.1-.5,0,0-.5,1.2-.4,1.3,0,0,1.2,1.1,1.3,1.1,0,0-.6,1.4-.6,1.4,0,0-1.2,1.3-1.2,1.3,0,0,1.1,1.4,1.1,1.4,0,0-.2,1.2-.3,1.2,0,0-.3,1.8-.3,1.8,0,0,1.7,0,1.7,0,0,0,1.1-1,1.1-1,0,0,1.3,0,1.3,0,0,0,1.3.5,1.2.5,0,0,1.3.4,1.4.4,0,0,1.1.4,1.1.4,0,0,1.4,0,1.5,0Z"/>
    <path class="st0" d="M147.4,53.3c-.1,0,1.2-.5,1.1-.4,0,0,1.3,1.3,1.2,1.2.2,0,1.8-1.6,1.7-1.5,0,0,1.3,1,1.5,1.1-.2,0,1.1.2,1.2.3,0,0,1.3.2,1.3.1,0,0,1.2,1,1.2,1.1,0,0,1.8-.9,1.9-.8-.1,0,.7,1.4.8,1.3,0,0,.4,1.5.4,1.4,0,0,1.8.3,2,.3-.1,0,0,1.8,0,1.8,0,0,1.3.5,1.4.5,0,0,1.7.3,1.5.3.1,0,.4,1.7.4,1.7,0,0-.2,1.7,0,1.8-.2,0,1.2.7,1.4.7-.2,0,.6,1.4.6,1.4,0,0,0,1.3,0,1.4,0,0-.1,1.4,0,1.5-.1,0,1.4.8,1.4.8,0,0-.4,1.6-.6,1.5.2,0-.9,1.6-.8,1.6,0,0,1.1,1.3,1,1.3,0,0-.1,1.2-.3,1.1.1,0-.3,1.5-.4,1.5,0,0,.2,1.4.4,1.3-.2,0,.7,1.5.7,1.5,0,0-.2,1.5-.1,1.5,0,0-.8,1.2-.9,1.3,0,0-.7,1.2-.5,1.2-.2,0-1.1,1.2-1.2,1.2.2,0,.4,1.4.6,1.5-.2,0-.7,1.2-.8,1.3.1,0-1,.8-1.2.8.2,0-1,.7-.9.8,0,0-1.3.8-1.5.8.1,0,0,1.7,0,1.7,0,0-.5,1.4-.3,1.4-.2,0-1,1.2-1.2,1.1.2,0-1.5.3-1.3.4-.2,0-1.2,1-1.1,1,0,0-1.4.2-1.5.3,0,0-.8,1.1-.7,1-.2,0-1.5.9-1.3.9-.1,0-1.7-.2-1.8-.2,0,0-1.3.5-1.2.5,0,0-1.5-.3-1.3-.2-.2,0-1.5.5-1.6.6.1,0-1.3-.3-1.4-.4,0,0-1.3-.6-1.1-.6-.2,0-1.5.8-1.7.8.2,0-1.2-1.4-1.2-1.5,0,0-1.4.5-1.3.4-.2,0-1.1-1.8-1.1-1.8,0,0-1.8,1.8-1.9,1.8,0,0-.6-1.9-.6-1.9,0,0-1.6-.3-1.6-.3,0,0-1.3-.7-1.2-.7,0,0-1-1.2-.8-1.2-.2,0-.9-1.1-1-1,0,0-1.8,0-1.9,0,.1,0,.2-1.9.1-1.9,0,0-.4-1.3-.3-1.4,0,0-1.1-.9-1.3-.9.2,0-1.1-.8-1.1-.8,0,0-.4-1.3-.3-1.3-.1,0-1.5-.7-1.7-.8.2,0,.2-1.6.1-1.6,0,0,.9-1.5.8-1.6,0,0-.9-1.1-1-1.1,0,0-.9-1-.9-1,0,0,.5-1.6.7-1.6-.2,0-1-1.3-1-1.3,0,0,.9-1.2.9-1.2,0,0-.4-1.5-.4-1.6,0,0,.3-1.2.2-1.3.1,0-.5-1.5-.3-1.4-.2,0,1.8-1,1.8-1,0,0-1.5-1.5-1.6-1.4.1,0,1.5-1.1,1.6-1.2-.1,0-.3-1.7-.2-1.7-.1,0,1.5-.5,1.3-.5.2,0,.5-1.4.7-1.4-.2,0,0-1.4-.2-1.4.1,0,.8-1.2.6-1.1.2,0,2-.2,1.9-.2,0,0,1.3-1,1.2-1,0,0-.9-2.3-1.1-2.3.2,0,1.6-1.1,1.6-1.1,0,0,1.6-.1,1.5-.2.2,0,.8-1.4.9-1.3,0,0,2,.5,1.8.6.1,0,1.3-.5,1.3-.6,0,0,1.1-1.5,1-1.6,0,0,1.5.3,1.5.3,0,0,1.5-.4,1.4-.5.1,0,1.3-.5,1.5-.5-.2,0,1.3-.4,1.1-.3.2,0,1.5.9,1.7,1ZM147.2,61.2c0,0-1.3.5-1.3.6,0,0-1.7-1-1.8-1,0,0-.6,2.2-.6,2.3,0,0-1.6,0-1.5,0,0,0-1.1,1-1.1,1,0,0-.7,1.2-.7,1.1,0,0-1.1,1-1.1,1,0,0,1,1.7,1,1.7,0,0-1.2.9-1.2.9,0,0-1.2.9-1.2.9,0,0,.7,1.7.7,1.7,0,0-1.5,1-1.4,1,0,0,.6,1.3.6,1.3,0,0,1.1,1.2,1,1.1,0,0-.6,1.6-.6,1.5,0,0-.9,1.6-.8,1.6-.1,0,1,1.2,1.1,1.2-.1,0,.5,1.5.5,1.5,0,0,0,1.3,0,1.4,0,0,.2,1.5.2,1.6,0,0,1.7.3,1.7.3,0,0,.5,1.4.4,1.4,0,0,.3,1.9.4,2,0,0,1.8-.2,1.8-.2,0,0,1.1.7,1,.6,0,0,1.5.8,1.4.8,0,0,1.5-.1,1.6-.2,0,0,1.1-1,1.1-1,0,0,1.3-.4,1.3-.3,0,0,1.4,0,1.3,0,0,0,1.5-.4,1.6-.4,0,0,1.3-.7,1.2-.7,0,0,.3-1.5.4-1.4,0,0,.6-1.3.5-1.3,0,0,1.1-1.1,1-1.1,0,0,1.1-1.2,1.1-1.2,0,0,.8-1.5.7-1.5,0,0-.8-1.5-.8-1.6,0,0-.4-1.4-.3-1.5,0,0-.4-1.3-.5-1.4,0,0,.9-1.4,1-1.4,0,0-.6-1.5-.6-1.5,0,0,.3-1.3.3-1.3,0,0-1-1.1-.9-1.1,0,0-.8-1.2-.7-1.1,0,0-.1-1.5-.1-1.5,0,0-.8-1.1-.7-1.1,0,0-.5-1.4-.4-1.4,0,0-1.4-.6-1.5-.6,0,0-1-1.1-1-1.1,0,0-1.1-1.1-1-1.1,0,0-1.7.6-1.8.6,0,0-1.4-1.2-1.3-1.2Z"/>
    <path class="st0" d="M170.1,54c-.1,0,.7-.3.7-.2,0,0,1.4,1.2,1.3,1.1.2,0,1.5-1.8,1.4-1.7,0,0,1.4.8,1.6.8-.2,0,1.1-.1,1.2,0,0,0,1.2-.3,1.2-.4,0,0,1.4.5,1.5.5,0,0,1-1.7,1.2-1.6-.1,0,1.3.7,1.3.6,0,0,1.2.9,1.1.9,0,0,1.5-.9,1.7-.9-.1,0,1.1,1.3,1.2,1.3,0,0,1.2-.7,1.3-.7,0,0,1.2-1.1,1.1-1.2.1,0,1.5.9,1.6.8,0,0,1.2,1.1,1.4,1.2-.2,0,1.2-.8,1.4-.9-.2,0,1.4,0,1.4,0,0,0,1,.8,1,.8,0,0,1.1.8,1.3.9-.1,0,1.4-.9,1.4-.9,0,0,1,1.1.9,1,.2,0,.6,1.8.7,1.9,0,0,1.7-.2,1.6-.2,0,0,.9.9.7.9.1,0,.8,1.4.8,1.4,0,0,1.1.9,1.3.8-.2,0,1.4.6,1.4.6,0,0,.8,1.3.9,1.3,0,0,0,1.4,0,1.5,0,0,.2,1.4.3,1.5-.2,0-.2,1.5-.3,1.5.2,0,1.2,1,1.4,1.1-.2,0,.2,1.3.1,1.4.1,0-.2,1.3-.4,1.3.2,0-.2,1.3-.1,1.3,0,0-.5,1.5-.6,1.4.1,0,1.2,1.3,1.1,1.3,0,0,.7,1.4.8,1.3-.2,0,.1,1.4,0,1.3.2,0-.8,1.4-.7,1.5-.2,0,0,1.4.1,1.3,0,0-.8,1.2-.9,1.2,0,0,.4,1.3.6,1.2-.1,0-.3,1.5-.1,1.6-.1,0-1.2,1.1-1.2,1.1,0,0-.3,1.3-.2,1.3,0,0-1.2,1.1-1,1.2-.2,0-.5,1.4-.6,1.5.1,0-1,1-1.1.9,0,0-1.3.8-1.2.8-.2,0-.4,1.6-.5,1.6.2,0-1.8.2-1.9.1,0,0-.7,1.5-.5,1.4-.2,0-2.1-.7-2.2-.6,0,0,0,2.6-.1,2.6,0,0-1.7-.9-1.7-.9,0,0-1.4.8-1.4.9,0,0-1.3.4-1.3.4,0,0-1.5-.2-1.4-.2-.2,0-1.5-.2-1.5-.2,0,0-1.2,1.4-1.3,1.4,0,0-1.4-1.3-1.4-1.3,0,0-1.4-.5-1.3-.5,0,0-1.6.3-1.8.4.2,0-1.2.7-1.2.6,0,0-1.4-.2-1.3-.2-.1,0-1.4,1-1.6,1,.2,0-1.4-.5-1.5-.5,0,0-1.2-1.2-1.3-1.3,0,0-1.3.8-1.3.7,0,0-1.2.8-1.2.7,0,0-1.6-.6-1.4-.6-.2,0-1.6.7-1.6.7,0,0-1.1-.7-1-.7,0,0-.4-1.3-.4-1.4,0,0,.2-1.3.1-1.3,0,0-.7-1.4-.5-1.4-.2,0,1.6-1.3,1.6-1.4,0,0-1.8-1.2-1.9-1.1.1,0,1.1-1.5,1.2-1.5-.1,0-.9-1.5-.8-1.6-.1,0,1.1-1.2,1-1.1.2,0-.2-1.4,0-1.5-.2,0-.8-1.3-.9-1.3.1,0,0-1.4-.2-1.3.2,0,1.5-1.3,1.4-1.3,0,0,.3-1.6.3-1.7,0,0-2.3-.9-2.5-.8.2,0,.3-1.7.3-1.7,0,0,.9-1.3.8-1.4.1,0-.7-1.2-.7-1.2,0,0,1.5-1.5,1.3-1.4.1,0,.2-1.4.2-1.5,0,0-1.1-1.5-1.2-1.5,0,0,.7-1.1.7-1.2,0,0-.1-1.5-.3-1.6.1,0-.2-1.2,0-1.2-.2,0-.5-1.4-.7-1.3.2,0,1.8-1.4,1.9-1.3-.1,0-1.8-1.4-1.7-1.4-.1,0,.6-1.4.7-1.5,0,0,0-1.2,0-1.1.2,0,.3-1.4.3-1.4,0,0,.7-1.4.6-1.4.1,0-.6-1.2-.5-1.2ZM187.4,87.5s1-.6,1-.5c0,0,1.6,1,1.6.9,0,0,.8-2.1.8-2.1,0,0,1.6.1,1.6.2,0,0,.9-.9,1-.9,0,0,.6-1.2.6-1.2,0,0,1.1-1.1,1.2-1.1,0,0-1.1-1.7-1.1-1.7,0,0,1-1.2,1-1.2,0,0,1.1-1.1,1-1.1,0,0-.7-1.6-.7-1.6,0,0,1.3-1.2,1.3-1.2,0,0-.7-1.4-.7-1.4,0,0-1.2-1.2-1.2-1.2,0,0,.7-1.4.7-1.4,0,0,.8-1.4.9-1.4,0,0-1.2-1.2-1.1-1.2,0,0-.7-1.3-.7-1.4,0,0,0-1.1,0-1.1,0,0-.3-1.5-.2-1.5,0,0-1.8,0-1.8,0,0,0-.9-1.2-1-1.3,0,0-.9-1.7-.9-1.6,0,0-1.8.8-1.9.8,0,0-1.3-.3-1.3-.4,0,0-1.5-.4-1.5-.4,0,0-1.4.2-1.4.2,0,0-1.5,1-1.5,1,0,0-1.6,0-1.5.1,0,0-1.3-.6-1.3-.6,0,0-.3,1.1-.2,1.1,0,0-.5,1.4-.6,1.4,0,0,.8,1.2.9,1.2,0,0,0,1.3,0,1.3,0,0-.4,1.2-.5,1.3,0,0-.4,1.3-.4,1.3,0,0-.5,1.5-.5,1.4,0,0,1.1,1.3,1.1,1.3,0,0,.6,1.4.7,1.3,0,0,.3,1.3.2,1.3,0,0-.8,1.5-.7,1.5,0,0,.3,1.4.4,1.4,0,0-.6,1.3-.6,1.3,0,0,.7,1.2.8,1.1,0,0,.2,1.5.3,1.5,0,0-.6,1.4-.6,1.4,0,0,.2,1.3.3,1.3,0,0-.6,1.2-.5,1.3,0,0,1.2-.6,1.1-.5,0,0,1.5.3,1.4.2,0,0,1.4.7,1.5.7,0,0,1.3-1,1.3-1,0,0,1.5,1.1,1.6,1.1Z"/>
    <path class="st0" d="M243.7,82.5c-.1,0,.4,1.3.3,1.4,0,0-1.3,1.1-1.5,1.1.2,0,1.7,1.7,1.6,1.8,0,0-1.1,1-1,1-.2,0-.6,1.2-.5,1.3,0,0-.5,1.2-.5,1.2,0,0-1.2,1-1.1,1,0,0,.3,2,.4,2-.1,0-1.7.4-1.7.4,0,0-1.6.2-1.7,0,0,0-.8,1.7-.7,1.7-.1,0-1.8-.6-1.8-.6,0,0-1.1,1.1-1,1.1,0,0-1,1.5-1.1,1.4.1,0-1.5-.3-1.5-.4,0,0-1.6-.7-1.4-.6-.2,0-1.4,1-1.3,1-.2,0-1.8.3-1.8.3,0,0-1.2-.4-1.2-.3,0,0-1.4-.7-1.3-.6-.1,0-1.4,1.1-1.3,1.1,0,0-1.5-.7-1.7-.8.2,0-.9-1.4-.9-1.3,0,0-1.7.7-1.8.7,0,0-1-.6-1.2-.7.1,0-1.1-.9-1.1-.9,0,0-1.3-.4-1.1-.5-.2,0-1.8.2-1.8.2,0,0-1.3-.8-1.2-.8,0,0-.8-1.4-.8-1.3,0,0-.6-1.4-.4-1.4-.2,0-.7-1.4-.8-1.4.1,0-1.1-.7-.9-.6-.2,0-.9-1.3-1-1.2,0,0,.2-1.5,0-1.5.2,0,.4-1.4.5-1.4,0,0,.2-1.4.1-1.5,0,0-1-1.1-1.1-1.2,0,0-.5-1.3-.3-1.4-.2,0-.5-1.3-.7-1.4.2,0,1-1.4,1.2-1.3-.2,0-.6-1.6-.5-1.6,0,0,.4-1.2.4-1.1,0,0-.7-1.3-.5-1.4-.1,0-.4-1.4-.3-1.3-.1,0,.4-1.5.4-1.5,0,0-.2-1.4,0-1.4,0,0,.4-1.3.6-1.2-.2,0-.7-1.4-.8-1.4.1,0,.4-1.5.3-1.6,0,0,.7-1.3.9-1.3-.1,0-1.1-1.3-1.3-1.3.2,0,1.3-1.5,1.3-1.6,0,0-.7-1.3-.5-1.3-.1,0,1.4-1.4,1.4-1.3,0,0-2.4-1.1-2.4-1.2,0,0,1.5-1.4,1.5-1.4,0,0-.5-1.5-.5-1.5,0,0-.1-1.6,0-1.6,0,0,1.6.3,1.7.2-.2,0,1.1.4,1,.4,0,0,1.3-1.4,1.2-1.4,0,0,1.5,1.3,1.5,1.3,0,0,1.3.5,1.4.4,0,0,1.4-.2,1.2-.2.2,0,1.5-.8,1.5-.8,0,0,1.3.3,1.4.2,0,0,.9,1.3.7,1.2.2,0-.4,1.6-.5,1.6,0,0-1.2,1.3-1.2,1.3,0,0,.8,1.4.8,1.3,0,0,.7,1.3.7,1.3,0,0-.6,1.6-.4,1.6-.2,0,.6,1.3.5,1.3,0,0-.9,1.3-.8,1.3,0,0,.3,1.5.3,1.4,0,0-.1,1.4-.2,1.3,0,0,.9,1.5,1.1,1.6-.2,0-1.9,1.3-1.9,1.3,0,0,1.7,1.3,1.6,1.4.1,0-.9,1.3-.8,1.3-.1,0,.7,1.6.7,1.5,0,0-1.3,1.3-1.5,1.4.2,0,.5,1.3.7,1.3-.2,0,.5,1.4.4,1.4,0,0,.2,1.4,0,1.4.2,0-1.2,1.3-1.3,1.3,0,0,0,1.8-.1,1.7,0,0,2.6.5,2.5.6.2,0,.7,1.3.7,1.4,0,0,0,1.4-.1,1.4.1,0,1.6.2,1.6.2,0,0,.6,1.9.5,1.9.1,0,1.5.3,1.5.3,0,0,1.7-.9,1.6-1,0,0,1.4.6,1.4.6,0,0,1.5-.5,1.4-.5.1,0,1.1-.8,1.3-.9-.2,0,.7-1,.5-.9.2,0,2.3-.1,2.4,0-.1,0-1.1-2-.9-2-.1,0,.9-1.2,1-1.2,0,0,.2-1.2,0-1.1.2,0,.3-1.5.3-1.4,0,0,.7-1.4.6-1.4,0,0,0-1.5,0-1.5,0,0-1.4-1.3-1.3-1.3,0,0,.5-1.3.3-1.3.2,0-1.1-1.3-1-1.4,0,0,.2-1.6.3-1.6-.1,0,1.1-1.3,1-1.3,0,0-.9-1.4-.9-1.3,0,0,0-1.3,0-1.4.2,0,.9-1.5,1.1-1.5-.1,0-.9-1.3-.9-1.3,0,0,1-1.4,1.2-1.5-.2,0-1.8-1.2-1.6-1.3-.2,0,1.1-1.3,1.1-1.3,0,0,.3-1.6.2-1.6,0,0-.5-1.2-.4-1.2-.2,0-.2-1.5,0-1.5-.2,0,.5-1.4.5-1.4,0,0-.9-1.6-.9-1.5,0,0,1.7.1,1.9.1-.2,0,1,.4,1.1.3-.1,0,1.3-.3,1.4-.4-.1,0,1.3.4,1.1.4.1,0,1.3.2,1.5.2-.1,0,1.3,0,1.3,0,0,0,1.4-.2,1.3-.1,0,0,1.2-.2,1.4-.2-.2,0-.2,1.1-.2,1.1,0,0,.2,1.4.2,1.4,0,0,.9,1.3,1,1.3-.2,0-1.4,1.3-1.4,1.4,0,0,.2,1.4.3,1.3-.1,0-.3,1.3-.2,1.3-.1,0-.8,1.4-.8,1.4,0,0,1.7,1.3,1.9,1.3-.1,0-1.4,1.5-1.2,1.4-.2,0,0,1.5.1,1.5,0,0,.1,1.4,0,1.3,0,0-.6,1.5-.8,1.4.2,0,1,1.3,1.1,1.4,0,0,.9,1.2,1.1,1.3-.1,0-1.3,1.3-1.1,1.2-.2,0,.6,1.6.7,1.6-.1,0-.8,1.4-.8,1.3,0,0,0,1.4.1,1.4,0,0,1.1,1.3,1.1,1.2,0,0-1.6,1.2-1.6,1.2,0,0,0,1.6,0,1.7Z"/>
    <path class="st0" d="M284,81.3c-.1,0,.3,1.2.3,1.3,0,0-1.4,1.1-1.6,1.1.2,0,1.6,1.9,1.5,1.9,0,0-1.2,1-1,1-.2,0-.7,1.4-.7,1.4,0,0-.6,1.3-.6,1.3,0,0-1.3,1.1-1.2,1.1,0,0,.2,2.1.4,2.2-.1,0-1.7.5-1.7.4,0,0-1.6.2-1.7.1,0,0-.7,1.7-.6,1.7-.1,0-1.9-.4-1.8-.4,0,0-1,1.2-.9,1.2,0,0-.9,1.5-1,1.5.1,0-1.5-.2-1.5-.3,0,0-1.6-.6-1.4-.5-.2,0-1.4,1-1.2,1-.2,0-1.8.3-1.8.3,0,0-1.2-.4-1.2-.3,0,0-1.4-.7-1.2-.6-.1,0-1.4,1.1-1.3,1.1,0,0-1.5-.7-1.6-.8.2,0-.9-1.4-.8-1.3,0,0-1.7.7-1.8.8,0,0-1-.6-1.1-.7.1,0-1-.9-1.1-.8,0,0-1.2-.3-1.1-.4-.2,0-1.8.3-1.7.3,0,0-1.3-.7-1.2-.7,0,0-.8-1.3-.9-1.3,0,0-.7-1.3-.5-1.3-.2,0-.9-1.4-1-1.4.2,0-1.2-.5-1-.4-.2,0-1.1-1.2-1.2-1.1.1,0-.1-1.5-.3-1.5.2,0,0-1.4.2-1.4,0,0-.2-1.5-.3-1.6.1,0-1.3-.8-1.4-.9,0,0-.9-1.1-.7-1.2-.2,0-.8-1.2-1-1.3.2,0,.8-1.5.9-1.4-.2,0-.7-1.6-.6-1.6,0,0,.4-1.3.3-1.2,0,0-.7-1.3-.6-1.4-.1,0-.4-1.4-.3-1.3-.1,0,.5-1.5.5-1.5,0,0,0-1.4,0-1.4,0,0,.6-1.2.8-1.2-.2,0-.4-1.5-.5-1.4.1,0,.7-1.4.7-1.5,0,0,1.1-1,1.3-1-.2,0-.6-1.5-.8-1.5.2,0,1.8-.9,1.8-1,0,0,0-1.4.2-1.5-.2,0,1.9-.3,1.9-.2,0,0-1.3-2.3-1.3-2.3,0,0,2.1-.1,2.1-.1,0,0,.7-1.4.7-1.4,0,0,.9-1.1,1-1.1,0,0,1.4-.6,1.5-.7-.2,0,1.1-.4,1-.3,0,0,.6-1.8.5-1.8,0,0,2,.6,1.9.6,0,0,1.4,0,1.5,0,0,0,1.2-.6,1-.5.2,0,1.3-1,1.3-1.1,0,0,1.4,0,1.5,0-.1,0,1.1-1.1.9-1.1.2,0,1.8.6,1.7.6,0,0,1.4,1.3,1.3,1.2,0,0,1.5-.6,1.5-.7,0,0,1.4-.4,1.4-.4,0,0,1.5,1,1.7,1.1-.2,0,1.4-.3,1.3-.3,0,0,1,1.3,1,1.4,0,0,1.5.3,1.5.2,0,0,1.1.8,1,.8,0,0,1.7.2,1.9.2-.2,0-.3,2.2-.2,2.1,0,0,2-.4,1.9-.3.1,0,.3,1.6.5,1.6-.1,0,1.4.8,1.5.7-.1,0-.5,1.8-.6,1.8.2,0,1.1,1,1.3.9-.2,0,.9,1,.8,1,.1,0,.6,1.3.5,1.4.2,0-.9,1.4-1,1.4,0,0-.1,1.5-.2,1.4,0,0,2.1,1.4,1.9,1.4.2,0-1.9.1-1.9.2,0,0-1.2-1-1.4-1.1.2,0-1.1.9-1,.9,0,0-1.4-1.5-1.5-1.5.1,0-1.1-.1-1.1-.2,0,0-1.5,1.2-1.5,1.1,0,0-1.1-.5-1.1-.6,0,0-1.3.2-1.4.1.1,0-.6-1-.4-1.1-.2,0-1-1-1.2-.9.2,0,.7-2.1.8-2-.1,0-2.2.2-2.1.2-.1,0-.9-1.4-.8-1.4,0,0-1.2-.6-1.4-.5.2,0-1.1-.5-1.1-.4,0,0-1.3-.9-1.4-1,.1,0-1.5.3-1.5.3,0,0-1.1,1.6-1,1.6,0,0-1.5,0-1.7,0,.2,0-.2,1.6,0,1.5-.1,0-1.4.8-1.3.8-.1,0-1.8.2-1.9.1,0,0,0,1.7,0,1.8,0,0-.5,1.1-.7,1,.2,0-1.1,1.3-.9,1.3-.1,0,.3,1.5.3,1.6,0,0-1.2,1.2-1,1.1-.2,0,1.3,1.6,1.4,1.6-.2,0-1.5,1.4-1.5,1.5,0,0-.3,1.5-.4,1.4.1,0,.9,1.2,1,1.3-.2,0,0,1.3.2,1.3-.2,0-.5,1.5-.6,1.5,0,0,1.5.9,1.6,1,0,0,.2,1.4.4,1.4-.2,0,.2,1.2.3,1.2-.2,0,1.1,1,1.2.9-.1,0,.7,1.3.6,1.2.1,0,1.1.9,1.3.8-.2,0,1.3.6,1.3.6,0,0,1.4,0,1.3.1,0,0,1.5,0,1.6,0-.2,0,1.3-.2,1.2-.3,0,0,1.4-.5,1.4-.5,0,0,.8-1.3,1-1.3-.2,0,1.6.1,1.6.2,0,0,1.1-1.3,1.2-1.3-.1,0,.8-1.1,1-1.2-.1,0,1.2-1.2,1.2-1.2,0,0-1.3-2.2-1.2-2.2-.1,0,1.6,1,1.8.9-.2,0,1.2-.2,1.2-.2,0,0,1.2-.2,1.2-.3,0,0,1.4.7,1.2.7.2,0,1.4-.9,1.5-.8,0,0,1.1-1.1,1.2-1-.1,0,1.2,1.1,1.4,1-.2,0,1.8-.4,1.9-.4-.1,0-1.2,1-1.1,1.1Z"/>
    <path class="st0" d="M307.1,95.9c0,0-1,.3-1.1.4,0,0-1.3-1.3-1.5-1.4.2,0-1.2,1.9-1.2,1.9,0,0-1.3-.9-1.1-.9-.2,0-1.5,0-1.5.1,0,0-1.4.2-1.4.1,0,0-1.4-.4-1.4-.4,0,0-2.3,1.3-2.1,1.3-.1,0,.2-2.4.2-2.4,0,0,.8-1.2.8-1.3,0,0-.9-1.5-.8-1.5-.1,0,1.2-1.2,1.2-1.2,0,0-.8-1.3-.7-1.3,0,0-1.2-1.2-1.3-1.3.1,0,.9-1.4.9-1.4,0,0,1-1.3,1.1-1.2-.2,0-1.1-1.4-.9-1.4-.2,0-.4-1.5-.4-1.6,0,0,.5-1.1.5-1,0,0,.5-1.5.7-1.4-.1,0-1.4-1.2-1.4-1.2,0,0,.5-1.4.3-1.5.2,0,1.4-1.2,1.5-1.2,0,0-1.2-1.5-1.3-1.4,0,0,.3-1.2.2-1.3.1,0,.6-1.4.5-1.4,0,0-.2-1.4,0-1.4-.2,0-1.1-1.2-1.1-1.2,0,0-.1-1.4,0-1.3,0,0,.5-1.4.4-1.4,0,0,.5-1.5.6-1.4-.2,0,.2-1.5.1-1.5.1,0-.6-1-.4-1-.2,0-1.3.1-1.4.2,0,0-1.2-.6-1.4-.6.2,0-1.1-.5-1.1-.5,0,0-1.5-.5-1.6-.5,0,0-1.2,1.1-1.2,1.1,0,0-1.3.6-1.1.6-.2,0-1.5.4-1.6.3.1,0-1.3-.8-1.1-.7-.2,0-1.9.1-1.9,0,0,0,.4-1.5.3-1.5,0,0-.7-1.2-.5-1.3-.1,0-.4-1.3-.3-1.2-.1,0,.4-1.4.4-1.4,0,0-.2-1.3,0-1.3,0,0,.4-1.2.6-1.2-.2,0-.5-1.8-.6-1.7.1,0,1.9,0,1.8,0,0,0,1.4.7,1.6.7-.1,0,1.1-1,.9-1,.1,0,1.7,1.2,1.6,1.1,0,0,1.3-.7,1.5-.7-.1,0,1.3,1.6,1.2,1.7,0,0,1.1-2.4,1-2.5,0,0,1.4,1.4,1.4,1.4,0,0,1.5-.5,1.5-.4,0,0,1.4-.3,1.4-.3,0,0,1.4.4,1.6.3-.1,0,1.1.4,1,.4,0,0,1.3-1.4,1.2-1.4,0,0,1.5,1.3,1.5,1.3,0,0,1.3.5,1.4.4,0,0,1.4-.2,1.2-.2.2,0,1.5-.8,1.5-.8,0,0,1.4.3,1.5.2,0,0,1.1-1,1-1,.2,0,1.7.7,1.6.7,0,0,1.3,1.2,1.3,1.2,0,0,1.4-.7,1.4-.8,0,0,1.2-.6,1.2-.6,0,0,1.6.7,1.8.7-.2,0,1.2-.8,1.1-.8,0,0,1.1.8,1.1.8,0,0,.3,1.2.3,1.1,0,0-.1,1.3-.2,1.2,0,0,.9,1.5,1,1.5-.2,0-1.9,1.2-1.9,1.2,0,0,1.7,1.2,1.6,1.3.1,0-.9,1.3-.8,1.2-.1,0,.4,1.8.5,1.7,0,0-1.6-1.1-1.8-1.1.1,0-1.2.3-1.1.2-.2,0-1.5.7-1.6.6,0,0-1.3.1-1.4.2.1,0-1.1-1.4-1.2-1.4,0,0-1.6-.3-1.6-.4,0,0-.9,2.5-1,2.5.2,0-1.5-.2-1.5-.1,0,0-1.3-1-1.4-1,.1,0,1,1.3,1,1.4,0,0-1.5,1.3-1.6,1.4.1,0,0,1.2,0,1.2,0,0,1.1,1.6,1,1.5,0,0-.6,1.3-.5,1.2,0,0,.1,1.6,0,1.5.1,0,.5,1.3.6,1.2-.2,0,.1,1.5,0,1.5.2,0-1.5,1.2-1.4,1.3-.1,0,1.6,1.2,1.7,1.2-.1,0-.9,1.4-.8,1.3,0,0-.2,1.4-.4,1.4.2,0,0,1.2,0,1.3,0,0-.8,1.2-.9,1.2,0,0,.3,1.6.3,1.6,0,0,1.4,1.3,1.4,1.3,0,0-.7,1.3-.9,1.4.2,0,1.4,1.1,1.5,1.1,0,0-.4,1.6-.3,1.6-.1,0-1.3,1.2-1.4,1.2,0,0,1,1.4,1,1.4,0,0,0,1.2-.2,1.1.2,0-.6,1.6-.5,1.6-.1,0,.6,1.3.6,1.4,0,0-.8.9-.7.9Z"/>
    <path class="st0" d="M329.3,82.5c0,0,.5.7.4.8,0,0-.7,1.5-.9,1.5.2,0,2.3.4,2.2.4,0,0,0,1.4.2,1.4-.2,0,.9.8,1,.8,0,0,1.2.3,1.2.3,0,0,1.2.9,1.3.9,0,0,1.3-1.4,1.4-1.4-.1,0,1.1.8,1.2.7,0,0,1.1,1,1,.9,0,0,1.4-.9,1.5-.9-.1,0,1.2,1.1,1.3,1.1,0,0,1-1,1-1,0,0,.4-1.4.3-1.5.1,0,1.5,0,1.5,0,0,0,1.4-.5,1.6-.4-.2,0-.9-1.5-.7-1.5-.2,0-.7-1.2-.7-1.3,0,0-.5-1-.5-.9,0,0-1-1.1-.9-1-.1,0-1.6.7-1.6.7,0,0-1.3-.9-1.5-1,.2,0-.8-1.5-.7-1.4,0,0-1.8.6-1.8.7,0,0-1-.6-1.2-.6.1,0-1.2-.8-1.3-.7,0,0-1.3-.2-1.2-.2-.2,0-1.7.6-1.7.6,0,0-1.4-.4-1.4-.3,0,0-1.2-1-1.2-.9,0,0-1.1-1-1-.9-.2,0-1.3-1.1-1.4-1.1.1,0-1.3,0-1.1.1-.2,0-1.4-.8-1.5-.7,0,0-.6-1.3-.8-1.3.2,0-.3-1.3-.3-1.3,0,0-.5-1.4-.6-1.5,0,0-1.4-.5-1.5-.5,0,0-1-1-.8-1.1-.2,0-.9-1.2-1.1-1.3.1,0,.7-1.5.9-1.5-.2,0-.6-1.6-.6-1.7,0,0,.5-1.2.5-1.1,0,0-.5-1.4-.4-1.5-.1,0,0-1.5,0-1.4-.1,0,.9-1.3.9-1.3,0,0,.5-1.4.6-1.4,0,0,1.2-.8,1.3-.7-.2,0,.4-1.5.3-1.4.1,0,1.3-.8,1.3-.9,0,0,1.5-.2,1.7-.1-.1,0,.4-1.4.3-1.4.1,0,2,.4,2,.4,0,0,1-1,1.1-1.1-.1,0,1.6,1.2,1.6,1.3,0,0,.6-2.6.5-2.6,0,0,1.6,1.2,1.6,1.2,0,0,1.4-.6,1.4-.5,0,0,1.4-.3,1.4-.3,0,0,1.4.3,1.5.3-.1,0,1.1.4,1.1.4,0,0,1.5-1.3,1.4-1.3,0,0,1.4,1.5,1.4,1.5,0,0,1.3.7,1.3.6,0,0,1.4.1,1.2.2.2,0,1.7-.4,1.7-.4,0,0,1.2.8,1.3.7,0,0,1.5-.3,1.4-.3.2,0,1.3,1.5,1.2,1.4,0,0,.3,1.8.3,1.7,0,0,1.5.4,1.5.3,0,0,1.4.6,1.3.6,0,0,.4,1.8.6,1.8-.2,0,1,.7,1,.7,0,0-.4,1.4-.3,1.4,0,0,.7,1.2.7,1.1,0,0,0,1.2,0,1.2,0,0,1,1.3,1.1,1.4-.2,0-1.5,0-1.4-.1,0,0-.7,1.6-.8,1.7.1,0-1.2-1.1-1.1-1.1-.1,0-1.6.8-1.5.7,0,0-1.3-1.1-1.4-1.1.1,0-1.2.3-1,.2-.2,0-1.4.7-1.5.6,0,0-1.2.1-1.4.2.2,0-.4-1.1-.5-1.1,0,0,.3-1.2.3-1.3,0,0-2.6-.1-2.7,0,.2,0-.6-1.3-.6-1.2,0,0-.4-1.5-.6-1.6.1,0-1.3.4-1.3.4,0,0-1.1-1.8-1.3-1.7.1,0-1.3-.2-1.3-.3,0,0-1.4,1.2-1.5,1.2,0,0-1.1-.4-1.1-.4,0,0-1.4.6-1.5.5.1,0-.7.9-.5.8-.2,0-.8,1.1-1,1.1.2,0-1.9.3-1.7.4-.1,0,1.4,1.4,1.5,1.4-.1,0-.6,1.4-.5,1.4,0,0,.7,1.2.6,1.3.2,0,1.5.7,1.5.8,0,0,1.1,1.2,1,1.1,0,0,1.7.4,1.8.4,0,0,1.8-.9,1.9-.9,0,0,1.1.9.9,1,.2,0,1.7-1,1.8-1,0,0,1.4.8,1.5.8-.1,0,.8,1.5.7,1.5,0,0,1.7-.5,1.6-.4,0,0,1.2.4,1.1.3.2,0,1.4,1.3,1.5,1.3-.1,0,1.4-.2,1.4-.1,0,0,.8,1.4,1,1.3-.2,0,1.7-.7,1.9-.7-.2,0,.3,1.8.3,1.9,0,0,.9,1,.8,1,0,0,1.3.4,1.5.5-.2,0,.7,1,.8.9-.2,0-.2,1.4-.2,1.4,0,0,1.5.8,1.6.9,0,0,0,1.4,0,1.4-.2,0-.4,1.1-.2,1.1-.1,0,.3,1.4.4,1.4,0,0-.5,1.4-.7,1.4.1,0-.2,1.1,0,1.1-.1,0-.4,1.4-.4,1.5,0,0-.3,1.2-.4,1.3,0,0-.5,1.1-.3,1.1-.2,0-.8,1.1-.9,1.1,0,0-.7,1.2-.7,1.2,0,0-.3,1.5-.2,1.6-.2,0-2-.2-2,0,0,0-1.1.8-.9.8-.1,0-1.3.4-1.2.4-.1,0-1.6-.1-1.5-.2,0,0-.7,2.1-.6,2.1-.1,0-1.8-.8-1.6-.9-.2,0-1.5.6-1.4.6,0,0-1.4.4-1.5.3,0,0-1.4-.5-1.5-.5.2,0-1.1,1-1,1,0,0-1.3.9-1.2,1-.1,0-1.5-1.3-1.3-1.4-.2,0-1.7.8-1.6.7-.1,0-1.4-.7-1.4-.8,0,0-1.2-.1-1.2-.1,0,0-1.6,1-1.6.9,0,0-.9-1.8-.9-1.8,0,0-1.4-.2-1.5-.3.2,0-1.7.7-1.6.7,0,0-1-1.3-1.1-1.3.1,0-1.2-.5-1-.5-.2,0-1.3-.9-1.4-.9.1,0,0-1.8,0-1.8,0,0-1.8-.2-1.9-.2,0,0,.1-1.7,0-1.6.2,0,.1-1.4.2-1.4-.1,0-.4-1.4-.4-1.4,0,0-1.5-.9-1.4-.9,0,0,.3-1.4.1-1.4.2,0-.3-1.4-.2-1.4,0,0-.7-1.7-.8-1.7.1,0,2,0,1.8,0,.1,0,1.4-.2,1.3-.1,0,0,1.4.9,1.6.9-.2,0,1.3-.5,1.1-.6.2,0,1.3-.1,1.4-.2,0,0,1.3.4,1.2.5,0,0,1.3.9,1.5.9-.2,0,.9-.6,1-.5Z"/>
  </g>
</svg>