<?xml version="1.0" encoding="UTF-8"?>
<svg id="CONTEN_IDO" xmlns="http://www.w3.org/2000/svg" version="1.1" viewBox="0 0 408.3 157.3">
  <!-- Generator: Adobe Illustrator 30.2.1, SVG Export Plug-In . SVG Version: 2.1.1 Build 1)  -->
  <defs>
    <style>
      .st0 {
        fill: gray;
      }

      .st1 {
        fill: #d3d5d6;
      }
    </style>
  </defs>
  <g>
    <path class="st1" d="M69.7,106.9c-1.9,0-3.5-.3-4.9-.8h-1.9s-1.6,0-1.6,0l-1-.6-1.3-.3-.7.2.2-.4-7.6-1.8,2-5.8-.2-3.5c0-.2,0-.5,0-.7,0-.2,0-.5,0-.7l-1.6-.2.2-3.4H-1.1l53.5-11.9c0-2,.6-3.7,1.3-4.9,0,0,0,0,0,0,0,0,0,0,0,0,0,0,0,0,0,0,0,.2.2.5.3.7h0c0,0,0,.1,0,.2-.9,1.4-1.3,2.9-1.5,4.1l2.2-.5c.3-.3.7-.7,1-1,.2.2.4.4.6.6l.8-.2c.5.3,1.1.6,1.7.8h.5l.5-.8-.5-.5.9-.2.4-.7s0,0,0,0v-.2c0,0,.1,0,.1,0h0c0,.1.1.1.2.1l.2.2v-.2c0,0,.1,0,.2,0l.2-.7v-.7s-.5.9-.5.9h0c0,0,.5-.9.5-.9h0c0,0,.2-.5.2-.5h0c0-.1,0-.2,0-.2v-.2c.1,0,0-1.1,0-1.1h-.2s0-.5,0-.5h-.2c0,0,0,.3,0,.3h0s0-.2,0-.2h0s0-.6,0-.6c-.2,0-.4,0-.5-.2.2,0,.3,0,.5,0v-1.2c0,0,.4.8.4.8v-.9s-.4,0-.4,0v-.4s-.1.2-.1.2v.2c0,0,0,0,0,0l-.5,1.3c-.9-.3-1.7-.8-2.5-1.3h-3.6s-.4-.9-.4-.9c0,.3.1.6.2.9h-.6c-.1.4-.2.8-.3,1.2,0-.4.1-.8.2-1.2h-.1s.2-1.8.2-1.8c-.2-.5-.3-.9-.4-1.4l-25.7-16.5h21.8c0,0,0,0,0,0l7-2.3c-.5.6-.8,1.1-1.2,1.7l.4-.2c-.2.3-.5.5-.7.8,0,0,0,.1,0,.2h3.4s.1.3.1.3c.2-.1.3-.2.5-.3h.4c0,0,.1-.2.2-.3l.2.3h.3c0,0,0,.2-.1.3,0,0,0,0,0,0h0c-.2.7-.4,1.3-.5,2l.5,1.2,1.7.2.4.7c.3,0,.6,0,.9,0v-.5c0,0,1.2.1,1.2.1l.3-.6-1.9-2.2h0s1.9,2.2,1.9,2.2l1.2-2.9v.8h0s0-.9,0-.9l.6-1.6v1c.6-.7,1.3-1.6,2.3-2.3v-.5c0,0-.5-1.5-.5-1.5-.2,0-.4.2-.5.2h0c.1-.2.3-.3.4-.4v-.4c-.1,0,0,.4,0,.4.1,0,.2-.1.3-.2h0c-.1-.2-.3-.2-.4-.3v-.2c.1,0,.3,0,.4.2v-.9c0,0,.4,0,.4,0h.6c.6,0,1.2,0,1.7.1.7-.2,1.5-.3,2.4-.4v1.8c.6,0,1.1-.1,1.7-.1s.3,0,.4,0c-.3-.1-.5-.2-.8-.3h.1c.3.1.5.2.8.3.2,0,.3,0,.5,0,.2,0,.4-.2.6-.2l1.2-.5h1.4c0-.1,0,.1,0,.1h0c.2,0,.5-.2.8-.2.7-.2,1.4-.3,2-.4h.2c-.2,0-.4,0-.6,0,.3,0,.6,0,.9,0h2.6c0-.1,1,0,1,0h0s4.5,0,4.5,0l.2.8c.9.4,1.7,1,2.8,1.8,0,0,.2.2.3.2.9.4,1.8.9,2.7,1.5.5.3,1,.6,1.5.9h4.7l2.6,5.9c.1.3.3.6.4,1.1l.3.4,3.7,2.4-.7,5.5c0,.2,0,.3,0,.5,0,0,0,.1,0,.2.1.3.3.5.4.8v.2c0-.3-.2-.5-.4-.8,0,.6.1,1.1.1,1.7v1.3c-.2-.3-.3-.6-.5-1h0s0,0,0,0c0,.3-.2.7-.3,1l.3.5-.3,2.3h.9c0-.1,0,1.2,0,1.2l.8,1.4c0-.7.1-1.4,0-2.2.5,1.2.7,2.4.7,3.4l2.8,4.9-4.2,2.6s0,0,0,.1c0,0,0,0,0,0h-.1c0,0,0-.2,0-.3,0,0,0,0,0,0,0-.4,0-.7-.1-1.1-.2.4-.3.8-.6,1.2h-.3c.2-.2.4-.5.6-.8h-.1c-.4.4-.8.9-1.3,1.3h0s0,0,0,0c-.1.1-.2.2-.4.3v.2s0,0,0-.1c-.8.6-1.6,1.1-2.4,1.4-.1-.1-.2-.3-.4-.4l-.8.3.3.4c-.2,0-.4.1-.6.2l1,1.7c-.2,0-.4.2-.6.3l-1.3-1.8c-.2,0-.3,0-.5,0h0s0,0,0,0c0,0-.2,0-.3,0h0c0-.1-.1,0-.1,0-.1,0-.2,0-.3,0v-1l-.2-.4v1.3c0,0,.4.3.4.3l-.3.2h0s0,0,0,0l-.3.2.4,1v1.5c.1,0-2.3.5-2.3.5l.2.6,2.3.2v.4s-1.6,1-1.6,1l1.7,3.9h.4c0,0,0,.9,0,.9.7-.1,1.2-.3,1.6-.4h0c-.5.2-1,.5-1.5.7,0,0,0,0,0,0h-.2s0,.1,0,.1c-.7.3-1.5.5-2.4.5,0-.4.1-.7.1-1.1l-1.1-.2c0-.4,0-.7-.1-1.1l1.2.3c0-.8-.2-1.7-.5-2.6l-2,.6v.2h-.3v.9-.8s0,0,0,0h-.3c0,.1,0,0,0,0l-.7.4-.4.2h0c0,0,0,.1,0,.1h0s0,0,0,0h0s0,.2,0,.2l-.7.2.2-.3-.5.2v.2c.1,0-.6.2-.6.2v.2s-.5,0-.5,0l-1.2.3v.2s1.9,1,1.9,1l.2,1.2.4,2.7-.3.6.5.3v.5c.1-.1.2-.2.2-.3l.6.4c-.2.3-.4.6-.6.8l.2,1.4s0,0,.1,0c.3-.2.4-.3.5-.3.3-.3.7-.7,1-1.1v.2c.4-.4.8-.8,1.1-1.2.2,0,.3,0,.4,0-.5.6-1,1-1.5,1.4v.7c1.4-.5,2.4-1.4,3.2-2.3.4-.1.8-.3,1.2-.4l-.4-.7c.7-1.1,1.1-2.3,1.3-3.2l.3.8c.9-.4,1.6-.9,2-1.1,0,0,.2-.2.3-.3h.5c0-.2.1-.5.2-.9.2-.4.5-.8.7-1.2-.1.7-.3,1.5-.6,2.3l46.9,10.9h-61.3s-.3.6-.3.6c0,0-6.1,0-6.1,0h-5.1s-.5-.7-.5-.7h-2.2v-1s-.8,1-.8,1h-.9s0,0,0,0c.2,0,.4,0,.7.1l-.6.7h-4.6ZM94.1,92.8h0c0,0-.2,0-.2,0h.1ZM99.1,81.5l-.3-.5-.2.5h.5ZM99.4,78.3h0s0,0,0,0h0ZM89.2,69v-1.6c.1,0,0,0,0,0-.2.4-.4.7-.7,1.1v.6h.7ZM91.9,66.2h0ZM68.2,46.1l-.2-1.6c-.1,0-.2,0-.3.1l.5,1.5ZM92.9,94.9h0c0-.1,0,0,0,0h-.1ZM96.3,93.3h0c0,.1,0,0,0,0ZM101.5,85.6l.9.9c-.1,0-.2,0-.4.1l-.6-1ZM59.6,74.4s-.2.3-.2.3l.2-.3ZM57,71.8c.4-.3.8-.6,1.2-.8l.4.5-1.3.3h-.3ZM81.1,50.7v-.3c.1.3.2.6.3.9l-.3-.6Z"/>
    <path class="st1" d="M135,81.7l.3-.7c0,0-.2,0-.2,0v.7ZM100.2,73.8h.3s0-.2,0-.2h-.7l.4.2ZM116.1,59.8h0ZM119.1,67.5c-.4-.6-.7-1.3-1-2h.1c0,.1.8,2,.8,2ZM117.9,64.8v.3c.1,0,.1,0,.1,0,0-.1,0-.2-.1-.4ZM116.9,51.4l.8.4-.9.6.2-1.1ZM120.2,49.9l-.6-1.2c.2.4.4.8.6,1.2Z"/>
    <path class="st1" d="M170.8,107.3h-2.4l-.9-.6h-.9c.2,0,.4,0,.6-.2h-.2c0-.1-1-.1-1-.1v-.3h-1.1v.3c0,0-4,0-4,0v-.3h-15.9c-.1,0-.3,0-.4,0h-1.7s0,0,0,0h-.9l-1.2-.7c-.3,0-.6,0-.9.1h-.4c.4,0,.8,0,1.1-.2h-.2c0,0-.3-.2-.3-.2-.5.2-1.1.4-1.7.6h0c.6,0,.9-.1,1-.1h-.4c-.2.2-.5.2-.7.3h0c0,0-.1,0-.2,0-.7.1-1.4.3-2.3.3h0c-.4,0-.9,0-1.4,0h-5.8s0,0,0,0h-4.1v-5.7c0,0-.1,0-.1,0h0c0,0,0-3.7,0-3.7,0-.7,0-1.5,0-2.3v-8c-.1,0,2.1,0,2.1,0,.2-.2.3-.5.5-.7l1-1.4c0,0,0-.4,0-.4,0,0,0,.2,0,.4l1.8-2.6h1.6c0-.4-.1-.7-.1-1.1-.1,0-.3.1-.3.2,0,0,.3-.2.3-.2,0-.6,0-1.1,0-1.5-.2.2-.4.3-.6.5,0,0,0,0,0,0h0c-1.3,1.1-2.1,2.5-2.5,3.8v-.2c.3-.9.9-2.9,2.7-4.8l.6-5.1-9.3-5.4h12.1s-1.7-7.9-1.7-7.9l1.6-.7-.2-1,3.5-1.1c.1-.3.3-.5.4-.8.2-.4.4-.8.7-1.2h0c-.1.1-.3.4-.4.6.3-.4.5-.8.8-1.1-.1.3-.2.6-.3.9-.3.3-.5.6-.7.9,0,.2-.1.4-.2.6l.6-.2s0,0,0,0c-.2.2-.4.5-.6.8l.9-.4h.3c0,0,.1,0,.2,0,0,0,0,0,0-.1l.4-.2s0,0,0,0c.1,0,.3-.2.5-.2,0,0,0,0,0,0h.2c0,0,.2-.2.3-.2,0,0,0,0,0,0,0,0-.2.1-.2.2l.4.8h.3c.2.5.4.9.6,1.3.4-.1.9-.3,1.1-.4,0,0-.4.1-.7.3-.1,0-.3,0-.4,0,.1.2.2.4.4.6l.9,1.6.9-.7h0c0,.1,0,0,0,0l1.9-1.3-.4-.3v-.5s.5,0,.5,0l-.2-1.4.3-.2v-3.1c-.2,0-.4,0-.7,0v-.3s1-.1,1-.1c0,.8.2,1.6.5,2.5l.8-.2h0s0-2.4,0-2.4h.8c0,0,0-2.1,0-2.1h0v-.2s0-2.2,0-2.2c-.2,0-.3,0-.5,0l-.2-1h0c0,0,0,0,0,0h0c0,0,0,0,0,0,.5,0,1-.1,1.4-.1l-.2-1.6c-.4.5-.8,1-1.2,1.6v-.5c.3-.4.7-.9,1.2-1.3l-.2-1c.3,0,.7,0,1,0v.4c0,0,.4-.3.4-.3-.1.1-.3.2-.4.3v2.4h3v1.6h0v-1.6h.2l.3.3v-.4c.1,0,.2.5.2.5l2.3,1.9-1.7,2.1v.9c.1,0,.2,0,.2,0l2.1-.8-.8-7-.3-.8c-.3.1-.5.2-.7.3h0c.2-.2.4-.4.6-.5v-.4c-.2,0-.2,0-.3,0v-.2c.2,0,.3,0,.4.1v-.8c0,0,.5,0,.5,0h.6c.6,0,1.2,0,1.7.1.7-.2,1.5-.3,2.4-.4v2.4c0,0,.1,0,.1,0h.8c1.1,0,2.1.2,3.1.5-.9-.7-1.8-1.3-2.7-1.6h.1c1.4.6,2.6,1.2,3.5,2,1.1.5,2.2,1.2,3.1,2h-.1c.5.4.9.8,1.4,1.3.2.2.4.5.6.7,0,0,0,0,0-.1.7.8,1.3,1.9,1.7,3.2l1.3,1.3-.2,1s0,0,0,.1c.9,1.2,1.5,2.4,1.9,3.8,1,1.5,1.6,3.5,1.6,5.8h7.5l-3.1,9.1,2.5,1.6-1.7,5.7c0,.4.1.8.1,1.1-.1-.1-.2-.3-.3-.4h0s0,0,0,0c0,0,0,.2,0,.2v.3c0,0,0,0,0,0-.1.6-.3,1.3-.6,1.9l-.2.8c.4.3.8.6,1.2,1v.5c-.4-.3-.9-.6-1.4-.9v.5c-.2,0-.3,0-.4-.1-.4.8-.9,1.5-1.4,2h1.1s-.3,1-.3,1l1.9,1c.1-.2.3-.3.4-.5v.8c0,.1-.1.2-.2.3l-.5,1.9h-1.1c-.3.3-.6.5-.9.7l-.5-.7h-.2s-.2.5-.2.5l.9,1.4h.6c.4-.3.8-.6,1.2-.9l-.2,1h2.7c.9-1,1.4-2.1,1.6-2.8,0-.2,0-.4,0-.5,0,.1,0,.2,0,.3,0-.4,0-.8,0-1.2-.3-.8-.7-1.4-1.2-1.9,0,0,0,0,0,0,0,0-.1-.2-.2-.3h0c0,0,0,.1.1.2,0,0,0-.1,0-.2h0c0-.4,0-.8,0-1.3,0,0,0,0,0,0,0-.1,0-.2,0-.4h0c-.1-.9-.4-1.7-.7-2.4,1,1.3,1.6,2.6,1.9,3.9l5.5,6.4-6.9,4,20.8,7.2h-23.3s-.2,2.5-.2,2.5l-9.8-1.3ZM174.6,94.9h0ZM144.1,94l1.2-1.5s0,0,0,0l-1.4,1.3c0,0,.1.2.2.3ZM140.9,83.1v-.7s-.3.6-.3.6h.3ZM140,82.7l.3-1,.6.3v-1.4c0,0-.5.9-.5.9h0s.4-.9.4-.9v-.4s0-.2,0-.2h0s0-.1,0-.1v.2c0,0-1.5.4-1.5.4l-.2.4.3.5.8.3-.3.7v.2c0,0,.4-.8.4-.8h0s-.4.8-.4.8v.2ZM139.1,80.8l.2-.4h-.4c0,0,.1.4.1.4ZM142,61.7h0s0,0,0,0h0ZM156,53.5v-.3s0,.3,0,.3h0ZM155.1,45.3v-.9c-.2,0-.2,0-.2,0l.2.8ZM135,81.8h0v.3-.3Z"/>
    <path class="st1" d="M172.6,105.2l-1.3-.3-1.5-2.3-3.1-2.9.3-1.5-41.6-65.1,42.8,40.4c0,.4.2.9.4,1.2.1-.2.2-.4.3-.6l.6.6c0,0-.1.2-.2.3h-.6c0,.3.1.4.2.5,0,0,0,0,0,0,.2.4.4.8.7,1.2,0,0,0-.1.1-.2,0,0,0,0,0,0,0,0-.1.1-.2.2.3.4.6.9,1,1.3.1-.1.2-.2.4-.3.9.7,2,1.2,3,1.6l.2-.4.7.6s0,0,.1,0l.2-.7-.6-.6.8-1.2s0,0,0,0h0c.1,0,.3,0,.4,0l.4-1.1v-.3s.2-.4.2-.4v-.2c0,0,0,0,0,0,0,0,0,0,0,0l.2-.4v-.9s-.2,0-.2,0v-.6h-.4c0,0,0-.2,0-.2l-.2.3h0s.2-.4.2-.4h0s-.2.4-.2.4l-.8.2h-.5c0,0-.1.1-.1.1l-1.6.4.2.3c-.1,0-.2,0-.3.1-.2,0-.3-.2-.5-.3h-.3c0,0,.1,0,.2,0-.5-.4-1-.8-1.5-1.3h-.8c.1-.3.2-.4.3-.5-.3-.3-.6-.7-.8-1.1h-.9c-.1.4-.2.7-.3,1.1h0c0-.4.1-.8.2-1.2h-.2s.2-1.9.2-1.9c-.2-.6-.4-1.2-.5-1.8l-20.9-16h18.1c0,0,3-1.1,3-1.1,0,.2-.1.4-.2.5l1-.8h.2s0,.1,0,.2c-.3.4-.6.8-.8,1.3h.4s.2-.1.2-.1c0,0,0,0,0,.1h.5c.2-.2.4-.4.6-.6-.2.2-.3.4-.5.6h0c-.3.4-.5.8-.7,1.2,0,.2,0,.5,0,.8l2.4-.2c.2-.2.6-.4.9-.7.2-.2.4-.3.6-.5v.2c-.6.3-1.2.7-1.5.9h1.8c0-.1,0-.5,0-.6l.2.4h.8c0,.2,0,.4,0,.6h.8c0,0,.9,1.4.9,1.4l.5-.2v-1.4c0,0,1.2,0,1.2,0v-.7c-.1,0,1.2-.1,1.2-.1l.2-.5-2-1.9h0s2,1.9,2,1.9l1.2-2.5v3.7h0s0-3.7,0-3.7l.7-1.4.7,4.5,2.3-1-.6-4.8-.8-2.1.8,2.1-.4-3v-.2c0,0,0,0,0,0v-1.1c-.1,0,.5,0,.5,0h.6c1.1,0,2,.2,2.7.4.7-.2,1.3-.3,2.1-.3v2.7c.2.1.4.2.5.4l-.3.4c0,0-.1-.1-.2-.2v.2s0,0,.1,0v.2c-.1,0,0,3.2,0,3.2h0s.3-2.1.3-2.1h.8c-.3-.4-.7-.9-1-1.3,1.7.3,3.1,1,4.3,1.9h.8c0,.1.8,1.4.8,1.4h0c0,0,0,.1.1.2,0,0,0-.1,0-.2l.2.3c.6.7,1.1,1.5,1.4,2.3,0,.1,0,.2,0,.3h0c.3.6.6,1.1.8,1.6,0,.1,0,.2.1.4,0,0,0,0,0,0,.2.7.4,1.4.4,2l.6.9-.4,1.2h.3s0,2.5,0,2.5c.2,1,.4,2,.4,3,0,.2,0,.5,0,.7,0,.3.1.7.2,1.1,0,.4,0,.7,0,1v9.3c.4,0,.7.2,1,.3h.3s2.5,0,2.5,0c0,0-.1,0-.2,0,0,0,.3,0,.3,0h3v.3c0,0,0-.3,0-.3v.5c1.3.4,2.3.9,3.1,1.5v.9c-.9-.9-1.9-1.6-2.9-2.1l.2,1.2s0,0,0,0l.4,2.1s0,0,0,0h0s0,0,0,0c.2.3.4.6.6.9h1.7s0,2.1,0,2.1l1-.4v.2l.5-.2h0c0-.1,0-.1-.1-.1h.2c0,0,.4-.7.4-.7-.1-.3-.2-.5-.4-.8.2,0,.4,0,.6.1v.3c0,0,.1-.3.1-.3,0,0,0,0,.1,0l-.4.9s0,0,0,0h0c0,.1,0,.2,0,.2h0s0,0,0,0c0,0,1.1-.5,1.1-.5l-1.1.5v.2c0,0,0,0-.1,0l-.9,2.2v.4h.5c0,.1-.2,1.1-.2,1.1h-.3c0-.1,0,.2,0,.2v1.6c0,0-.1.3-.1.3v.2c.1,0,.1.5.1.5h.3c0,.1.9,1.9.9,1.9l-.8,1.3-.3-.5v.9s-.4.6-.4.6h0s-.2.3-.2.3h-.3s0,.3,0,.3h-.1c0,0-.3.3-.3.3h-.2c0,.1-.2-.2-.2-.2v.7s.2.1.2.1h0s-.2.4-.2.4v.5h0s.8.4.8.4v1.8c0,0,.4.2.4.2v1.5c.4,0,.8,0,1.2,0,.1-.2.2-.4.3-.6h0s0,.5,0,.5c.2,0,.4,0,.6-.1h.1c-.2.4-.4.6-.5.9l.4,2c.9-.2,1.7-.4,2.4-.7-.8.8-1.7,1.3-2.6,1.8,2.4-.7,4.2-2.1,5.4-3.8,0,0,0,0,0,0l13,5.6h-22.8s-.2.1-.2.1h-2.8c-1,.4-2.2.7-3.6.7h-5.5s-.5-.8-.5-.8h-2.1l-.2.2c.2,0,.4,0,.6,0h-.6s-.5.6-.5.6h-4.8c-.9,0-1.8,0-2.6-.2l-2.5,7.4-9.4-8.8ZM182.9,86.5h0ZM172.6,74c.3-.2.6-.3.9-.5l-1.5-.2.6.7ZM174.8,73c.2,0,.5-.1.7-.2-.2,0-.4-.1-.6-.2l-.2.4ZM176,72.2v-.7s-.4,0-.4,0l.4.7ZM184.1,53.5v-.4s0,.4,0,.4h0ZM215.2,99.6l.7.3c0,0-.2.1-.3.2l-.4-.5ZM173.9,77v.2c-.1,0,0-.2,0-.2Z"/>
    <path class="st1" d="M243.4,81.7l.3-.7c0,0-.2,0-.2,0v.7ZM208.6,73.8h.3s0-.2,0-.2h-.7l.4.2ZM224.5,59.8h0ZM227.5,67.5c-.4-.6-.7-1.3-1-2h.1c0,.1.8,2,.8,2ZM226.4,64.8v.3c.1,0,.1,0,.1,0,0-.1,0-.2-.1-.4ZM225.3,51.4l.8.4-.9.6.2-1.1ZM228.6,49.9l-.6-1.2c.2.4.4.8.6,1.2Z"/>
    <path class="st1" d="M251.2,112.7l-2.2-5.4s-2,0-2,0c-1.3,0-2.4-.2-3.3-.6h-7.7s.1-.4.1-.4h-.3l-1.3-7v-.2c-.1,0-.3-1.3-.3-1.3,0,0,0-.2,0-.3,0,0,0,.1,0,.2h0s.6-.1.6-.1c-.7-1.5-1-3.1-.9-4.8,0,.3,0,.5,0,.8h0c0-.5,0-.9.1-1.3,0-.2,0-.4,0-.6,0-.3.1-.7.2-1.1h0c0,.2-.1.4-.1.7.1-.5.2-.9.4-1.3,0,.3,0,.6,0,.9-.2.4-.3.8-.4,1.1,0,1.9.5,3.9,1.7,5.6l1.3-.2c0,0,.1.1.2.2l-1.3.2c0,0,0,.1.1.2l1.3-.3c.4.4.8.7,1.2,1.1l.2-.8c0-.2-.1-.4-.2-.6h.4c0,0,0,0,0,0h-.4s0,0,0,0h.5c0,0,.2-.6.2-.6h-.4s-.2-.4-.2-.4l-.2.2c0-.2,0-.4,0-.7l-.5-.8.5-.5c0-.4,0-.7.1-1.1-1.3-.9-2.4-2.2-3.2-3.8,0,0-.1.2-.2.3,0-.2-.1-.3-.2-.5,0,0,0,0,0,0,0,.2,0,.4.1.5,0,0,0-.2,0-.3,0,.1,0,.2,0,.4,0,0,0,.1,0,.2,0-.3,0-.5,0-.8,0,0,0,0,0,0,0,0,0,0,0,0,0,0,0,0,0,0,0,0,0,0,0-.1,0,0,0-.1,0-.2,0,0,0,0,0,0-.2-.8-.4-1.7-.5-2.6,0-.2,0-.3,0-.5v-.3c0,.1,0,.3,0,.4,0-.2,0-.5,0-.7,0-.2,0-.4-.1-.5h0c0,.2,0,.3,0,.5,0-.1,0-.3,0-.5h-.9c0-.1.5-8.1.5-8.1,0-.7,0-1.5.2-2.2v-.8c-.3-.9-.6-2.1-.6-3.5,0-2.1.6-3.9,1.4-5.2,0,0,0,0,0,0,0,0,0-.2,0-.3,0-.4,0-.9,0-1.3h0s0,0,0,0c0-.3,0-.6.1-.9l-1-3.9c-.5-1.4-.6-2.7-.5-3.9,0-.9.2-1.7.5-2.5l2-6.9h3.6s0,0,0,0c-1.5,1-4.2,4.1-3.9,8.6,1-3.4,3.1-5.4,5.4-6.5l-.8-.9.8.9c.6-.3,1.1-.5,1.7-.6.1-.1.2-.2.3-.3l-.2-1.2h1.7s.2-.1.2-.1c0,0-.1,0-.2.1h.6l1.7.6-.2.6h.3v3.3h0s0-3.3,0-3.3h.4l.2,1.7.7-1.7h1.1l.4.4s0,0,.1,0v-.2s-.7-1.8-.7-1.8c-.1,0-.3.1-.4.2h0c0-.2.2-.2.3-.3v-.3c0,0,0,.3,0,.3.1,0,.3-.2.4-.3v-.2c-.1,0-.3,0-.4-.1v-.2c.1,0,.2,0,.4.1v-.9c-.1,0,.5,0,.5,0h.6c.6,0,1.2,0,1.7.1.7-.2,1.5-.3,2.4-.4v1.8c.6,0,1.1-.1,1.7-.1s.2,0,.3,0c-.3-.1-.6-.3-.9-.4h.2c.3.2.6.3.8.4.2,0,.4,0,.6,0,.3-.1.6-.2.8-.3l1-.4h1.3c0-.1,0,.2,0,.2.2,0,.5-.2.8-.2.5-.1,1-.2,1.5-.3h.2c-.2,0-.4,0-.6,0,.4,0,.9-.1,1.5-.1h2.6v-.2s.2,0,.2,0h.2s0,0,0,0c0,0,.3,0,.6.1h4.4v.7c.2,0,.2,0,.2,0v-.3c.6.2,1.1.5,1.5.7h7.2l.2,2.9h5.8l1,8.6s0,0,0,0l3.9,2.7-1.7,5.6v8.4s-1.9,0-1.9,0c.1-.7.2-1.5.1-2.3,0,0,0,0,0,0,0-.3,0-.6-.1-1,0-.2,0-.3-.1-.5-.3.4-.6.9-.9,1.3v1.8c-.2.2-.3.4-.5.5h-.2s0,0,0,0c-.2-.2-.5-.5-.9-.8-.2.2-.4.4-.7.5-.2-.3-.5-.7-.7-1v.6c.1.2.2.4.4.6,0,0,0,0,0,0h-.3v.2c0,0-.1,0-.2.1,0-.1,0-.2-.1-.3h-1s-.3-.3-.3-.3v.3c0,0-.3,0-.3,0-.1-.4-.3-.8-.4-1.2l-1.1-1.3-.5.2v2.4c-.1,0-.6,0-.6,0h0c-.1,0-.2,0-.3,0v.5l.3.5v.4s0,0,0,0v.3c0,0,0,.5,0,.5h.2s.2.4.2.4v.2c-.1,0-.2,0-.3,0v.4h.3s0,1.2,0,1.2c.2,0,.5,0,.8,0l.2.6.3-.6c.1,0,.3,0,.4,0v.3s-.1.2-.1.2h0s-.1.8-.1.8c0,0-.1,0-.2,0h0s.1.4.1.4v.8s.1,0,.3,0l.2.5c.2,0,.4-.1.6-.2-.3.4-.6.8-.9,1.1l1,.9c-.6.3-1.1.7-1.8.9,0,0-.2,0-.2,0v.5c0,0-.2,0-.2,0l.2.9v.5c0,0,0,.2,0,.2h0c0-.1,0,.2,0,.2h.2v1.7l.4.2v.4c0,0-.3.6-.3.6h0c0-.1,0,.2,0,.2h0s0,.2,0,.2h0c0-.1-.3.4-.3.4v.3h-.2c0,0-.4.8-.4.8v.6l.2.5h0s-.2-.5-.2-.5v.6h0s0-.6,0-.6v-.3c-.1,0,0,.9,0,.9h-.2c0,.1,0,.3,0,.3v-.2s0,0,0,0h0c0,.2,0,.2,0,.2,0,0,0,0-.1,0h0s0,.6,0,.6h0s.2.1.2.1v1h0s.1,0,.1,0v-1c0,0,0,0,0,0v1c0,0,.2,0,.2,0v-.9s0,0,0,0v.9h0s0,1.2,0,1.2l.5.5h0c0,0,0,0,0,0l.3.3.3.2h-.3c0,0-.4.1-.4.1h0s-.1,0-.1,0l1.1,3.6c.3,0,.6-.1.9-.2,0-.3.1-.6.2-.9h0c.2,0,.4,0,.6,0l.3.6c.6-.2,1.1-.5,1.6-.8-.1.5-.3.9-.5,1.4.5-.3,1-.6,1.4-1l2.2,1.4-1.6,3.2c.4-.2.9-.5,1.3-.9.4-.5.8-1.1,1.1-1.7l.4.2c1.3-1.6,2.2-3.9,1.5-7.2l1,5-2.8,3.1-.6,1-2.6,1.7-1.2,2.4h-2.3s-20.9,14.3-20.9,14.3l-2.1,11.6-3.2-8-44,30,39.2-42ZM272.2,66.6h0ZM271.2,64.9c.3.3.5.6.8.9l-.2-.8h-.5ZM250,46.5l-.2-2c-.1,0-.3.1-.4.2l.6,1.8Z"/>
    <path class="st1" d="M298.1,107l-.5.3s-2.5,0-2.5,0c-2.4,0-4-.8-5.2-1.4h-.3c0,0,.6.1,1.3.3l.2-.8h-2.8c0,0-.2,0-.4,0,1.1.6,2.1.9,2.5.9-.2,0-.5,0-.6-.1-1.1-.2-2-.5-2.9-.9-1.3-.1-3-.5-4.6-1.2l.3-.6s0,0,0,0h0c0,0,.5-1.1.5-1.1.1,0,.3,0,.4,0l.3-.5v-.8s-.1,0-.1,0v-.2c0,0,0,0,0,0l-.3.2h-.4s.6-2.6.6-2.6h-3.5s-.3.9-.3.9c-.7-.2-1.4-.5-2.1-.9h-1.5s-1.2-2-1.2-2c.2.8.5,1.5.8,1.9.5.8,1.5,1.8,3,2.6h-1.5s-2.8-4.8-2.8-4.8c0,.2.1.3.2.5v-.2c-.2-.2-.3-.4-.4-.7-.2-.4-.5-1-.8-1.7-.3-.5-.6-1.1-.8-1.6l-3.7-1.4,1.4-7.6c0-.5.2-.9.3-1.3,0-.2,0-.4.2-.5l-36.8-13.4h37.7c0,0,.5-.3.5-.3h-5.6s1.5-2.6,1.5-2.6l-64.2-13.3h69.9s.1-3.1.1-3.1h4.3c.1-.1.3-.3.5-.5.5-.5,1-1,1.7-1.5-.3.3-.7.6-1,.9.6-.5,1.2-.9,1.8-1.2v-.2c-.2,0-.5.2-.9.5l.2-.2c1.5-1.3,3-2.6,5.6-3.1l.3,1.4c.3-.1.5-.3.8-.4v-.3c.8-.2,1.9-.3,2.6-.4.4-.2.7-.4,1.1-.5l.2.5c.2,0,.6,0,.9,0-.1,0-.2,0-.3,0,0,0,0,0,0,0-.1,0-.3,0-.4,0,0,0-.2,0-.2,0h0c-.1,0-.3,0-.4,0l.3.9c.1-.1.2-.2.4-.3h0c-.1.1-.2.3-.4.4l.4,1.3.3-.9.5,1.2v-2.2c0,0-.1,0-.2,0v-.3c.1,0,.2,0,.2,0h0c0,0-.1,0-.1,0h0s.1,0,.1,0h0s0,0-.1,0l.3-.9h2.4c.6-.2,1.3-.3,2.2-.4v.4s2.3,0,2.3,0l.5-.6h13.4s.5,4,.5,4c.6.2,1.2.5,1.7.9-.4,0-.7-.1-1.1-.2.5.5.9,1.1,1.3,1.8.9.2,1.8.5,2.8,1.1.3.4.6.9.8,1.3-.4-.2-.8-.4-1.2-.6.3.7.8,1.9,1,3.4l.9-1.4c0,.3.2.6.3.9l.4,1.6h0s.5-.6.5-.6c.4.3.7.6,1,1h.3c0-.5,0-1.1-.2-1.7,0,.1.2.2.3.3,0-.1-.2-.3-.3-.4,0,0,.1.2.2.2,0,0-.1-.2-.2-.3,0,0,0-.2,0-.3.2.3.3.5.5.8.4.5.8,1.1,1.1,1.6l83.3,18.8-81.6-.2c.3.4.5.8.7,1.3,0,0,.2.3.2.3,0,0-.1-.2-.2-.3.8,1.7,1.3,3.6,1.2,5.6.3,1.2.3,2.5.2,3.8,0-.8,0-1.8-.3-2.9,0,.3-.1.7-.2,1l.2,1.3c.1.7.1,1.3.1,1.9,0-.3,0-.6,0-.8h0c0,.7,0,1.2-.1,1.7,0,0,0,0,0,0l1.3,3.2-2.3,1.7,4,8.2h-11.8c-.4.3-.8.5-1.2.7,0,0,0,0,0,0,0,0,0,0,0,0,0,0,.1,0,.2-.1,0,0,.1,0,.2-.1-.6.2-1.2.4-1.7.5.2-.3.3-.6.5-.9h-1.5c0,.2-.2.4-.3.6l.4.4c-.2,0-.4,0-.6,0h0c0,0,0,0,0,0,0,0-.1,0-.2,0h0c0,.2-.1.3-.2.5-.2,0-.3,0-.5,0l-.4.7c.2,0,.3,0,.4,0-.4.5-.8,1-1.3,1.4l-.6,1s0,0,0,0c1.3-.6,2.4-1.5,3.3-2.5l.6.9c-.2.1-.3.3-.5.4.2,0,.3-.2.5-.3-.2.2-.5.3-.8.5-.7.5-1.4.9-2.1,1.2-.4.2-.9.3-1.3.4l-1.1,1.9h-11.7s-.5-.9-.5-.9ZM312.9,99.8h0c0-.1-.2-.4-.2-.4h-.2c0,0,.2.2.2.2l.2.2ZM305.3,86.3v-.4s0,0-.1.1v.2ZM304,86h0s0-.2,0-.2h0s0,.2,0,.2ZM300.2,72.5h0ZM309.1,54.1h0s0,0,0,0h0ZM315.2,102.7c0,0,.1-.2.2-.3.1,0,.2,0,.3-.1l.7.7c-.2.2-.4.4-.6.6l-.7-.9ZM299.4,85.3h0s0,0,0,0Z"/>
  </g>
  <g>
    <path class="st0" d="M62.8,53.8c.1,0,1.2-.7,1.1-.7.1,0,1.4.8,1.5.7,0,0,1.2-.5,1.4-.6-.2,0,1.2.6,1.3.6,0,0,1.2-.8,1-.8.2,0,1.5.4,1.6.4-.1,0,1.2.4,1,.4.2,0,1.5-1.1,1.7-1.1-.2,0,1,1.7,1.1,1.7,0,0,1.3,0,1.2,0,.1,0,1.5-.7,1.4-.7,0,0,1.4.6,1.5.6,0,0,1.2-.9,1.4-.9-.2,0,1.2.2,1.2,0,0,0,1.3-.4,1.1-.3.2,0,1.5-.2,1.3-.2.1,0,1.4.9,1.4.9,0,0,1.5-.8,1.3-.9.2,0,1.3,1,1.1,1,.2,0,1.3,1.1,1.2,1.1,0,0,1.3.2,1.1.2.2,0,1.2.8,1.1.8.1,0,1.3.6,1.1.6.2,0,.9,1.1.8,1.2.1,0,1.6.5,1.4.5.2,0,1.8,0,1.8,0,0,0,.4,1.5.2,1.4.2,0,.4,1.5.5,1.5,0,0,.6,1.2.5,1.2,0,0,1.8.7,1.6.6.1,0-.4,1.6-.5,1.6,0,0,.8,1.3.6,1.3.2,0,1.8,1,2,1-.2,0-1,1.8-1.1,1.9,0,0,.6,1.2.7,1.2,0,0-.9,1.5-.7,1.5-.2,0,1.4,1.2,1.5,1.1-.1,0-.8,1.6-.9,1.6,0,0-.7,1.2-.7,1.2,0,0-.4,1.3-.6,1.3.2,0,.2,1.3.2,1.2,0,0,0,1.4,0,1.4,0,0-.3,1.3-.4,1.4.1,0-.3,1-.2,1,0,0,.6,1.7.7,1.6,0,0,0,1.7,0,1.6-.1,0-1.8.8-1.8.8,0,0-.2,1.2,0,1.1,0,0-1.6,1.3-1.4,1.3-.1,0,.1,1.7.3,1.8-.2,0-1.1,1.1-1.2,1.2.1,0-.8,1.4-.7,1.4-.1,0-1.9,0-1.8,0-.2,0-1.5.6-1.3.7-.1,0-1.5,0-1.5,0,0,0-1.2.8-1,.8-.2,0-1.2,1-1,.9-.2,0-1.6-.2-1.6-.3,0,0-1.4.8-1.2.8-.2,0-1.4,1-1.4.9,0,0-1.4-1-1.3-1,0,0-1.5-.2-1.7-.3.2,0-1.3,0-1.2,0,0,0-1.3,1.3-1.3,1.4,0,0-1.4-.5-1.5-.5,0,0-1.4-.3-1.5-.4,0,0-1.2.7-1.1.7-.1,0-1.6-1.1-1.8-1.1.2,0-1.2.2-1.3.3.1,0-1.2,1.1-1.2,1.1,0,0-1.5-.2-1.4-.2-.1,0-1.5-.7-1.6-.7.2,0-1.3-.3-1.1-.2-.1,0-1.5.3-1.6.3.1,0-.6-.5-.6-.6,0,0-.2-.8-.1-.7,0,0-.6-1.4-.5-1.4,0,0,.5-1.4.6-1.4,0,0-.3-1.3-.1-1.3-.2,0-.6-1.4-.7-1.4.1,0,0-1.4,0-1.4-.1,0-.5-1.2-.4-1.2,0,0,.8-1.7.6-1.7.2,0-1.1-1.4-1.1-1.3,0,0,1.2-1.2,1.4-1.1-.2,0-1.1-1.4-1.2-1.4.1,0,1.1-1.4,1.1-1.3,0,0-.4-1.4-.6-1.5.2,0,0-1.4,0-1.5-.1,0-.4-1.5-.5-1.5.1,0,1.8-1.4,1.9-1.4-.2,0-2.1-1.1-2.2-1.2.1,0,1.7-1.2,1.7-1.3,0,0,.2-1.3.2-1.3,0,0-.3-1.5-.5-1.5.1,0-.6-1.3-.7-1.3.1,0,1.7-1.6,1.5-1.6.2,0-1.8-1.1-1.9-1,0,0,1-1.4,1.2-1.3-.1,0,.2-1.4.2-1.4,0,0,.4-1.5.4-1.5,0,0-1.7-1.3-1.8-1.3,0,0,1.9-1.5,2.1-1.5-.2,0-2.6-1.2-2.6-1.2,0,0,1.3-1.4,1.3-1.4,0,0,.1-1.2,0-1.2ZM80.2,87.3c0,0,1.4-.9,1.3-.9,0,0,1.4.5,1.4.5,0,0,1-.9,1-.9,0,0,1.4,0,1.4,0,0,0,.4-1.4.3-1.3,0,0,1.2-.6,1.3-.6,0,0,1-1,.9-1,0,0-.4-1.7-.3-1.7,0,0,1.9-.8,1.9-.8,0,0,.3-1.5.3-1.5,0,0-.4-1.6-.4-1.6,0,0,.7-1.4.8-1.4,0,0-.9-1.4-.8-1.4,0,0,0-1.4,0-1.4,0,0-.6-1.3-.7-1.2,0,0-.3-1.3-.3-1.3,0,0,.5-1.4.5-1.4,0,0-1.3-1-1.3-1.1,0,0,.2-1.3.1-1.3,0,0,0-1.6,0-1.7,0,0-1.2-.7-1.3-.7,0,0-1.1-1.1-1.1-1.2,0,0-1.4-.5-1.5-.4,0,0-1.4-.8-1.4-.8,0,0-1.7.4-1.7.4,0,0-1.3,1.1-1.3,1.1,0,0-1.5-.6-1.5-.7,0,0-1.3-.5-1.3-.5,0,0-1.5,0-1.6,0,0,0-1,1-1.1.9,0,0-.8.8-.8.8,0,0,.4,1.4.3,1.4,0,0,1.4,1.3,1.5,1.3,0,0-1.2,1.5-1.2,1.6,0,0,.4,1.2.4,1.2,0,0-1,1.4-.9,1.4,0,0,1.4,1.2,1.5,1.1,0,0-.8,1.5-.8,1.5,0,0-.7,1.3-.7,1.3,0,0-.3,1.3-.4,1.4,0,0,.2,1.4.2,1.3,0,0,.2,1.4.2,1.4,0,0,0,1.4,0,1.4,0,0,0,1.1,0,1.1,0,0,1.1,1.4,1.1,1.4,0,0,.6,1.5.6,1.5,0,0-1.2,1.4-1.2,1.4,0,0,0,.9.1.9,0,0,1.4.7,1.5.7,0,0,1.2-1.2,1.3-1.2,0,0,1.2,0,1.2,0,0,0,1.6-.4,1.6-.4,0,0,1.2,1.6,1.1,1.6Z"/>
    <path class="st0" d="M101.7,53.9c.1,0,1.3-.8,1.2-.8,0,0,1.4.8,1.5.7,0,0,1.3-.5,1.4-.6-.1,0,1.3.6,1.3.6,0,0,1.3-.8,1.1-.8.2,0,1.5.4,1.6.4-.1,0,1.3.4,1.1.5.2,0,1.5-1.1,1.7-1.1-.2,0,1.1,1.7,1.2,1.7,0,0,1.4,0,1.3,0,.1,0,1.5-.7,1.4-.7,0,0,1.5.6,1.5.6,0,0,1.2-.9,1.4-.9-.2,0,1.3.2,1.3,0,0,0,1.3-.4,1.2-.3.2,0,1.5-.3,1.4-.3.1,0,1.5.7,1.5.8,0,0,1.4-1.1,1.3-1.1.2,0,1.5.7,1.3.7.2,0,1.6.8,1.5.7,0,0,1.3-.3,1.2-.2.1,0,1.6.3,1.5.3.1,0,1.5,0,1.3,0,.2,0,.9.3.8.3,0,0,.3.7.2.7.1,0,1.3,1.1,1.3,1.1,0,0-.6,1.3-.8,1.2.1,0-.4,1.3-.4,1.3,0,0,0,1.3-.2,1.4,0,0,1.3,1.2,1.2,1.1,0,0-.7,1-.8,1,0,0-1.1.3-1.2.3.2,0-1.2,1.4-1,1.3-.2,0-1.7-1.1-1.7-1,0,0-1.2.3-1.1.3,0,0-1.5-1-1.4-1-.1,0-1.3,1.5-1.2,1.4-.1,0-1.6-.6-1.7-.6,0,0-1.2-.8-1.2-.8,0,0-1.4-.3-1.6-.3.2,0-1.3,0-1.3,0,0,0-1.4.3-1.4.2,0,0-1.4,0-1.5.2,0,0-1.1-.2-1-.2,0,0-1.5,1.2-1.5,1.1,0,0-1.5.7-1.4.7-.1,0-1.5-1.1-1.6-1.1,0,0,.4,1.1.5,1.1,0,0-.7,1.7-.6,1.8-.1,0,1.1,1.2,1.3,1.2-.2,0-.1,1.3-.2,1.4,0,0,.2.5.3.5-.1,0,.1.7.3.7-.1,0,1.2.3,1.3.4-.1,0,1.2.4,1.2.4,0,0,1.4-.2,1.5-.3-.2,0,1.1-.5,1.3-.6-.2,0,1.1.7,1.1.6,0,0,1.4-.4,1.5-.4-.2,0,1-.8,1-.9,0,0,1.3,1.2,1.4,1.3,0,0,1.4.1,1.2,0,.2,0,1.5.1,1.6.1,0,0,1.2-1.3,1.2-1.2,0,0,1.4.4,1.3.4,0,0,1.5.3,1.4.3,0,0,1.7-.5,1.8-.5,0,0-.9,1.7-1.1,1.7.2,0,.4,1.2.3,1.3,0,0,1.3,1.2,1.3,1.1,0,0-.3,1.4-.2,1.4,0,0-.8,1.3-.9,1.3.1,0-.1,1.3,0,1.3-.1,0,.3,1.2.2,1.1.1,0-1.2-.8-1.2-.9,0,0-1.4.5-1.3.6,0,0-1.4.4-1.3.4,0,0-1.4-.6-1.3-.6,0,0-1.4.2-1.2.2-.2,0-1.4.4-1.5.4,0,0-1.3.2-1.1.2-.1,0-1.3.3-1.2.4,0,0-1.6-.9-1.7-.9.1,0-1.2,1.4-1.2,1.4,0,0-1.2-1.3-1-1.2-.2,0-1.5.8-1.6.8.1,0-1.2-1-1.2-.9,0,0-1.3.3-1.5.3.2,0-.9.1-.8,0,0,0,.3,1.4.2,1.5,0,0-1.6,1.4-1.4,1.4-.1,0,1.8,1.4,1.7,1.3.1,0-1.4,1.5-1.4,1.4,0,0-.2,1.6-.2,1.7,0,0,.4,1.7.3,1.7.1,0,1.9-.5,1.8-.5.1,0,1.7,1.5,1.5,1.5.2,0,1.3-1.9,1.2-1.9,0,0,1.4.9,1.6,1-.1,0,1.2.3,1.2.2,0,0,1.5.5,1.5.5,0,0,1.4-1.7,1.3-1.7,0,0,1.5,1.9,1.7,1.8-.1,0,1.2-2.4,1.2-2.4,0,0,1.4,1.5,1.3,1.5,0,0,1.2-.5,1.2-.5,0,0,1.5,0,1.4,0,.1,0,1.5,0,1.6,0-.1,0,1.3.4,1.1.4.1,0,1.5.4,1.4.4.1,0,1.2,0,1.3.1,0,0-.4.8-.6.8.2,0,.7,1.3.8,1.3-.1,0,0,1.2,0,1.2,0,0,0,1.4,0,1.4,0,0,.4,1,.6,1-.2,0-.2,1.4-.4,1.5.1,0-.9.6-.7.6-.1,0-.9.4-.8.5,0,0-1.4.7-1.3.6,0,0-1.4.1-1.3.1-.1,0-1.4-1.2-1.4-1.2,0,0-1.5.6-1.6.5,0,0-1.3.3-1.4.2,0,0-1.5.9-1.4.9,0,0-1.2-.8-1.4-.8.1,0-1.1-.2-1-.3-.1,0-1.5.4-1.7.3.1,0-1.2-.7-1.2-.7,0,0-1.4,0-1.3,0,0,0-1.5,0-1.6-.1.1,0-1.4-.1-1.3-.1,0,0-1.2.4-1.4.4.1,0-1.3-.4-1.4-.5.2,0-1.4-.2-1.3,0,0,0-1.2,1.9-1.1,1.9-.1,0-1.5-.5-1.5-.5,0,0-1.1.2-1.1.2,0,0-1.6-.4-1.4-.4-.1,0-1.5,0-1.6,0,.1,0-1.4.9-1.4.9,0,0-1.6-.8-1.8-.8.1,0,.9-1.8.9-1.8,0,0-1.1-1.5-1.3-1.5.2,0,1.3-1.2,1.2-1.2,0,0-.2-1.4-.4-1.4.2,0,1.3-1.4,1.3-1.3,0,0-1.6-1.4-1.6-1.5,0,0,.5-1.3.3-1.3.1,0,0-1.2,0-1.1,0,0-.2-1.7-.1-1.7-.1,0-1.2-1.4-1.2-1.3,0,0,1-1.4.8-1.4.1,0-.4-1.4-.6-1.5.2,0,.9-1.2,1-1.2,0,0-.9-1.2-1.1-1.2.1,0,.5-1.5.4-1.5,0,0,.2-1.4.3-1.5,0,0,.2-1.3.4-1.2-.2,0-.3-1.5-.2-1.6-.2,0,1.2-1.3,1.2-1.2,0,0-.5-1.4-.5-1.4,0,0-1.3-1.4-1.2-1.4,0,0,.8-1.3.8-1.2,0,0-1-1.2-1-1.2,0,0,.2-1.7.2-1.8,0,0,1.9-1.1,1.8-1.1.1,0-1.2-1.5-1.1-1.5-.1,0,.2-1.4,0-1.5.1,0-.9-1.3-.9-1.3,0,0,1.3-1.4,1.1-1.4.1,0,.4-1.3.3-1.4.2,0-.3-1.2-.4-1.1Z"/>
    <path class="st0" d="M149.8,53.9c.1,0,1.3-.8,1.2-.8.1,0,1.4.8,1.5.7,0,0,1.2-.5,1.3-.6-.2,0,1.2.6,1.3.6,0,0,1.2-.8,1-.8.2,0,1.5.4,1.6.4-.1,0,1.2.4,1,.5.2,0,1.5-1.1,1.7-1.1-.2,0,.6,1.5.7,1.6,0,0,.1.9,0,.9.1,0,1.2,1.1,1.1,1.1,0,0,0,1.5,0,1.5,0,0,1.2.9,1.4.9-.2,0,.1,1.4.2,1.4,0,0,.9,1.2.7,1.3.2,0,.8,1.1.7,1.1.1,0,0,1.6,0,1.6,0,0,1.4.9,1.2.8.2,0,0,1.6-.2,1.5.2,0,0,1.6-.1,1.5.1,0,.8,1.1.7,1.2.2,0,.3,1.4.2,1.4.1,0,.7,1.3.5,1.3.2,0,.1,1.5,0,1.5.1,0,1.1,1.2,1,1.2.2,0,1.6.7,1.6.7,0,0-.2,1.5-.3,1.4.2,0,0,1.5.1,1.6,0,0,.4,1.3.3,1.4.1,0,1.7.8,1.6.7.1,0-.5,1.6-.5,1.6,0,0,.9,1.2.7,1.2.2,0,1.9.8,2.1.8-.2,0-.7,1.9-.8,1.9,0,0,.8,1,.9,1,0,0-.5,1.7-.3,1.6-.2,0,1.6.7,1.8.6-.1,0-.3,1.7-.4,1.7,0,0-.2,1.5-.2,1.5,0,0,.1,1.4,0,1.5.2,0,.8,1.2.8,1.2,0,0,.7,1,.7.9,0,0-1-.2-1.1,0,.1,0-1-.2-.9-.2-.1,0-1.5,1.2-1.4,1.1,0,0-1.5.7-1.3.7-.1,0-1.5-1.2-1.5-1.2,0,0-.9.3-.8.3,0,0-1.8-.6-1.7-.5-.1,0-1.3,1.2-1.1,1.2-.2,0-2-.2-2.1,0,.1,0-1-1.9-.9-1.9-.1,0,.6-1.5.8-1.5-.2,0-.3-1.4-.2-1.3-.1,0,0-1.5,0-1.6,0,0-.7-1.2-.5-1.3-.2,0-1.1-1-.9-1-.2,0-1.4-.6-1.4-.6,0,0-1.5.5-1.3.5-.2,0-1.5.9-1.5.8,0,0-1.3-1.1-1.3-1.1,0,0-1.6-.2-1.7-.3.2,0-1.3,0-1.2,0,0,0-1.3,1.3-1.3,1.4,0,0-1.4-.5-1.5-.5,0,0-1.4-.3-1.5-.4.1,0-.9.5-.8.5-.1,0-1.4.7-1.6.7.2,0,0,1.3-.1,1.4.1,0,.8,1.6.8,1.5,0,0-.7,1.4-.6,1.4-.1,0-1.2,1.1-1.4,1.1.2,0-.4,1-.2,1.1-.2,0-1.3.2-1.4.2.1,0-1.2-.9-1.3-.9,0,0-1.5.5-1.4.6,0,0-1.5.4-1.4.4,0,0-1.5-.6-1.4-.6-.1,0-1.5.2-1.4.2-.2,0-1.6.4-1.7.4.1,0-1.5,0-1.4,0-.1,0,0-1.5,0-1.4,0,0,1.3-1.3,1.1-1.4.2,0-.6-1.7-.5-1.7,0,0,1.5-.7,1.7-.6-.2,0-.6-1.7-.7-1.7.1,0,1.5-1,1.5-.9,0,0,0-1.5-.1-1.5.2,0,.5-1.4.6-1.4-.1,0,.1-1.5,0-1.5.1,0,2.1-.7,2.3-.8-.2,0-1.6-1.7-1.7-1.8.1,0,2-.6,2-.7,0,0,.7-1.2.7-1.1,0,0,.2-1.5,0-1.6.1,0,0-1.5-.2-1.5.1,0,2.1-.9,1.9-1,.2,0-1.3-1.7-1.4-1.6,0,0,1.4-1,1.6-.9-.1,0,.6-1.2.6-1.2,0,0,.9-1.2.9-1.3,0,0-1.2-1.8-1.2-1.8,0,0,2.3-.7,2.5-.8-.2,0-2.1-2-2-2,0,0,1.7-.8,1.7-.8,0,0,0-1.2,0-1.3,0,0,.4-1.4.3-1.3.1,0,.6-1.3.7-1.3-.2,0,.8-1.2.6-1.3.2,0,1-1.1.8-1.1.2,0,.8-1.2.9-1.1-.1,0,.5-1.3.3-1.2.2,0,.2-1.5.3-1.5-.2,0,.3-1.2.2-1.2ZM160.3,79.6s-1.1-1.3-1.2-1.4c0,0,.3-1.5.3-1.5,0,0-1-1.1-1-1.1,0,0,0-1.5,0-1.5,0,0-1.2-1-1.2-1,0,0,0-1.5,0-1.5,0,0,0-1.4-.1-1.4,0,0-1.4-1-1.3-1,0,0,1.1-1.7,1.2-1.7,0,0-.4-1.5-.4-1.5,0,0-1.2-1.2-1.2-1.2,0,0-1.1,1.2-1.1,1.2,0,0,.4,1.6.5,1.5,0,0-.6,1.4-.6,1.3,0,0,0,1.5,0,1.5,0,0-.2,1.3-.2,1.3,0,0-1.1,1.1-1.1,1.2,0,0,.5,1.6.5,1.6,0,0-1,1.1-1,1.1,0,0-1.1,1.2-1.2,1.2,0,0,0,1.4,0,1.4,0,0-.6,1.7-.7,1.7,0,0,1.7.1,1.7.1,0,0,1.4.5,1.4.6,0,0,1.5-.5,1.5-.5,0,0,1.2-1.1,1.2-1.1,0,0,1.3.6,1.3.6,0,0,1.2.6,1.2.6,0,0,1.6-.3,1.6-.3Z"/>
    <path class="st0" d="M177.6,53.9c.1,0,1.3-.8,1.2-.8,0,0,1.4.8,1.5.7,0,0,1.3-.5,1.4-.6-.1,0,1.3.6,1.3.6,0,0,1.2-.8,1.1-.8.2,0,1.5.4,1.6.4-.1,0,1.3.4,1.1.4.1,0,2.2-.8,2.3-.8-.2,0-1.6,1.9-1.5,2,0,0-.1,1.3-.2,1.3.1,0,.7,1.4.7,1.4,0,0-.5,1.4-.5,1.4,0,0,.8,1.3,1,1.3-.2,0-.3,1.5-.3,1.4,0,0,.4,1.5.3,1.5.1,0,.4,1.2.3,1.2.1,0-.6,1.4-.6,1.5,0,0,1,1.3.8,1.2.2,0-.5,1.4-.6,1.4.2,0-.6,1.5-.7,1.4,0,0,.4,1.3.3,1.3.1,0-.2,1.4-.3,1.4.1,0,.2,1.4,0,1.4.2,0-.4,1.4-.5,1.4,0,0,.6,1.5.5,1.5.1,0,1.3,1.2,1.3,1.2,0,0-.6,1.4-.8,1.3.1,0-.4,1.4-.4,1.4,0,0,0,1.4-.2,1.5,0,0,1.3,1.3,1.2,1.2,0,0-1,1.4-1,1.4,0,0,.4,1.5.2,1.5.2,0,1.6-1.3,1.7-1.3-.1,0,1.3,1.2,1.3,1.2,0,0,1.3-.4,1.4-.4,0,0,1.4,1,1.5.9-.1,0,1.1-1.4,1.2-1.5-.1,0,1.4.8,1.3.8,0,0,1.4.8,1.4.7,0,0,1.4.3,1.2.4.2,0,1.6-.2,1.6-.3,0,0,1.4-.1,1.5-.2,0,0,1.3,0,1.2,0,0,0,1.3,0,1.4,0,0,0,1.4-1.1,1.4-1.2,0,0,1.3-.5,1.4-.5,0,0,1.3,1.3,1.3,1.3,0,0,.3,1.1.3,1.1,0,0-.7,1.8-.6,1.8-.1,0,1.1,1.2,1.3,1.2-.1,0-.1,1.3-.2,1.3,0,0,.5,1.5.6,1.5-.1,0-1.3,1.2-1.2,1.2-.1,0-.4,1.2-.2,1.3-.1,0-1.3-.6-1.3-.7,0,0-1.5.3-1.3.3-.2,0-1.4.6-1.3.5-.2,0-1.5-.6-1.4-.7,0,0-1.5.5-1.3.5-.2,0-1.4.9-1.4.8,0,0-1.3-1.1-1.3-1.1,0,0-1.5-.2-1.7-.3.1,0-1.3,0-1.2,0,0,0-1.3,1.3-1.3,1.4,0,0-1.4-.5-1.5-.5,0,0-1.3-.3-1.4-.4,0,0-1.2.7-1.1.7,0,0-1.5-1.1-1.7-1.1.2,0-1.2.2-1.3.3,0,0-1.2,1.1-1.2,1.1,0,0-1.5-.2-1.4-.2,0,0-1.4-.7-1.6-.7.1,0-1.3-.3-1.1-.2-.1,0-1.4.3-1.5.3.1,0-1.2-.9-1.2-.9,0,0-1.5.5-1.4.6,0,0-1.4.4-1.4.4,0,0,.5-1.4.6-1.5,0,0-.3-1.3-.1-1.3-.1,0-.6-1.4-.7-1.4,0,0,0-1.4,0-1.4-.1,0-.4-1.2-.4-1.2,0,0,.8-1.7.7-1.7.1,0-1.2-1.4-1.1-1.3,0,0,1.2-1.2,1.4-1.1-.2,0-1.1-1.5-1.2-1.4.1,0,1-1.4,1-1.3,0,0-.4-1.4-.6-1.4.2,0,0-1.4,0-1.5,0,0-.4-1.5-.5-1.5,0,0,1.8-1.4,1.9-1.4-.1,0-2.1-1.1-2.2-1.2.1,0,1.6-1.2,1.6-1.3,0,0,.2-1.3.2-1.3,0,0-.3-1.5-.4-1.5.1,0-.6-1.3-.7-1.3.1,0,1.7-1.6,1.5-1.6.2,0-1.9-1.1-1.9-1,0,0,1-1.4,1.1-1.3-.1,0,.2-1.3.2-1.4,0,0,.4-1.5.4-1.5,0,0-1.7-1.3-1.8-1.3,0,0,1.9-1.5,2.1-1.5-.1,0-2.6-1.2-2.6-1.2,0,0,1.3-1.4,1.3-1.4,0,0-.4-1.2-.4-1.2,0,0,0-1.4-.2-1.4.1,0,.7-1.2.6-1.2Z"/>
    <path class="st0" d="M210.1,53.9c.1,0,1.3-.8,1.2-.8,0,0,1.4.8,1.5.7,0,0,1.3-.5,1.4-.6-.1,0,1.3.6,1.3.6,0,0,1.3-.8,1.1-.8.2,0,1.5.4,1.6.4-.1,0,1.3.4,1.1.5.2,0,1.5-1.1,1.7-1.1-.2,0,1.1,1.7,1.2,1.7,0,0,1.4,0,1.3,0,.1,0,1.5-.7,1.4-.7,0,0,1.5.6,1.5.6,0,0,1.2-.9,1.4-.9-.2,0,1.3.2,1.3,0,0,0,1.3-.4,1.2-.3.2,0,1.5-.3,1.4-.3.1,0,1.5.7,1.5.8,0,0,1.4-1.1,1.3-1.1.2,0,1.5.7,1.3.7.2,0,1.6.8,1.5.7,0,0,1.3-.3,1.2-.2.1,0,1.6.3,1.5.3.1,0,1.5,0,1.3,0,.2,0,.9.3.8.3,0,0,.3.7.2.7.1,0,1.3,1.1,1.3,1.1,0,0-.6,1.3-.8,1.2.1,0-.4,1.3-.4,1.3,0,0,0,1.3-.2,1.4,0,0,1.3,1.2,1.2,1.1,0,0-.7,1-.8,1,0,0-1.1.3-1.2.3.2,0-1.2,1.4-1,1.3-.2,0-1.7-1.1-1.7-1,0,0-1.2.3-1.1.3,0,0-1.5-1-1.4-1-.1,0-1.3,1.5-1.2,1.4-.1,0-1.6-.6-1.7-.6,0,0-1.2-.8-1.2-.8,0,0-1.4-.3-1.6-.3.2,0-1.3,0-1.3,0,0,0-1.4.3-1.4.2,0,0-1.4,0-1.5.2,0,0-1.1-.2-1-.2,0,0-1.5,1.2-1.5,1.1,0,0-1.5.7-1.4.7-.1,0-1.5-1.1-1.6-1.1,0,0,.4,1.1.5,1.1,0,0-.7,1.7-.6,1.8-.1,0,1.1,1.2,1.3,1.2-.2,0-.1,1.3-.2,1.4,0,0,.2.5.3.5-.1,0,.1.7.3.7-.1,0,1.2.3,1.3.4-.1,0,1.2.4,1.2.4,0,0,1.4-.2,1.5-.3-.2,0,1.1-.5,1.3-.6-.2,0,1.1.7,1.1.6,0,0,1.4-.4,1.5-.4-.2,0,1-.8,1-.9,0,0,1.3,1.2,1.4,1.3,0,0,1.4.1,1.2,0,.2,0,1.5.1,1.6.1,0,0,1.2-1.3,1.2-1.2,0,0,1.4.4,1.3.4,0,0,1.5.3,1.4.3,0,0,1.7-.5,1.8-.5,0,0-.9,1.7-1.1,1.7.2,0,.4,1.2.3,1.3,0,0,1.3,1.2,1.3,1.1,0,0-.3,1.4-.2,1.4,0,0-.8,1.3-.9,1.3.1,0-.1,1.3,0,1.3-.1,0,.3,1.2.2,1.1.1,0-1.2-.8-1.2-.9,0,0-1.4.5-1.3.6,0,0-1.4.4-1.3.4,0,0-1.4-.6-1.3-.6,0,0-1.4.2-1.2.2-.2,0-1.4.4-1.5.4,0,0-1.3.2-1.1.2-.1,0-1.3.3-1.2.4,0,0-1.6-.9-1.7-.9.1,0-1.2,1.4-1.2,1.4,0,0-1.2-1.3-1-1.2-.2,0-1.5.8-1.6.8.1,0-1.2-1-1.2-.9,0,0-1.3.3-1.5.3.2,0-.9.1-.8,0,0,0,.3,1.4.2,1.5,0,0-1.6,1.4-1.4,1.4-.1,0,1.8,1.4,1.7,1.3.1,0-1.4,1.5-1.4,1.4,0,0-.2,1.6-.2,1.7,0,0,.4,1.7.3,1.7.1,0,1.9-.5,1.8-.5.1,0,1.7,1.5,1.5,1.5.2,0,1.3-1.9,1.2-1.9,0,0,1.4.9,1.6,1-.1,0,1.2.3,1.2.2,0,0,1.5.5,1.5.5,0,0,1.4-1.7,1.3-1.7,0,0,1.5,1.9,1.7,1.8-.1,0,1.2-2.4,1.2-2.4,0,0,1.4,1.5,1.3,1.5,0,0,1.2-.5,1.2-.5,0,0,1.5,0,1.4,0,.1,0,1.5,0,1.6,0-.1,0,1.3.4,1.1.4.1,0,1.5.4,1.4.4.1,0,1.2,0,1.3.1,0,0-.4.8-.6.8.2,0,.7,1.3.8,1.3-.1,0,0,1.2,0,1.2,0,0,0,1.4,0,1.4,0,0,.4,1,.6,1-.2,0-.2,1.4-.4,1.5.1,0-.9.6-.7.6-.1,0-.9.4-.8.5,0,0-1.4.7-1.3.6,0,0-1.4.1-1.3.1-.1,0-1.4-1.2-1.4-1.2,0,0-1.5.6-1.6.5,0,0-1.3.3-1.4.2,0,0-1.5.9-1.4.9,0,0-1.2-.8-1.4-.8.1,0-1.1-.2-1-.3-.1,0-1.5.4-1.7.3.1,0-1.2-.7-1.2-.7,0,0-1.4,0-1.3,0,0,0-1.5,0-1.6-.1.1,0-1.4-.1-1.3-.1,0,0-1.2.4-1.4.4.1,0-1.3-.4-1.4-.5.2,0-1.4-.2-1.3,0,0,0-1.2,1.9-1.1,1.9-.1,0-1.5-.5-1.5-.5,0,0-1.1.2-1.1.2,0,0-1.6-.4-1.4-.4-.1,0-1.5,0-1.6,0,.1,0-1.4.9-1.4.9,0,0-1.6-.8-1.8-.8.1,0,.9-1.8.9-1.8,0,0-1.1-1.5-1.3-1.5.2,0,1.3-1.2,1.2-1.2,0,0-.2-1.4-.4-1.4.2,0,1.3-1.4,1.3-1.3,0,0-1.6-1.4-1.6-1.5,0,0,.5-1.3.3-1.3.1,0,0-1.2,0-1.1,0,0-.2-1.7-.1-1.7-.1,0-1.2-1.4-1.2-1.3,0,0,1-1.4.8-1.4.1,0-.4-1.4-.6-1.5.2,0,.9-1.2,1-1.2,0,0-.9-1.2-1.1-1.2.1,0,.5-1.5.4-1.5,0,0,.2-1.4.3-1.5,0,0,.2-1.3.4-1.2-.2,0-.3-1.5-.2-1.6-.2,0,1.2-1.3,1.2-1.2,0,0-.5-1.4-.5-1.4,0,0-1.3-1.4-1.2-1.4,0,0,.8-1.3.8-1.2,0,0-1-1.2-1-1.2,0,0,.2-1.7.2-1.8,0,0,1.9-1.1,1.8-1.1.1,0-1.2-1.5-1.1-1.5-.1,0,.2-1.4,0-1.5.1,0-.9-1.3-.9-1.3,0,0,1.3-1.4,1.1-1.4.1,0,.4-1.3.3-1.4.2,0-.3-1.2-.4-1.1Z"/>
    <path class="st0" d="M244.3,53.9c.1,0,1.3-.8,1.2-.8,0,0,1.4.8,1.5.7,0,0,1.2-.5,1.4-.6-.1,0,1.3.6,1.3.6,0,0,1.2-.8,1.1-.8.2,0,1.5.4,1.7.4-.1,0,1.2.4,1.1.5.2,0,1.5-1.1,1.7-1.1-.2,0,1.1,1.7,1.1,1.7,0,0,1.3,0,1.2,0,.1,0,1.5-.7,1.4-.7,0,0,1.4.6,1.5.6,0,0,1.2-.9,1.4-.9-.2,0,1.2.2,1.3,0,0,0,1.3-.4,1.2-.3.2,0,1.5-.3,1.3-.3.1,0,1.5.7,1.5.8,0,0,1.4-1,1.2-1.1.2,0,1.4.8,1.2.8.2,0,1.4,1,1.3.9,0,0,1.3,0,1.1,0,.1,0,1.3.7,1.2.7.1,0,1.3.5,1.1.5.2,0,.9,1.1.8,1.1.1,0,1.5.4,1.3.4.1,0,1.8.2,1.8.2,0,0,.3,1.6.1,1.5.2,0,.2,1.5.3,1.6,0,0,.4,1.3.3,1.4,0,0,1.6,1.1,1.4,1,.1,0-.8,1.5-.9,1.5,0,0,.5,1.5.3,1.4.2,0,1.5,1.5,1.7,1.5-.2,0-1.5,1.5-1.6,1.6,0,0,0,1.3.1,1.3,0,0-1.5,1-1.4.9-.1,0,.4,1.9.6,1.8-.1,0-1.7.9-1.8.9,0,0-1.4.3-1.4.3,0,0-1.3.4-1.5.4.2,0-1.4,1.2-1.4,1.1,0,0,1.8,1,1.9,1,0,0,1.1.7,1,.8.1,0,.9.8,1,.8,0,0,1.7.6,1.8.5,0,0,1.1,1.4,1.2,1.4-.1,0-.9,1.8-.9,1.8,0,0,.5,1.1.6,1.1,0,0-.6,1.9-.5,1.9-.1,0,1.1,1.2,1.3,1.3-.2,0-.1,1.1-.2,1.2.1,0,.5,1.4.6,1.4-.1,0-1.3,1.1-1.2,1.1-.2,0-.5,1.2-.3,1.3-.1,0-.6,1.2-.5,1.1,0,0,.6,1.4.8,1.4-.2,0,1.6,1,1.8,1-.2,0-.6,1.2-.5,1.1,0,0-1.2.5-1,.5-.2,0-1.5.9-1.6.8,0,0-1.4-1.1-1.3-1.1,0,0-1.6-.2-1.8-.3.2,0-1.3,0-1.3,0,0,0-1.3,1.3-1.3,1.4,0,0-1.5-.5-1.6-.5,0,0-1.5-.4-1.6-.4,0,0-.5-.8-.4-.8,0,0,.7-1.4.5-1.4.2,0-.2-1.1-.3-1.1,0,0-1.2-1.5-1.1-1.5,0,0,.1-1.6.2-1.7,0,0,.5-1.2.4-1.2.1,0,.4-1.3.5-1.2-.1,0-.6-1.1-.7-1.2.1,0,.9-1.6.9-1.7,0,0-.8-1.7-.7-1.7,0,0-1.1-.8-1.1-.8,0,0-.7-1.2-.6-1.2,0,0-1.8-.4-1.6-.4-.2,0-1.9.2-2,.2.1,0-1.3.2-1.2.2-.1,0-1.4.3-1.3.4,0,0-1.7-.9-1.8-1,.1,0-1.3,1.4-1.3,1.4,0,0-1.3-1.3-1.1-1.2-.2,0-1.1.6-1.2.7.1,0-.6.8-.6.9,0,0,.4,1.2.2,1.2.2,0,.4,1.4.5,1.3,0,0,.2,1.6,0,1.6.1,0-1.6,1.3-1.4,1.2-.2,0,1.8,1.3,1.7,1.2.1,0-1.4,1.3-1.4,1.3,0,0-.2,1.4-.2,1.5,0,0,.3,1.3.2,1.2.1,0,.8,1.4.7,1.4.1,0-1.4,1.5-1.6,1.4.2,0,2,1.7,2,1.7,0,0-1.7-.7-1.6-.7-.1,0-1.4-.4-1.4-.4,0,0-1.5-.4-1.5-.4,0,0-1.3,1.8-1.3,1.8,0,0-1.4-1.9-1.3-2-.2,0-1.4,2.6-1.3,2.5,0,0-1.5-1.4-1.5-1.4,0,0-1.4.5-1.4.4,0,0-.3-1.6-.4-1.6.1,0,0-1.4.2-1.3-.1,0,.3-1.4.2-1.5.2,0,.5-1.3.4-1.3.1,0,.3-1.4.4-1.3,0,0,0-1.4-.1-1.4.2,0-.4-1.5-.2-1.5-.2,0-.4-1.3-.3-1.3,0,0-.1-1.5-.2-1.4.1,0-.2-1.2,0-1.2-.2,0,0-1.5-.2-1.4.1,0,1.3-1.5,1.5-1.5-.1,0-.8-1.4-.7-1.3-.1,0-.8-1.4-.8-1.4,0,0-.1-1.3,0-1.3-.1,0,1.1-1.3,1.1-1.3,0,0-.7-1.5-.8-1.6.1,0,0-1.3-.2-1.4.1,0-.7-1.5-.7-1.5,0,0,.8-1.2.6-1.2.1,0,.4-1.3.5-1.4-.1,0-.4-1.3-.6-1.4.2,0,1-1.3,1-1.3,0,0,0-1.4.1-1.3-.1,0,0-1.5-.2-1.5.1,0,.3-1.4.3-1.4,0,0-.4-1.2-.6-1.2.2,0,.5-1.4.4-1.5.2,0,.4-1.5.5-1.4,0,0-2-1.2-1.8-1.2-.1,0,1.1-1.3.9-1.3ZM263.9,71.9c0,0,1.4-.9,1.4-.9,0,0,1.6.4,1.6.4,0,0,.9-1.2,1-1.2,0,0,1.2-.6,1.2-.6,0,0-.4-1.4-.5-1.4,0,0,.6-1.2.7-1.2,0,0,.2-1.3.2-1.3,0,0-1.3-.8-1.2-.8,0,0,.5-1.9.5-1.9,0,0-1.4-.9-1.4-.9,0,0-1.5.3-1.6.2,0,0-1.3-.7-1.3-.7,0,0-1.3.9-1.2.9,0,0-1.5-.1-1.5-.1,0,0-1.4.5-1.5.5,0,0-1.2.2-1.3.2,0,0-1.3-.7-1.3-.7,0,0-1.3.9-1.4.9,0,0-1.1-.7-1.2-.7,0,0-.6,1.2-.7,1.2,0,0,.4,1.2.3,1.2,0,0-.3,1.4-.3,1.4,0,0,.1,1.3,0,1.3,0,0-.5,1.3-.5,1.3,0,0,.6,1.5.5,1.5,0,0,1,.7,1,.7,0,0,.7.4.7.4,0,0,1.2.6,1.3.6,0,0,1.3,0,1.3,0,0,0,1.3-1.2,1.3-1.2,0,0,1.2,1.1,1.2,1.1,0,0,1.5-.3,1.4-.3,0,0,1.4.2,1.3.2Z"/>
    <path class="st0" d="M291.1,82.3c.1,0,1.2.8,1.1.8,0,0-.2,1.3-.2,1.3,0,0,.9.9,1.1.8-.1,0,0,1.4.1,1.4,0,0,1.3.1,1.1.1.2,0,1,.9,1.1.9-.1,0,1,.8.8.8.2,0,1.6-.8,1.8-.8-.2,0,.8,1.8.9,1.9,0,0,1.3,0,1.2,0,.1,0,1.4-.7,1.3-.7,0,0,1.5.4,1.5.4,0,0,.9-1.1,1.1-1.1-.2,0,1.1-.4,1.1-.5,0,0,.6-1,.4-1,.2,0,.5-1,.4-1,.1,0,1-1,1-.9,0,0-1.1-1.1-1.3-1.1.2,0-.2-1.1-.3-1.1.2,0-.8-1.3-.9-1.3,0,0-1.2,0-1.4,0,.1,0-1.1-.8-1.2-.8.1,0-1.2-.3-1.4-.3.2,0-1-.9-1.1-.8.1,0-1.5,0-1.7,0,.1,0-1.3.8-1.3.8,0,0-1.2-1-1.3-1.1.2,0-.9-.8-.9-.8,0,0-1.4-.5-1.5-.4,0,0-1.6.6-1.7.5.1,0-.7-1.4-.7-1.4,0,0-1.4-.3-1.5-.3.2,0-1.7.5-1.6.4-.2,0-.8-1.8-.9-1.8,0,0-1.2-.6-1.1-.6,0,0-.4-1.7-.2-1.8-.1,0-2.1,0-1.9-.2-.1,0-.3-1.6-.4-1.6,0,0,.3-1.5.3-1.5,0,0,0-1.3-.2-1.3.2,0-.2-1.4-.1-1.5,0,0-.3-1.3-.2-1.3,0,0,0-1.3-.1-1.2.1,0,.4-1.2.5-1.2,0,0-.8-1.7-.7-1.8,0,0,0-1.6,0-1.6-.1,0,1.7-.7,1.6-.8,0,0,.4-1,.5-1.1,0,0,1.6-.9,1.7-.8-.1,0,0-1.7.2-1.7-.2,0,.9-.8.8-.8.1,0,1.4-1.2,1.5-1.2-.1,0,1.5.6,1.6.6-.2,0,1.2-.1,1.3,0-.1,0,1.2,0,1.3,0,0,0,1.3-.5,1.4-.5-.2,0,1-.7,1.2-.8-.2,0,1.1.6,1.2.5,0,0,1.3-.5,1.5-.5-.2,0,1-.9,1-.9,0,0,1.4,1.2,1.5,1.3,0,0,1.4.2,1.2.1.2,0,1.6.3,1.6.3,0,0,1.4-1,1.4-1,0,0,1.3.7,1.2.7,0,0,1.4.8,1.3.7,0,0,1.5,0,1.6,0,0,0,.7,1.6.5,1.6.2,0,1.4.5,1.3.6,0,0,1.9-.1,1.9-.2,0,0,.9,1.3,1,1.3,0,0,.3,1.6.1,1.6.1,0,.7,1.3.9,1.3-.1,0,.7.8.6.7.1,0-.3,1.4-.4,1.4,0,0,.9,1.2.9,1.3,0,0,.6,1,.7,1,0,0-.6,1.2-.5,1.2,0,0,.2.6.4.6-.2,0-1.3.3-1.4.3.1,0-1.2.2-1.1.2-.1,0-1.3.3-1.2.4,0,0-1.6-.9-1.7-1,.1,0-1.2,1.4-1.2,1.4,0,0-1.2-1.3-1-1.2-.2,0-1.5.8-1.6.8.1,0-1-.9-1-.8,0,0-.5-1.3-.7-1.3.2,0-.5-1.3-.4-1.3,0,0-1.2-.9-1.3-.9.1,0-.1-2.2,0-2.2-.2,0-2.1,1.4-2.2,1.3.1,0-.9-1.7-.9-1.8,0,0-1.5-.2-1.5-.1,0,0-1.4.3-1.5.2.1,0-1,.9-1.1.9.1,0-1.8-1.1-1.9-1.2.2,0,.1,2.3,0,2.4,0,0-1.4,0-1.3.1-.1,0-1.1.9-1.1.9,0,0-.7,1.6-.8,1.6,0,0,2,1,2,1,0,0-.3,2.4-.2,2.3-.2,0,2.3-1.4,2.4-1.5,0,0,.8,1.9.8,1.9,0,0,1.4,0,1.4-.1,0,0,1.6.5,1.4.5.1,0,1.4.3,1.6.3-.1,0,1.1.8.9.7.2,0,1.4.8,1.2.7.1,0,1.4.6,1.5.7,0,0,1.1.5.9.5.2,0,1.7,0,1.8,0-.2,0,1.1.3,1.2.3,0,0,1.4.5,1.2.5.1,0,1.3.1,1.5.1-.2,0,1.1.8,1,.9.1,0,.6,1.6.7,1.6-.1,0,1.3.2,1.4.3-.1,0,1.3.3,1.4.2,0,0,.8,1.1,1,1.1-.1,0-.6,1.6-.5,1.7,0,0,1,1,.9.9.1,0,.6,1.3.5,1.2.1,0,1.1,1.5,1.2,1.5,0,0-.8,1.2-1,1.3.2,0-.1,1.2,0,1.1-.1,0,0,1.5-.2,1.4.2,0-.9,1.1-.9,1.1,0,0-.5,1.2-.4,1.3-.1,0-.7,1.1-.8,1,.1,0-.8,1.1-.8,1.1,0,0-.4,1.1-.6,1.1.2,0-1.1.6-1.2.6.2,0-1.1.8-1.1.8,0,0,0,2.2,0,2.2-.1,0-1.6.2-1.7.2,0,0-1,.7-.9.6,0,0-1.7,0-1.5.1-.2,0-1.5.4-1.6.3.1,0-1.2,1.2-1.2,1.2,0,0-1.3-.4-1.5-.5.2,0-1.4-.7-1.4-.8,0,0-1.4,1.3-1.6,1.3.2,0-1-1.2-1.1-1.2.1,0-1.2.3-1.4.3.2,0-1.1-1.3-1.1-1.2,0,0-1.4,1.4-1.4,1.3,0,0-1.3-.6-1.5-.7.2,0-1,0-1,0,0,0-1.7-.3-1.5-.3-.1,0-1.8.6-1.7.6,0,0-.9-1.5-1-1.6.1,0-1.5-.1-1.6-.2.2,0-.5-1.3-.4-1.2-.1,0-1.6-.1-1.7-.1.1,0-.8-1.4-.9-1.4.1,0-.7-1.2-.6-1.3,0,0-.5-1.2-.4-1.2-.2,0-1-1.3-.8-1.4-.2,0,.7-1.6.7-1.5,0,0-.8-1.1-.8-1.1,0,0-1.5-1.2-1.5-1.1,0,0,.6-1.4.6-1.3,0,0-.9-2-.9-2,0,0,2.2-.2,2.2-.3,0,0,1.2,1.9,1.1,1.9.1,0,1.5-1.3,1.7-1.3-.1,0,1.2.4,1.1.3.1,0,1.4-1,1.4-.9,0,0,1.3,1.2,1.1,1.2.1,0,1.4.3,1.2.2.2,0,1.3-.3,1.2-.3Z"/>
  </g>
</svg>