<?xml version="1.0" encoding="UTF-8"?>
<svg id="CONTEN_IDO" xmlns="http://www.w3.org/2000/svg" version="1.1" viewBox="0 0 408.3 157.3">
  <!-- Generator: Adobe Illustrator 30.2.1, SVG Export Plug-In . SVG Version: 2.1.1 Build 1)  -->
  <defs>
    <style>
      .st0 {
        fill: gray;
      }

      .st1 {
        fill: #818181;
      }
    </style>
  </defs>
  <g id="CONTEN_IDO1" data-name="CONTEN_IDO">
    <g id="DqjYR2">
      <path class="st1" d="M231.4,86.7v6.8h-41.2c-3.6,0-6.4-2.7-7-6.1-.3-1.7,0-3.3.9-4.7l4.1-6.6-11.3-27h-7.1s0-6.8,0-6.8h11.7c0,0,2.8,6.8,2.8,6.8h50.5c1.2,0,2.3.7,2.9,1.7.7,1.1.6,2.4,0,3.5l-12.3,22.2c-1.2,2.1-3.5,3.5-5.9,3.5h-25.6l-4.1,6.6s0,.2.2.2h41.4Z"/>
      <path class="st1" d="M189.6,97c3.8-.4,7.1,2.4,7.5,6.1.4,3.8-2.4,7.1-6.1,7.5s-7.1-2.3-7.5-6.1c-.4-3.7,2.3-7.2,6.1-7.5Z"/>
      <path class="st1" d="M223.9,97c3.8-.4,7.1,2.4,7.5,6.1s-2.4,7.1-6.1,7.5-7.1-2.3-7.5-6.1,2.3-7.2,6.1-7.5h0Z"/>
    </g>
    <g id="DqjYR21" data-name="DqjYR2">
      <g>
        <path class="st0" d="M231.4,86.7v6.8h-41.2c-3.6,0-6.4-2.7-7-6.1-.3-1.7,0-3.3.9-4.7l4.1-6.6-11.3-27h-7.1s0-6.8,0-6.8h11.7c0,0,2.8,6.8,2.8,6.8h50.5c1.2,0,2.3.7,2.9,1.7.7,1.1.6,2.4,0,3.5l-12.3,22.2c-1.2,2.1-3.5,3.5-5.9,3.5h-25.6l-4.1,6.6s0,.2.2.2h41.4Z"/>
        <path class="st0" d="M231.4,86.7v6.8h-41.2c-3.6,0-6.4-2.7-7-6.1-.3-1.7,0-3.3.9-4.7l4.1-6.6-11.3-27h-7.1s0-6.8,0-6.8h11.7c0,0,2.8,6.8,2.8,6.8h50.5c1.2,0,2.3.7,2.9,1.7.7,1.1.6,2.4,0,3.5l-12.3,22.2c-1.2,2.1-3.5,3.5-5.9,3.5h-25.6l-4.1,6.6s0,.2.2.2h41.4Z"/>
      </g>
      <g>
        <path class="st0" d="M189.6,97c3.8-.4,7.1,2.4,7.5,6.1.4,3.8-2.4,7.1-6.1,7.5s-7.1-2.3-7.5-6.1c-.4-3.7,2.3-7.2,6.1-7.5Z"/>
        <path class="st0" d="M189.6,97c3.8-.4,7.1,2.4,7.5,6.1.4,3.8-2.4,7.1-6.1,7.5s-7.1-2.3-7.5-6.1c-.4-3.7,2.3-7.2,6.1-7.5Z"/>
      </g>
      <g>
        <path class="st0" d="M223.9,97c3.8-.4,7.1,2.4,7.5,6.1s-2.4,7.1-6.1,7.5-7.1-2.3-7.5-6.1,2.3-7.2,6.1-7.5h0Z"/>
        <path class="st0" d="M223.9,97c3.8-.4,7.1,2.4,7.5,6.1s-2.4,7.1-6.1,7.5-7.1-2.3-7.5-6.1,2.3-7.2,6.1-7.5h0Z"/>
      </g>
    </g>
  </g>
</svg>