<?xml version="1.0" encoding="UTF-8"?>
<svg id="CONTEN_IDO" xmlns="http://www.w3.org/2000/svg" version="1.1" viewBox="0 0 408.3 157.3">
  <!-- Generator: Adobe Illustrator 30.2.1, SVG Export Plug-In . SVG Version: 2.1.1 Build 1)  -->
  <defs>
    <style>
      .st0 {
        fill: gray;
      }

      .st1 {
        fill: #d3d5d6;
      }

      .st2 {
        fill: #818181;
      }
    </style>
  </defs>
  <g id="CONTEN_IDO1" data-name="CONTEN_IDO">
    <g id="DqjYR2">
      <path class="st2" d="M232,86.8c.3,0-1.5,1.1-1.5,1,0,0,1,1.6,1,1.6,0,0,.5,1.3.3,1.3.2,0-1,1.4-.8,1.4-.1,0,.4,1.4.3,1.4.1,0-1.2-.7-1.4-.8.2,0-1.5-.6-1.3-.6-.1,0-1.3,1.3-1.5,1.2.3,0-1.1,0-1.2,0,0,0-1.3-.2-1-.3-.3,0-1.7.2-1.4.1-.2,0-1.6.9-1.6.9,0,0-1.4-1.4-1.6-1.3.1,0-1.1,1.2-1.4,1.2.3,0-1.1-.7-1.1-.6,0,0-1.5-.1-1.7,0,.2,0-1.1.7-1.1.8,0,0-1.4-.2-1.1-.2-.3,0-1.6-1.2-1.7-1.2,0,0-1.4-.6-1.5-.7,0,.1-1,2.2-.7,2.1-.3,0-1.9,0-1.7,0-.2,0-1.7,0-1.9-.1.2,0-1-1.1-1.1-1.1,0,0-1.4-.2-1-.3-.3.1-1.7,1.2-1.4,1.2-.2,0-1.6.2-1.8.1.3,0-1.3-.7-1.5-.8.2,0-1.1.8-1.1.7,0,0-1.4-.7-1.1-.7-.3,0-1.7.3-1.5.3-.2,0-1.7.4-1.7.3,0,0-1.4,0-1.7,0,.3,0-1.1-1.4-1.2-1.3,0,0-1.2,1.3-1.1,1.3-.1,0-1.2-1.5-1-1.6-.2,0-1.8,0-1.5,0-.3.1-1.8,0-1.9,0,.1,0-1.4-.8-1.6-.8.2,0-.3-1.5-.2-1.6,0,0-1.7-.8-1.8-.9,0,0,1.1-1.9.8-1.9.3,0,.6-1.2.2-1.2.3,0,.4-1,.1-1,.3,0,0-1.4-.1-1.3,0,0,0-1.6,0-1.6,0,0,2,0,2.2,0-.2,0,0-1.7,0-1.7,0,0,1.3-.8,1-.9.3,0,.6-1.1.7-1.2,0,0-.2-1.5-.4-1.6.2,0,2-.6,2.1-.5,0,0-.5-1.5-.3-1.5-.3,0-1.4-1.1-1.6-1,.2,0,.3-1.6.5-1.7-.2.1-1.7-.7-1.9-.6.2,0,1.2-1.7,1.1-1.6,0,0-1.8-.9-1.6-1-.2,0,0-1.6.1-1.6,0,0-1-1-.7-1-.3,0-1.3-.9-1.5-.9.2,0-.7-1.1-.7-1.2,0,0,.3-1.5.6-1.6-.3,0-1.4-.9-1.3-.9,0,0,.4-1.6.1-1.6.3,0-.5-1.3-.3-1.2-.2,0-.8-1.1-1.1-1,.3,0-.4-1.3-.6-1.3.3,0-1-.9-.8-.9-.1,0,0-1.5.2-1.5-.3,0-1.5-1.1-1.8-1.1.3,0-.2-1.2-.5-1.2.3,0,.3-1.3.5-1.2-.2,0-.2-1.7,0-1.7-.2,0-1.9-.3-1.9-.4,0,0-1.5.3-1.5.3,0,0-1.3-.3-1.3-.2,0,0-1.5,1.2-1.2,1.2-.2,0-1.7-.6-1.7-.6,0,0,.6-1.5.6-1.4,0,0-.6-1.3-.8-1.3.2,0,1-1.4,1.2-1.5-.2,0-.5-1.4-.5-1.5,0,0-.7-1.4-.4-1.3-.3,0,1.3,0,1.4,0,0,0,1-.3,1.2-.4-.1,0,1.3,0,1.3,0,0,0,1.3,1.3,1.5,1.2-.2,0,1-1.2,1.1-1.2,0,0,1.3.1,1.1.2.2,0,1.4,0,1.3,0,.1,0,1.4-1.1,1.4-1.1,0,0,.8,2.1,1.1,2.1-.3,0,1.9.2,1.6.2.3,0,0,1.6,0,1.5,0,0,.2,1.6,0,1.7,0,0,.3,1.4.3,1.4,0,0,.7,1.9.9,1.9-.1,0,1.6-1.7,1.4-1.8.2,0,1.3,2.2,1.1,2.3.1,0,1.7-1,2-1-.3,0,1.1.8,1.3.8-.2,0,1.1,0,1.1,0,0,0,1.3-.6,1.1-.6.2,0,1.4-1.4,1.2-1.3.1,0,1.8,1.3,2.1,1.3-.3,0,1-.3.7-.3.3,0,1.7-1.2,1.6-1.3,0,0,1.3,1.2,1.4,1.2,0,0,1.4-.2,1.4-.1,0,0,1.3,1.2,1.5,1.2-.2,0,1.3-.4,1.4-.5-.2,0,1-.9.9-.8,0-.1,1.5-.5,1.2-.4.3,0,1.9-.3,2.1-.4-.3,0,.8,2,1,1.9-.2,0,1.3-.1,1.2-.2.1,0,1.4-.4,1.5-.5,0,0,1.3-.5,1.2-.4,0,0,1.5-.4,1.6-.3-.1,0,1.2.4,1.1.3.2,0,1.6-.2,1.8,0-.2-.1,1.2.4,1.4.4-.2,0,1.1.8.8.7.3,0,1.9.4,2,.5-.2-.1,1-2.1.9-2.1.1,0,1.5,1.8,1.6,1.8,0,0,1.3-1.4,1.5-1.5-.2,0,1.3-.6,1.4-.7,0,0,1.1.6,1,.6,0,0,1.5-.5,1.5-.5,0,0,1.3,1.9,1.3,1.8,0,0,1.6-.3,1.6-.2,0,0,1.2-1.6,1-1.5.1,0,1.8,0,1.9,0-.1,0,.2,2.3-.2,2.4.3-.1,1.8-.6,1.6-.6.2,0,1.5.6,1.6.6-.1,0,0,1.4.4,1.5-.3,0-.5,1.1-.2,1.2-.2,0-.5,1.2-.4,1.2,0,0-1.1,1-.9.9-.2,0,.3,2,.2,2,.2,0-2.6-.3-2.9-.4.3,0,1.2,2.2,1.5,2.2-.3,0-2.1.5-1.8.5-.3,0-.7,1.4-.8,1.4,0,0,0,1.4-.3,1.4.3,0,.3,1.5.3,1.6,0,0-1.1,1.1-1.3,1.1.2,0-.7.9-.4.8-.3.1-.4,1.6-.3,1.5,0,0-1.7.7-1.9.7.2,0-.3,1.3-.4,1.4,0,0,.2,1.5.5,1.6-.3,0-.8,1.1-.8,1.1,0,0-.9,1.1-.6,1.2-.3,0-1.2,1.1-1.5,1,.3,0-1.4.5-1.3.5,0,0,.8,1.9,1,1.8-.2,0-1.3,1.4-1.4,1.4,0,0-1.5.5-1.8.6.3,0-1.1.1-.9.2-.2,0-1.3,1.5-1.4,1.5,0,0-1.5,0-1.3,0-.2,0-1.5-.6-1.6-.6,0,0-1.3.7-1.3.7,0,0-1.5-1.2-1.7-1.2.2,0-1,1.5-1.1,1.5.1,0-1.1-1.7-.8-1.7-.3,0-1.9.2-1.7.2-.2,0-1.5.5-1.6.5.1,0-1.2,1-1.1,1-.1,0-1.4-.9-1.3-.9,0,0-1.4-.3-1.6-.3.2,0-1.2.4-1.4.3.2,0-1.1,1-1.2,1,.1,0-1-1.9-.7-1.9-.3,0-1.8,1.3-1.7,1.4-.1,0-1.5-.6-1.7-.5.2,0-1.1-.5-1.1-.5,0,0-1.5,0-1.8,0,.3,0-1,.6-1.1.5.1,0-1.3,0-1.7,0,.3,0-.9.8-1.2.7.3,0-.7,1.2-.5,1.3-.3,0,.3,1.5.2,1.6.1,0-1.6.2-2,.2.3,0,.4,1.8.5,1.8-.1,0-.9,1.2-1.2,1.1.3,0,.6.9.5.9,0,0,1.3-1.4,1.2-1.4,0,0,1.6,0,1.5,0,.1,0,1.5,1,1.7.9-.3,0,1.2-.5,1.2-.6,0,0,1.4.9,1.3.9.1,0,1.5-1.2,1.5-1.1,0,0,1.3.7,1.2.7,0,0,1.5-.4,1.2-.5.3.1,1.7-.3,1.9-.3-.2,0,1.3.3,1.6.2-.3,0,.9,0,.6,0,.3,0,1.7,1.3,2,1.2-.3,0,1-1.5,1.3-1.6-.3,0,1.2.5,1.2.6,0-.1,1.4.8,1.1.8.3,0,1.7-1,1.5-1.1.1.1,1.6,0,1.8,0-.2,0,1.1.5,1.4.6-.3,0,1-.5.8-.4.2,0,1.7-.4,1.9-.5-.2,0,1.2,1.1.9,1.1.2,0,1.8-1.1,1.9-1.1-.1,0,1.2.9,1.1.9,0,0,1.4.9,1.1.8.3,0,1.7-.7,1.8-.7-.1,0,1.3,0,1.5-.2-.2,0,1.1.4.9.5.3,0,1.7-.8,1.9-.8-.3,0,1,1.4,1,1.5,0-.1,1.5-1,1.4-1.1,0,.1,1.1.1.8,0Z"/>
      <path class="st2" d="M189.6,97.5c0,0,1.2,0,1.1,0,0,0,1.2,1,1.2,1,0,0,1.6-1.2,1.7-1.2,0,0,1.4.8,1.5.8,0,0,.5,1.5.5,1.5,0,0,.7,1,.7,1,0,0,.7,1.2.7,1.2,0,0-.6,1.3-.7,1.3,0,0,.5,1.4.5,1.4,0,0-.5,1.2-.6,1.2,0,0,.7,1.5.6,1.6,0,0-.6,1.5-.6,1.5,0,0-1.4.9-1.4.9,0,0-1.8-.3-1.9-.3,0,0-.9.9-.9.9,0,0-1,1.1-1,1.1,0,0-1.6.5-1.5.5,0,0-1.5-.7-1.5-.7,0,0-1.4-.7-1.4-.7,0,0-.8-1-.8-1,0,0-.8-1.2-.8-1.2,0,0-.6-1.2-.6-1.2,0,0-1.2-.9-1.3-.8,0,0,.4-1.6.4-1.6,0,0,.3-1.2.3-1.2,0,0,.2-1.3.2-1.3,0,0-.3-1.6-.3-1.6,0,0,1.7-.5,1.7-.5,0,0,.3-1.5.3-1.5,0,0,1.5-.2,1.5-.2,0,0,.8-1.9.8-1.9,0,0,1.5,1.3,1.6,1.3Z"/>
      <path class="st2" d="M224,96.1s1.2,1.4,1.3,1.4c0,0,1.4-.5,1.4-.5,0,0,1.5.4,1.4.4,0,0,1.1.6,1.2.6,0,0,1.2,1,1.2,1,0,0-.2,1.9-.2,1.8,0,0,1.4.8,1.4.8,0,0,.4,1.4.4,1.4,0,0-.9,1.3-.9,1.2,0,0-.2,1.4-.1,1.4,0,0,.2,1.4.2,1.4,0,0-1.4.9-1.4.9,0,0-.3,1.6-.4,1.7,0,0-1.4.4-1.4.5,0,0-1.4-.4-1.5-.5,0,0-1.2.3-1.3.3,0,0-1.3,1-1.4,1,0,0-1.1-.4-1.1-.4,0,0-1.7-.2-1.7-.1,0,0-.2-2.1-.2-2.1,0,0-1.3-.5-1.4-.5,0,0-1.3-.6-1.3-.6,0,0,.5-1.7.5-1.7,0,0-1-1.1-1-1.1,0,0,.2-1.4.2-1.4,0,0,0-1.3.1-1.3,0,0,1.4-.8,1.4-.8,0,0-.5-1.8-.5-1.8,0,0,1.4-.9,1.3-.9,0,0,1.3-.5,1.3-.5,0,0,1.3-.4,1.3-.4,0,0,1.7.4,1.7.3,0,0-.4-1.7-.4-1.7Z"/>
    </g>
    <g id="DqjYR21" data-name="DqjYR2">
      <g>
        <path class="st1" d="M212.5,104.1c-.1,0-.2,0-.3,0-.2,0-.4,0-.7-.1,0,0,0,0,0,0,0,0-.2,0-.2,0h0c-1.4-.4-2.5-1-3.4-1.6,0,0,0,0,0,0-.2-.2-.4-.3-.6-.5h0c-.1,0-.3,0-.4-.2-.3-.1-.6-.3-.9-.5l-.7,1.3v-.2l-.2.5-.2.3h0c0,0,0,.1,0,.1,0,0,0,0,0,0v.6c0,0,0,0,0,0,1.2.4,2.1.5,2.3.5-.1,0-.3,0-.4,0-.8,0-1.5,0-2.4-.2h-1c-.8,0-1.5.1-2.1.1s-1.2,0-1.7-.1h-6.9s0-.1,0-.1h-4.3s-.8-1.4-.8-1.4c0,0-.1,0-.2,0-.4,0-.8,0-1.2,0h0s-.3.5-.3.5c-.6-.3-1.2-.7-1.9-1.3,0,0-.1,0-.2,0,0,0,0,0,0,0-.6-.5-1.2-1.1-1.7-1.8-.5-.1-1-.3-1.5-.4-1.4-1.4-2.3-3.2-2.6-5,.5.3,1.1.6,1.7.9-.1-.4-.2-.8-.3-1.1.4.2.9.4,1.3.5l.4-1.2s0,0,0,0l-.4,1.2c.6.2,1.3.3,1.9.4h0s0,0,0,0c.3,0,.6,0,.8,0v-.2h-.8c0,0,.1-1.2.1-1.2.2,0,.4,0,.6,0v-1h-.5c0,0,0-.9,0-.9-.4-.1-.7-.2-1.1-.4l-.5,1.5h0s.5-1.5.5-1.5c-.4-.2-.8-.4-1.2-.6l1.2-1.2-1.4-1.2.8-.4.2.2c0,.2,0,.4.2.5h.4c0-.1.3,0,.3,0v-.3h.4c0-.1,0-.2,0-.2h0s0,0,0,0h0s.4-.1.4-.1v-.8s0,0,0,0l-.3,1h0s.3-1,.3-1c0,0,0,0-.1,0h.2c0,0,0-.1,0-.1v-3s.2,0,.2,0v-.6h-.1c0-.1.2-.1.2-.1v-.2h0s0-.1,0-.1c0,0,0,0,0,0v-.3s0,0,0,0v-.6s.3-.5.3-.5h0c0,0-.3.3-.3.3v-.3s0,0,0,0v-.6s-.2.2-.2.2v-.2s-.8.3-.8.3v-.5c-.1.2-.2.4-.3.6l-1,.4-.3-.2c-.2-.3-.4-.7-.6-1l2.2-.5v-1.2c-1,0-2,.1-2.8.4-.1-.3-.2-.6-.3-.9h-.6v-.3c-.6.2-1,.5-1.4.8,0,0,0,.1,0,.2h0c0,0,0-.1,0-.2,0,0,0,0-.1,0l-.5-.3c0,.3,0,.5,0,.8-.4.4-.8.8-1.1,1.2,0-.3,0-.6,0-.9-.2.2-.3.5-.5.8l-.2-.5c-.7,1.3-1.1,2.7-1.2,4.3-.1.4-.3.9-.4,1.6l-1.7-1.7,2.4-5.8c0,0,0-.1,0-.2l-.7-1.9,3.3-2.2-.6-1.4c-.5-1.1-.8-2.2-.9-3.2,0,0,0-.1,0-.2,0,0-1.6-2.2-1.6-2.3,0,0-.1-.2-.2-.2,0,0,0,0,0,0-.1-.2-.2-.3-.3-.4l-2.9-5,.4-.7c-.3-.4-.5-.9-.7-1.3-.1-.3-.2-.5-.3-.8h0l-.2.7c-6.5-1.4-8.7-5.2-9.3-8.2l-.4-1.6-.8-.2.3-2.2-.6-2.9-5.1-2.1,4.5-.5-.6-2.8h3c.2-.6.5-1.3.9-1.9l2.9-5h5.1c.3,0,.7,0,1,0s.5,0,.8,0c0,0,0,0,0,0h.3l1.3.3-.6,2.2.2.3c-.1.2-.3.4-.4.6l-.6,2.2h2.2l-1.2,2.6c.8-.5,1.7-.9,2.6-1.1v.2c.1,0,.1-.3.1-.3,0,0,0,0,0,0v.3s.3.5.3.5v.2h0s.4.6.4.6l.9-.3-.2-.4,1.9-.2h0c0,0,0,0,0,0l1.1-.4v.3c0,0,.8,0,.8,0l-.5,1h0l.7.3h.3c0-.1-.3-1.3-.3-1.3h.4s-.2-.6-.2-.6l1.3-.5c-.2-.5-.3-.9-.6-1.3l-.8,1.6-.6-1.8,1.1-.4c-.6-1.1-1.4-1.9-2.3-2.6v-.4c-.4,0-.6-.2-.9-.3-.4-.2-.8-.5-1.2-.6v-.4c-.3,0-.4,0-.6.1-.2,0-.4-.2-.7-.2.8-.2,1.6-.3,2.4-.3s.3,0,.5,0c-.1,0-.3,0-.4,0,0,0,.4,0,.5,0,2.9.1,4.4.9,5.1,1.2.2,0,.3,0,.5,0h3.5s2.6,2.9,2.6,2.9c.6.6,1.2,1.2,1.6,2h40.6c.8-.1,1.5-.1,2-.1,1.2,0,1.9,0,2.4.1h12.1l34.7-22.4-17.9,22.4h4.2l-5.3,1.4-18.7,23.5c-.2.3-.5.7-.8,1l-1.8,2.3-.7.2c-.1.3-.3.6-.4.9-.3,1.1-.7,2.3-1.5,3.6.1-.2.2-.4.3-.7.3-.7.6-1.4.8-2.2,0,0-.1.2-.2.2,0-.4,0-.8.1-1.2-.5.7-1.2,1.3-1.8,1.9,0,.5,0,.9-.2,1.3-.4.3-.9.7-1.4.9,0-.4-.2-.7-.3-1.1-.1,0-.2.1-.4.2v1.3c-.5.1-.8.3-1.1.4l.9.3h0s-1-.3-1-.3c0,0-.2,0-.3,0l-1-.4c0,0,0-.1,0-.2l-.7-.2h-.1c0,0-.5-.1-.5-.1l.2.4h-.1c0,0,.2.9.2.9,0,0,0,0,0,0l.2.7v.2s-.7-.1-.7-.1v.9c.3,0,.6,0,.9,0l.2.9c-.6.1-1.2.2-1.8.3v-2.2c-.1,0-2.1-.4-2.1-.4l-.4-1.7-.4-.3-.3,1.7h-.6c0-.1,0,3.4,0,3.4v.5l.8.3v.3s.4-.1.4-.1h.3c0,.1.4,1.2.4,1.2.3.1.6.3.8.4v-1s.3.1.3.1l-.2-.7,3.4-.2h0c-.2.2-.5.3-.7.4h.8c0,.1,0,.2,0,.2,0,0,0,0,0-.1l1.2.2c0,0,0,.1,0,.2l.2-.2h.6c0,0,0,0,0,0,.1-.3.3-.5.4-.8h.2c0-.1,0-.1,0-.1,0,0,0,0,0,0l31.1-22.5-27.4,42v.4s-.3,0-.3,0l-4.7,7.2h-2.2s-41.1,29.8-41.1,29.8l19-29.2ZM227.6,102.4h0c.2-.1.4-.3.7-.5l.7-4h0c-.6,1-1.3,1.9-2.2,2.7l.8,1.8ZM190.8,101.2s0,0,.1,0c0,0-.1-.1-.2-.2v.2ZM225.6,98.1v-.3c0,0,0,0,0,0v-.2c-.1,0-.2,0-.2,0l.2.5ZM204.3,97.4c0-.2-.1-.4-.2-.5l-.2.3.4.2ZM203.4,96.6l.4-.3h-.5s0,.3,0,.3ZM205.2,95.5h0c0,0,0,0,0,0ZM191.5,82.7h0ZM239.2,65.1s0,0,0,0l-.2-.7v.7ZM228.3,49.6l-.2-.4-1.1.3h1.2ZM233.1,47.9h.1s0,0,0,0h-.1ZM193.4,47.6l.8-1.4-.4-.2-.5.8c0,.3,0,.5,0,.8h0ZM196.2,47.1h0s0,0,0,0c0,0,0,0,0,0ZM193.2,46c0,0,0-.1,0-.2h0s0,0,0,0c0,0,0,0,0,.1ZM210.9,101.2l.2.2-.2-.2Z"/>
        <path class="st1" d="M212.5,104.1c-.1,0-.2,0-.3,0-.2,0-.4,0-.7-.1,0,0,0,0,0,0,0,0-.2,0-.2,0h0c-1.4-.4-2.5-1-3.4-1.6,0,0,0,0,0,0-.2-.2-.4-.3-.6-.5h0c-.1,0-.3,0-.4-.2-.3-.1-.6-.3-.9-.5l-.7,1.3v-.2l-.2.5-.2.3h0c0,0,0,.1,0,.1,0,0,0,0,0,0v.6c0,0,0,0,0,0,1.2.4,2.1.5,2.3.5-.1,0-.3,0-.4,0-.8,0-1.5,0-2.4-.2h-1c-.8,0-1.5.1-2.1.1s-1.2,0-1.7-.1h-6.9s0-.1,0-.1h-4.3s-.8-1.4-.8-1.4c0,0-.1,0-.2,0-.4,0-.8,0-1.2,0h0s-.3.5-.3.5c-.6-.3-1.2-.7-1.9-1.3,0,0-.1,0-.2,0,0,0,0,0,0,0-.6-.5-1.2-1.1-1.7-1.8-.5-.1-1-.3-1.5-.4-1.4-1.4-2.3-3.2-2.6-5,.5.3,1.1.6,1.7.9-.1-.4-.2-.8-.3-1.1.4.2.9.4,1.3.5l.4-1.2s0,0,0,0l-.4,1.2c.6.2,1.3.3,1.9.4h0s0,0,0,0c.3,0,.6,0,.8,0v-.2h-.8c0,0,.1-1.2.1-1.2.2,0,.4,0,.6,0v-1h-.5c0,0,0-.9,0-.9-.4-.1-.7-.2-1.1-.4l-.5,1.5h0s.5-1.5.5-1.5c-.4-.2-.8-.4-1.2-.6l1.2-1.2-1.4-1.2.8-.4.2.2c0,.2,0,.4.2.5h.4c0-.1.3,0,.3,0v-.3h.4c0-.1,0-.2,0-.2h0s0,0,0,0h0s.4-.1.4-.1v-.8s0,0,0,0l-.3,1h0s.3-1,.3-1c0,0,0,0-.1,0h.2c0,0,0-.1,0-.1v-3s.2,0,.2,0v-.6h-.1c0-.1.2-.1.2-.1v-.2h0s0-.1,0-.1c0,0,0,0,0,0v-.3s0,0,0,0v-.6s.3-.5.3-.5h0c0,0-.3.3-.3.3v-.3s0,0,0,0v-.6s-.2.2-.2.2v-.2s-.8.3-.8.3v-.5c-.1.2-.2.4-.3.6l-1,.4-.3-.2c-.2-.3-.4-.7-.6-1l2.2-.5v-1.2c-1,0-2,.1-2.8.4-.1-.3-.2-.6-.3-.9h-.6v-.3c-.6.2-1,.5-1.4.8,0,0,0,.1,0,.2h0c0,0,0-.1,0-.2,0,0,0,0-.1,0l-.5-.3c0,.3,0,.5,0,.8-.4.4-.8.8-1.1,1.2,0-.3,0-.6,0-.9-.2.2-.3.5-.5.8l-.2-.5c-.7,1.3-1.1,2.7-1.2,4.3-.1.4-.3.9-.4,1.6l-1.7-1.7,2.4-5.8c0,0,0-.1,0-.2l-.7-1.9,3.3-2.2-.6-1.4c-.5-1.1-.8-2.2-.9-3.2,0,0,0-.1,0-.2,0,0-1.6-2.2-1.6-2.3,0,0-.1-.2-.2-.2,0,0,0,0,0,0-.1-.2-.2-.3-.3-.4l-2.9-5,.4-.7c-.3-.4-.5-.9-.7-1.3-.1-.3-.2-.5-.3-.8h0l-.2.7c-6.5-1.4-8.7-5.2-9.3-8.2l-.4-1.6-.8-.2.3-2.2-.6-2.9-5.1-2.1,4.5-.5-.6-2.8h3c.2-.6.5-1.3.9-1.9l2.9-5h5.1c.3,0,.7,0,1,0s.5,0,.8,0c0,0,0,0,0,0h.3l1.3.3-.6,2.2.2.3c-.1.2-.3.4-.4.6l-.6,2.2h2.2l-1.2,2.6c.8-.5,1.7-.9,2.6-1.1v.2c.1,0,.1-.3.1-.3,0,0,0,0,0,0v.3s.3.5.3.5v.2h0s.4.6.4.6l.9-.3-.2-.4,1.9-.2h0c0,0,0,0,0,0l1.1-.4v.3c0,0,.8,0,.8,0l-.5,1h0l.7.3h.3c0-.1-.3-1.3-.3-1.3h.4s-.2-.6-.2-.6l1.3-.5c-.2-.5-.3-.9-.6-1.3l-.8,1.6-.6-1.8,1.1-.4c-.6-1.1-1.4-1.9-2.3-2.6v-.4c-.4,0-.6-.2-.9-.3-.4-.2-.8-.5-1.2-.6v-.4c-.3,0-.4,0-.6.1-.2,0-.4-.2-.7-.2.8-.2,1.6-.3,2.4-.3s.3,0,.5,0c-.1,0-.3,0-.4,0,0,0,.4,0,.5,0,2.9.1,4.4.9,5.1,1.2.2,0,.3,0,.5,0h3.5s2.6,2.9,2.6,2.9c.6.6,1.2,1.2,1.6,2h40.6c.8-.1,1.5-.1,2-.1,1.2,0,1.9,0,2.4.1h12.1l34.7-22.4-17.9,22.4h4.2l-5.3,1.4-18.7,23.5c-.2.3-.5.7-.8,1l-1.8,2.3-.7.2c-.1.3-.3.6-.4.9-.3,1.1-.7,2.3-1.5,3.6.1-.2.2-.4.3-.7.3-.7.6-1.4.8-2.2,0,0-.1.2-.2.2,0-.4,0-.8.1-1.2-.5.7-1.2,1.3-1.8,1.9,0,.5,0,.9-.2,1.3-.4.3-.9.7-1.4.9,0-.4-.2-.7-.3-1.1-.1,0-.2.1-.4.2v1.3c-.5.1-.8.3-1.1.4l.9.3h0s-1-.3-1-.3c0,0-.2,0-.3,0l-1-.4c0,0,0-.1,0-.2l-.7-.2h-.1c0,0-.5-.1-.5-.1l.2.4h-.1c0,0,.2.9.2.9,0,0,0,0,0,0l.2.7v.2s-.7-.1-.7-.1v.9c.3,0,.6,0,.9,0l.2.9c-.6.1-1.2.2-1.8.3v-2.2c-.1,0-2.1-.4-2.1-.4l-.4-1.7-.4-.3-.3,1.7h-.6c0-.1,0,3.4,0,3.4v.5l.8.3v.3s.4-.1.4-.1h.3c0,.1.4,1.2.4,1.2.3.1.6.3.8.4v-1s.3.1.3.1l-.2-.7,3.4-.2h0c-.2.2-.5.3-.7.4h.8c0,.1,0,.2,0,.2,0,0,0,0,0-.1l1.2.2c0,0,0,.1,0,.2l.2-.2h.6c0,0,0,0,0,0,.1-.3.3-.5.4-.8h.2c0-.1,0-.1,0-.1,0,0,0,0,0,0l31.1-22.5-27.4,42v.4s-.3,0-.3,0l-4.7,7.2h-2.2s-41.1,29.8-41.1,29.8l19-29.2ZM227.6,102.4h0c.2-.1.4-.3.7-.5l.7-4h0c-.6,1-1.3,1.9-2.2,2.7l.8,1.8ZM190.8,101.2s0,0,.1,0c0,0-.1-.1-.2-.2v.2ZM225.6,98.1v-.3c0,0,0,0,0,0v-.2c-.1,0-.2,0-.2,0l.2.5ZM204.3,97.4c0-.2-.1-.4-.2-.5l-.2.3.4.2ZM203.4,96.6l.4-.3h-.5s0,.3,0,.3ZM205.2,95.5h0c0,0,0,0,0,0ZM191.5,82.7h0ZM239.2,65.1s0,0,0,0l-.2-.7v.7ZM228.3,49.6l-.2-.4-1.1.3h1.2ZM233.1,47.9h.1s0,0,0,0h-.1ZM193.4,47.6l.8-1.4-.4-.2-.5.8c0,.3,0,.5,0,.8h0ZM196.2,47.1h0s0,0,0,0c0,0,0,0,0,0ZM193.2,46c0,0,0-.1,0-.2h0s0,0,0,0c0,0,0,0,0,.1ZM210.9,101.2l.2.2-.2-.2Z"/>
      </g>
      <g>
        <path class="st1" d="M186.1,121.2c-.5-.2-.9-.4-1.3-.6-.2-.1-.5-.3-.7-.4.4.2,1.9.8,4,.8v-10l-1.1-3.7,1.1,3.7-4.3-.3-1,5.4c.2,0,.3,0,.5,0h-.5v.7c-1-.2-1.7-.4-2.3-.7h-1c.5.8,1,1.5,1.6,2.1,1.4.8,3.1,1.2,4.7,1.2h-3.3c.3.2.6.4.9.5-.2-.1-.6-.3-.8-.4-.2,0-.3-.1-.4-.2h-11l1.2-3.2h-25.6l13.7-8.2-43.9-13.5h58.3c0,.1,2.8-2.4,2.8-2.4l.4-3.9h4c1-.7,2.2-1.3,3.8-1.7l13.9-3-.4,3.2,6.2-.6-1.3,8.3c.2.4.5.7.7,1.1l2.9,5-1.7,2.9c0,.2.2.5.2.7,0,0,0,0,0,0,.3.8.4,1.7.4,2.4l4.1,6.2-6.8,3.2,1.4,3.1-6.1.9v6c0,0-13.4-4.9-13.4-4.9ZM192.1,112h0ZM195.9,106.1h0Z"/>
        <path class="st1" d="M186.1,121.2c-.5-.2-.9-.4-1.3-.6-.2-.1-.5-.3-.7-.4.4.2,1.9.8,4,.8v-10l-1.1-3.7,1.1,3.7-4.3-.3-1,5.4c.2,0,.3,0,.5,0h-.5v.7c-1-.2-1.7-.4-2.3-.7h-1c.5.8,1,1.5,1.6,2.1,1.4.8,3.1,1.2,4.7,1.2h-3.3c.3.2.6.4.9.5-.2-.1-.6-.3-.8-.4-.2,0-.3-.1-.4-.2h-11l1.2-3.2h-25.6l13.7-8.2-43.9-13.5h58.3c0,.1,2.8-2.4,2.8-2.4l.4-3.9h4c1-.7,2.2-1.3,3.8-1.7l13.9-3-.4,3.2,6.2-.6-1.3,8.3c.2.4.5.7.7,1.1l2.9,5-1.7,2.9c0,.2.2.5.2.7,0,0,0,0,0,0,.3.8.4,1.7.4,2.4l4.1,6.2-6.8,3.2,1.4,3.1-6.1.9v6c0,0-13.4-4.9-13.4-4.9ZM192.1,112h0ZM195.9,106.1h0Z"/>
      </g>
      <g>
        <path class="st1" d="M220.5,120.5s0,0,0,0c0,0,0,0,0,0h0c-1.3-.4-2.8-1.1-4.1-2.1h-6.8l.3-2.5-2.4-.6.2-.7h-27l9.1-5.3h-5.1l28.7-18.4s.5-.3.7-.5c-.6.4-1.1.9-1.6,1.5h3c.5-.2,1-.4,1.5-.5l-1.2-1.8c.4-.3.9-.6,1.5-.8-.2,0-.4.1-.5.2.2,0,.4-.2.6-.2.2,0,.6-.2,1-.4,1-.4,2.1-.6,3-.8l9.3-11.6,3.7,12h5.7l-.2,2.9h63.5l-54.4,15.2,2.5,3.1h-9c0,0-1.5.8-1.5.8v.2s.8,2.5.8,2.5l-1.1.6-.4,3.9h-4.2c0,0-2.4,2.5-2.4,2.5h-1.4s-.2,1.2-.2,1.2c0,0-8.3,0-8.3,0h-1.9s-1.3-.5-1.3-.5Z"/>
        <path class="st1" d="M220.5,120.5s0,0,0,0c0,0,0,0,0,0h0c-1.3-.4-2.8-1.1-4.1-2.1h-6.8l.3-2.5-2.4-.6.2-.7h-27l9.1-5.3h-5.1l28.7-18.4s.5-.3.7-.5c-.6.4-1.1.9-1.6,1.5h3c.5-.2,1-.4,1.5-.5l-1.2-1.8c.4-.3.9-.6,1.5-.8-.2,0-.4.1-.5.2.2,0,.4-.2.6-.2.2,0,.6-.2,1-.4,1-.4,2.1-.6,3-.8l9.3-11.6,3.7,12h5.7l-.2,2.9h63.5l-54.4,15.2,2.5,3.1h-9c0,0-1.5.8-1.5.8v.2s.8,2.5.8,2.5l-1.1.6-.4,3.9h-4.2c0,0-2.4,2.5-2.4,2.5h-1.4s-.2,1.2-.2,1.2c0,0-8.3,0-8.3,0h-1.9s-1.3-.5-1.3-.5Z"/>
      </g>
    </g>
    <g id="DqjYR22" data-name="DqjYR2">
      <g>
        <path class="st0" d="M232,86.8c.3,0-1.5,1.1-1.5,1,0,0,1,1.6,1,1.6,0,0,.5,1.3.3,1.3.2,0-1,1.4-.8,1.4-.1,0,.4,1.4.3,1.4.1,0-1.2-.7-1.4-.8.2,0-1.5-.6-1.3-.6-.1,0-1.3,1.3-1.5,1.2.3,0-1.1,0-1.2,0,0,0-1.3-.2-1-.3-.3,0-1.7.2-1.4.1-.2,0-1.6.9-1.6.9,0,0-1.4-1.4-1.6-1.3.1,0-1.1,1.2-1.4,1.2.3,0-1.1-.7-1.1-.6,0,0-1.5-.1-1.7,0,.2,0-1.1.7-1.1.8,0,0-1.4-.2-1.1-.2-.3,0-1.6-1.2-1.7-1.2,0,0-1.4-.6-1.5-.7,0,.1-1,2.2-.7,2.1-.3,0-1.9,0-1.7,0-.2,0-1.7,0-1.9-.1.2,0-1-1.1-1.1-1.1,0,0-1.4-.2-1-.3-.3.1-1.7,1.2-1.4,1.2-.2,0-1.6.2-1.8.1.3,0-1.3-.7-1.5-.8.2,0-1.1.8-1.1.7,0,0-1.4-.7-1.1-.7-.3,0-1.7.3-1.5.3-.2,0-1.7.4-1.7.3,0,0-1.4,0-1.7,0,.3,0-1.1-1.4-1.2-1.3,0,0-1.2,1.3-1.1,1.3-.1,0-1.2-1.5-1-1.6-.2,0-1.8,0-1.5,0-.3.1-1.8,0-1.9,0,.1,0-1.4-.8-1.6-.8.2,0-.3-1.5-.2-1.6,0,0-1.7-.8-1.8-.9,0,0,1.1-1.9.8-1.9.3,0,.6-1.2.2-1.2.3,0,.4-1,.1-1,.3,0,0-1.4-.1-1.3,0,0,0-1.6,0-1.6,0,0,2,0,2.2,0-.2,0,0-1.7,0-1.7,0,0,1.3-.8,1-.9.3,0,.6-1.1.7-1.2,0,0-.2-1.5-.4-1.6.2,0,2-.6,2.1-.5,0,0-.5-1.5-.3-1.5-.3,0-1.4-1.1-1.6-1,.2,0,.3-1.6.5-1.7-.2.1-1.7-.7-1.9-.6.2,0,1.2-1.7,1.1-1.6,0,0-1.8-.9-1.6-1-.2,0,0-1.6.1-1.6,0,0-1-1-.7-1-.3,0-1.3-.9-1.5-.9.2,0-.7-1.1-.7-1.2,0,0,.3-1.5.6-1.6-.3,0-1.4-.9-1.3-.9,0,0,.4-1.6.1-1.6.3,0-.5-1.3-.3-1.2-.2,0-.8-1.1-1.1-1,.3,0-.4-1.3-.6-1.3.3,0-1-.9-.8-.9-.1,0,0-1.5.2-1.5-.3,0-1.5-1.1-1.8-1.1.3,0-.2-1.2-.5-1.2.3,0,.3-1.3.5-1.2-.2,0-.2-1.7,0-1.7-.2,0-1.9-.3-1.9-.4,0,0-1.5.3-1.5.3,0,0-1.3-.3-1.3-.2,0,0-1.5,1.2-1.2,1.2-.2,0-1.7-.6-1.7-.6,0,0,.6-1.5.6-1.4,0,0-.6-1.3-.8-1.3.2,0,1-1.4,1.2-1.5-.2,0-.5-1.4-.5-1.5,0,0-.7-1.4-.4-1.3-.3,0,1.3,0,1.4,0,0,0,1-.3,1.2-.4-.1,0,1.3,0,1.3,0,0,0,1.3,1.3,1.5,1.2-.2,0,1-1.2,1.1-1.2,0,0,1.3.1,1.1.2.2,0,1.4,0,1.3,0,.1,0,1.4-1.1,1.4-1.1,0,0,.8,2.1,1.1,2.1-.3,0,1.9.2,1.6.2.3,0,0,1.6,0,1.5,0,0,.2,1.6,0,1.7,0,0,.3,1.4.3,1.4,0,0,.7,1.9.9,1.9-.1,0,1.6-1.7,1.4-1.8.2,0,1.3,2.2,1.1,2.3.1,0,1.7-1,2-1-.3,0,1.1.8,1.3.8-.2,0,1.1,0,1.1,0,0,0,1.3-.6,1.1-.6.2,0,1.4-1.4,1.2-1.3.1,0,1.8,1.3,2.1,1.3-.3,0,1-.3.7-.3.3,0,1.7-1.2,1.6-1.3,0,0,1.3,1.2,1.4,1.2,0,0,1.4-.2,1.4-.1,0,0,1.3,1.2,1.5,1.2-.2,0,1.3-.4,1.4-.5-.2,0,1-.9.9-.8,0-.1,1.5-.5,1.2-.4.3,0,1.9-.3,2.1-.4-.3,0,.8,2,1,1.9-.2,0,1.3-.1,1.2-.2.1,0,1.4-.4,1.5-.5,0,0,1.3-.5,1.2-.4,0,0,1.5-.4,1.6-.3-.1,0,1.2.4,1.1.3.2,0,1.6-.2,1.8,0-.2-.1,1.2.4,1.4.4-.2,0,1.1.8.8.7.3,0,1.9.4,2,.5-.2-.1,1-2.1.9-2.1.1,0,1.5,1.8,1.6,1.8,0,0,1.3-1.4,1.5-1.5-.2,0,1.3-.6,1.4-.7,0,0,1.1.6,1,.6,0,0,1.5-.5,1.5-.5,0,0,1.3,1.9,1.3,1.8,0,0,1.6-.3,1.6-.2,0,0,1.2-1.6,1-1.5.1,0,1.8,0,1.9,0-.1,0,.2,2.3-.2,2.4.3-.1,1.8-.6,1.6-.6.2,0,1.5.6,1.6.6-.1,0,0,1.4.4,1.5-.3,0-.5,1.1-.2,1.2-.2,0-.5,1.2-.4,1.2,0,0-1.1,1-.9.9-.2,0,.3,2,.2,2,.2,0-2.6-.3-2.9-.4.3,0,1.2,2.2,1.5,2.2-.3,0-2.1.5-1.8.5-.3,0-.7,1.4-.8,1.4,0,0,0,1.4-.3,1.4.3,0,.3,1.5.3,1.6,0,0-1.1,1.1-1.3,1.1.2,0-.7.9-.4.8-.3.1-.4,1.6-.3,1.5,0,0-1.7.7-1.9.7.2,0-.3,1.3-.4,1.4,0,0,.2,1.5.5,1.6-.3,0-.8,1.1-.8,1.1,0,0-.9,1.1-.6,1.2-.3,0-1.2,1.1-1.5,1,.3,0-1.4.5-1.3.5,0,0,.8,1.9,1,1.8-.2,0-1.3,1.4-1.4,1.4,0,0-1.5.5-1.8.6.3,0-1.1.1-.9.2-.2,0-1.3,1.5-1.4,1.5,0,0-1.5,0-1.3,0-.2,0-1.5-.6-1.6-.6,0,0-1.3.7-1.3.7,0,0-1.5-1.2-1.7-1.2.2,0-1,1.5-1.1,1.5.1,0-1.1-1.7-.8-1.7-.3,0-1.9.2-1.7.2-.2,0-1.5.5-1.6.5.1,0-1.2,1-1.1,1-.1,0-1.4-.9-1.3-.9,0,0-1.4-.3-1.6-.3.2,0-1.2.4-1.4.3.2,0-1.1,1-1.2,1,.1,0-1-1.9-.7-1.9-.3,0-1.8,1.3-1.7,1.4-.1,0-1.5-.6-1.7-.5.2,0-1.1-.5-1.1-.5,0,0-1.5,0-1.8,0,.3,0-1,.6-1.1.5.1,0-1.3,0-1.7,0,.3,0-.9.8-1.2.7.3,0-.7,1.2-.5,1.3-.3,0,.3,1.5.2,1.6.1,0-1.6.2-2,.2.3,0,.4,1.8.5,1.8-.1,0-.9,1.2-1.2,1.1.3,0,.6.9.5.9,0,0,1.3-1.4,1.2-1.4,0,0,1.6,0,1.5,0,.1,0,1.5,1,1.7.9-.3,0,1.2-.5,1.2-.6,0,0,1.4.9,1.3.9.1,0,1.5-1.2,1.5-1.1,0,0,1.3.7,1.2.7,0,0,1.5-.4,1.2-.5.3.1,1.7-.3,1.9-.3-.2,0,1.3.3,1.6.2-.3,0,.9,0,.6,0,.3,0,1.7,1.3,2,1.2-.3,0,1-1.5,1.3-1.6-.3,0,1.2.5,1.2.6,0-.1,1.4.8,1.1.8.3,0,1.7-1,1.5-1.1.1.1,1.6,0,1.8,0-.2,0,1.1.5,1.4.6-.3,0,1-.5.8-.4.2,0,1.7-.4,1.9-.5-.2,0,1.2,1.1.9,1.1.2,0,1.8-1.1,1.9-1.1-.1,0,1.2.9,1.1.9,0,0,1.4.9,1.1.8.3,0,1.7-.7,1.8-.7-.1,0,1.3,0,1.5-.2-.2,0,1.1.4.9.5.3,0,1.7-.8,1.9-.8-.3,0,1,1.4,1,1.5,0-.1,1.5-1,1.4-1.1,0,.1,1.1.1.8,0Z"/>
        <path class="st0" d="M232,86.8c.3,0-1.5,1.1-1.5,1,0,0,1,1.6,1,1.6,0,0,.5,1.3.3,1.3.2,0-1,1.4-.8,1.4-.1,0,.4,1.4.3,1.4.1,0-1.2-.7-1.4-.8.2,0-1.5-.6-1.3-.6-.1,0-1.3,1.3-1.5,1.2.3,0-1.1,0-1.2,0,0,0-1.3-.2-1-.3-.3,0-1.7.2-1.4.1-.2,0-1.6.9-1.6.9,0,0-1.4-1.4-1.6-1.3.1,0-1.1,1.2-1.4,1.2.3,0-1.1-.7-1.1-.6,0,0-1.5-.1-1.7,0,.2,0-1.1.7-1.1.8,0,0-1.4-.2-1.1-.2-.3,0-1.6-1.2-1.7-1.2,0,0-1.4-.6-1.5-.7,0,.1-1,2.2-.7,2.1-.3,0-1.9,0-1.7,0-.2,0-1.7,0-1.9-.1.2,0-1-1.1-1.1-1.1,0,0-1.4-.2-1-.3-.3.1-1.7,1.2-1.4,1.2-.2,0-1.6.2-1.8.1.3,0-1.3-.7-1.5-.8.2,0-1.1.8-1.1.7,0,0-1.4-.7-1.1-.7-.3,0-1.7.3-1.5.3-.2,0-1.7.4-1.7.3,0,0-1.4,0-1.7,0,.3,0-1.1-1.4-1.2-1.3,0,0-1.2,1.3-1.1,1.3-.1,0-1.2-1.5-1-1.6-.2,0-1.8,0-1.5,0-.3.1-1.8,0-1.9,0,.1,0-1.4-.8-1.6-.8.2,0-.3-1.5-.2-1.6,0,0-1.7-.8-1.8-.9,0,0,1.1-1.9.8-1.9.3,0,.6-1.2.2-1.2.3,0,.4-1,.1-1,.3,0,0-1.4-.1-1.3,0,0,0-1.6,0-1.6,0,0,2,0,2.2,0-.2,0,0-1.7,0-1.7,0,0,1.3-.8,1-.9.3,0,.6-1.1.7-1.2,0,0-.2-1.5-.4-1.6.2,0,2-.6,2.1-.5,0,0-.5-1.5-.3-1.5-.3,0-1.4-1.1-1.6-1,.2,0,.3-1.6.5-1.7-.2.1-1.7-.7-1.9-.6.2,0,1.2-1.7,1.1-1.6,0,0-1.8-.9-1.6-1-.2,0,0-1.6.1-1.6,0,0-1-1-.7-1-.3,0-1.3-.9-1.5-.9.2,0-.7-1.1-.7-1.2,0,0,.3-1.5.6-1.6-.3,0-1.4-.9-1.3-.9,0,0,.4-1.6.1-1.6.3,0-.5-1.3-.3-1.2-.2,0-.8-1.1-1.1-1,.3,0-.4-1.3-.6-1.3.3,0-1-.9-.8-.9-.1,0,0-1.5.2-1.5-.3,0-1.5-1.1-1.8-1.1.3,0-.2-1.2-.5-1.2.3,0,.3-1.3.5-1.2-.2,0-.2-1.7,0-1.7-.2,0-1.9-.3-1.9-.4,0,0-1.5.3-1.5.3,0,0-1.3-.3-1.3-.2,0,0-1.5,1.2-1.2,1.2-.2,0-1.7-.6-1.7-.6,0,0,.6-1.5.6-1.4,0,0-.6-1.3-.8-1.3.2,0,1-1.4,1.2-1.5-.2,0-.5-1.4-.5-1.5,0,0-.7-1.4-.4-1.3-.3,0,1.3,0,1.4,0,0,0,1-.3,1.2-.4-.1,0,1.3,0,1.3,0,0,0,1.3,1.3,1.5,1.2-.2,0,1-1.2,1.1-1.2,0,0,1.3.1,1.1.2.2,0,1.4,0,1.3,0,.1,0,1.4-1.1,1.4-1.1,0,0,.8,2.1,1.1,2.1-.3,0,1.9.2,1.6.2.3,0,0,1.6,0,1.5,0,0,.2,1.6,0,1.7,0,0,.3,1.4.3,1.4,0,0,.7,1.9.9,1.9-.1,0,1.6-1.7,1.4-1.8.2,0,1.3,2.2,1.1,2.3.1,0,1.7-1,2-1-.3,0,1.1.8,1.3.8-.2,0,1.1,0,1.1,0,0,0,1.3-.6,1.1-.6.2,0,1.4-1.4,1.2-1.3.1,0,1.8,1.3,2.1,1.3-.3,0,1-.3.7-.3.3,0,1.7-1.2,1.6-1.3,0,0,1.3,1.2,1.4,1.2,0,0,1.4-.2,1.4-.1,0,0,1.3,1.2,1.5,1.2-.2,0,1.3-.4,1.4-.5-.2,0,1-.9.9-.8,0-.1,1.5-.5,1.2-.4.3,0,1.9-.3,2.1-.4-.3,0,.8,2,1,1.9-.2,0,1.3-.1,1.2-.2.1,0,1.4-.4,1.5-.5,0,0,1.3-.5,1.2-.4,0,0,1.5-.4,1.6-.3-.1,0,1.2.4,1.1.3.2,0,1.6-.2,1.8,0-.2-.1,1.2.4,1.4.4-.2,0,1.1.8.8.7.3,0,1.9.4,2,.5-.2-.1,1-2.1.9-2.1.1,0,1.5,1.8,1.6,1.8,0,0,1.3-1.4,1.5-1.5-.2,0,1.3-.6,1.4-.7,0,0,1.1.6,1,.6,0,0,1.5-.5,1.5-.5,0,0,1.3,1.9,1.3,1.8,0,0,1.6-.3,1.6-.2,0,0,1.2-1.6,1-1.5.1,0,1.8,0,1.9,0-.1,0,.2,2.3-.2,2.4.3-.1,1.8-.6,1.6-.6.2,0,1.5.6,1.6.6-.1,0,0,1.4.4,1.5-.3,0-.5,1.1-.2,1.2-.2,0-.5,1.2-.4,1.2,0,0-1.1,1-.9.9-.2,0,.3,2,.2,2,.2,0-2.6-.3-2.9-.4.3,0,1.2,2.2,1.5,2.2-.3,0-2.1.5-1.8.5-.3,0-.7,1.4-.8,1.4,0,0,0,1.4-.3,1.4.3,0,.3,1.5.3,1.6,0,0-1.1,1.1-1.3,1.1.2,0-.7.9-.4.8-.3.1-.4,1.6-.3,1.5,0,0-1.7.7-1.9.7.2,0-.3,1.3-.4,1.4,0,0,.2,1.5.5,1.6-.3,0-.8,1.1-.8,1.1,0,0-.9,1.1-.6,1.2-.3,0-1.2,1.1-1.5,1,.3,0-1.4.5-1.3.5,0,0,.8,1.9,1,1.8-.2,0-1.3,1.4-1.4,1.4,0,0-1.5.5-1.8.6.3,0-1.1.1-.9.2-.2,0-1.3,1.5-1.4,1.5,0,0-1.5,0-1.3,0-.2,0-1.5-.6-1.6-.6,0,0-1.3.7-1.3.7,0,0-1.5-1.2-1.7-1.2.2,0-1,1.5-1.1,1.5.1,0-1.1-1.7-.8-1.7-.3,0-1.9.2-1.7.2-.2,0-1.5.5-1.6.5.1,0-1.2,1-1.1,1-.1,0-1.4-.9-1.3-.9,0,0-1.4-.3-1.6-.3.2,0-1.2.4-1.4.3.2,0-1.1,1-1.2,1,.1,0-1-1.9-.7-1.9-.3,0-1.8,1.3-1.7,1.4-.1,0-1.5-.6-1.7-.5.2,0-1.1-.5-1.1-.5,0,0-1.5,0-1.8,0,.3,0-1,.6-1.1.5.1,0-1.3,0-1.7,0,.3,0-.9.8-1.2.7.3,0-.7,1.2-.5,1.3-.3,0,.3,1.5.2,1.6.1,0-1.6.2-2,.2.3,0,.4,1.8.5,1.8-.1,0-.9,1.2-1.2,1.1.3,0,.6.9.5.9,0,0,1.3-1.4,1.2-1.4,0,0,1.6,0,1.5,0,.1,0,1.5,1,1.7.9-.3,0,1.2-.5,1.2-.6,0,0,1.4.9,1.3.9.1,0,1.5-1.2,1.5-1.1,0,0,1.3.7,1.2.7,0,0,1.5-.4,1.2-.5.3.1,1.7-.3,1.9-.3-.2,0,1.3.3,1.6.2-.3,0,.9,0,.6,0,.3,0,1.7,1.3,2,1.2-.3,0,1-1.5,1.3-1.6-.3,0,1.2.5,1.2.6,0-.1,1.4.8,1.1.8.3,0,1.7-1,1.5-1.1.1.1,1.6,0,1.8,0-.2,0,1.1.5,1.4.6-.3,0,1-.5.8-.4.2,0,1.7-.4,1.9-.5-.2,0,1.2,1.1.9,1.1.2,0,1.8-1.1,1.9-1.1-.1,0,1.2.9,1.1.9,0,0,1.4.9,1.1.8.3,0,1.7-.7,1.8-.7-.1,0,1.3,0,1.5-.2-.2,0,1.1.4.9.5.3,0,1.7-.8,1.9-.8-.3,0,1,1.4,1,1.5,0-.1,1.5-1,1.4-1.1,0,.1,1.1.1.8,0Z"/>
      </g>
      <g>
        <path class="st0" d="M189.6,97.5c0,0,1.2,0,1.1,0,0,0,1.2,1,1.2,1,0,0,1.6-1.2,1.7-1.2,0,0,1.4.8,1.5.8,0,0,.5,1.5.5,1.5,0,0,.7,1,.7,1,0,0,.7,1.2.7,1.2,0,0-.6,1.3-.7,1.3,0,0,.5,1.4.5,1.4,0,0-.5,1.2-.6,1.2,0,0,.7,1.5.6,1.6,0,0-.6,1.5-.6,1.5,0,0-1.4.9-1.4.9,0,0-1.8-.3-1.9-.3,0,0-.9.9-.9.9,0,0-1,1.1-1,1.1,0,0-1.6.5-1.5.5,0,0-1.5-.7-1.5-.7,0,0-1.4-.7-1.4-.7,0,0-.8-1-.8-1,0,0-.8-1.2-.8-1.2,0,0-.6-1.2-.6-1.2,0,0-1.2-.9-1.3-.8,0,0,.4-1.6.4-1.6,0,0,.3-1.2.3-1.2,0,0,.2-1.3.2-1.3,0,0-.3-1.6-.3-1.6,0,0,1.7-.5,1.7-.5,0,0,.3-1.5.3-1.5,0,0,1.5-.2,1.5-.2,0,0,.8-1.9.8-1.9,0,0,1.5,1.3,1.6,1.3Z"/>
        <path class="st0" d="M189.6,97.5c0,0,1.2,0,1.1,0,0,0,1.2,1,1.2,1,0,0,1.6-1.2,1.7-1.2,0,0,1.4.8,1.5.8,0,0,.5,1.5.5,1.5,0,0,.7,1,.7,1,0,0,.7,1.2.7,1.2,0,0-.6,1.3-.7,1.3,0,0,.5,1.4.5,1.4,0,0-.5,1.2-.6,1.2,0,0,.7,1.5.6,1.6,0,0-.6,1.5-.6,1.5,0,0-1.4.9-1.4.9,0,0-1.8-.3-1.9-.3,0,0-.9.9-.9.9,0,0-1,1.1-1,1.1,0,0-1.6.5-1.5.5,0,0-1.5-.7-1.5-.7,0,0-1.4-.7-1.4-.7,0,0-.8-1-.8-1,0,0-.8-1.2-.8-1.2,0,0-.6-1.2-.6-1.2,0,0-1.2-.9-1.3-.8,0,0,.4-1.6.4-1.6,0,0,.3-1.2.3-1.2,0,0,.2-1.3.2-1.3,0,0-.3-1.6-.3-1.6,0,0,1.7-.5,1.7-.5,0,0,.3-1.5.3-1.5,0,0,1.5-.2,1.5-.2,0,0,.8-1.9.8-1.9,0,0,1.5,1.3,1.6,1.3Z"/>
      </g>
      <g>
        <path class="st0" d="M224,96.1s1.2,1.4,1.3,1.4c0,0,1.4-.5,1.4-.5,0,0,1.5.4,1.4.4,0,0,1.1.6,1.2.6,0,0,1.2,1,1.2,1,0,0-.2,1.9-.2,1.8,0,0,1.4.8,1.4.8,0,0,.4,1.4.4,1.4,0,0-.9,1.3-.9,1.2,0,0-.2,1.4-.1,1.4,0,0,.2,1.4.2,1.4,0,0-1.4.9-1.4.9,0,0-.3,1.6-.4,1.7,0,0-1.4.4-1.4.5,0,0-1.4-.4-1.5-.5,0,0-1.2.3-1.3.3,0,0-1.3,1-1.4,1,0,0-1.1-.4-1.1-.4,0,0-1.7-.2-1.7-.1,0,0-.2-2.1-.2-2.1,0,0-1.3-.5-1.4-.5,0,0-1.3-.6-1.3-.6,0,0,.5-1.7.5-1.7,0,0-1-1.1-1-1.1,0,0,.2-1.4.2-1.4,0,0,0-1.3.1-1.3,0,0,1.4-.8,1.4-.8,0,0-.5-1.8-.5-1.8,0,0,1.4-.9,1.3-.9,0,0,1.3-.5,1.3-.5,0,0,1.3-.4,1.3-.4,0,0,1.7.4,1.7.3,0,0-.4-1.7-.4-1.7Z"/>
        <path class="st0" d="M224,96.1s1.2,1.4,1.3,1.4c0,0,1.4-.5,1.4-.5,0,0,1.5.4,1.4.4,0,0,1.1.6,1.2.6,0,0,1.2,1,1.2,1,0,0-.2,1.9-.2,1.8,0,0,1.4.8,1.4.8,0,0,.4,1.4.4,1.4,0,0-.9,1.3-.9,1.2,0,0-.2,1.4-.1,1.4,0,0,.2,1.4.2,1.4,0,0-1.4.9-1.4.9,0,0-.3,1.6-.4,1.7,0,0-1.4.4-1.4.5,0,0-1.4-.4-1.5-.5,0,0-1.2.3-1.3.3,0,0-1.3,1-1.4,1,0,0-1.1-.4-1.1-.4,0,0-1.7-.2-1.7-.1,0,0-.2-2.1-.2-2.1,0,0-1.3-.5-1.4-.5,0,0-1.3-.6-1.3-.6,0,0,.5-1.7.5-1.7,0,0-1-1.1-1-1.1,0,0,.2-1.4.2-1.4,0,0,0-1.3.1-1.3,0,0,1.4-.8,1.4-.8,0,0-.5-1.8-.5-1.8,0,0,1.4-.9,1.3-.9,0,0,1.3-.5,1.3-.5,0,0,1.3-.4,1.3-.4,0,0,1.7.4,1.7.3,0,0-.4-1.7-.4-1.7Z"/>
      </g>
    </g>
  </g>
</svg>