<?xml version="1.0" encoding="UTF-8"?>
<svg id="CONTEN_IDO" xmlns="http://www.w3.org/2000/svg" version="1.1" viewBox="0 0 408.3 157.3">
  <!-- Generator: Adobe Illustrator 30.2.1, SVG Export Plug-In . SVG Version: 2.1.1 Build 1)  -->
  <defs>
    <style>
      .st0 {
        fill: gray;
      }

      .st1 {
        fill: #d3d5d6;
      }
    </style>
  </defs>
  <g>
    <path class="st1" d="M148.8,106.7c-.2,0-.5,0-.7,0-.4,0-.8-.1-1.2-.2-1.5-.3-3.8-1.1-5.6-3-1.3-1.3-2.2-3-2.5-4.9,0-.2-.1-.5-.2-.7,0-.1,0-.3,0-.4,0,0,0,.3.2.5,0-.5,0-.9,0-1.4v-4.2c0,0-1.5-.9-1.5-.9l2-7.5c0-.3.2-.6.3-.9,0,.2,0,.4,0,.6,0,.6.1,1.2.3,1.7h.2c.3.5.6,1,.9,1.5.5-.9,1.2-1.7,2-2.4.3.2.5.5.8.7.4-.2.8-.5,1.2-.7-.2-.1-.4-.2-.6-.4l1.9-.6-.2.5c.4-.2.9-.3,1.3-.4v.5c.1,0,.4-.5.4-.5,0,0,.2,0,.3,0v-.5s0,0,0,0h.4v-.8h0s-.3-.6-.3-.6v-1.4s-.4.2-.4.2l-.2.4v-.2c-.1,0-1.5.7-1.5.7l-.9-.4-.5.9c-.1,0-.3-.2-.4-.3l.5-.8h-.3c0-.1.4-.3.4-.3-.6-.3-1.2-.7-1.7-1.1-.3.1-.5.3-.7.5h-.3c0-.2-.1-.3-.2-.4.2-.2.4-.4.7-.6,0,0,0,0,0,0,.5-.5,1.1-1,1.7-1.4h-2.1c-.2.2-.3.4-.4.5-.1-.2-.3-.4-.4-.5h-.7c0-.2-.2-.4-.2-.5,0,.2,0,.4,0,.5h0c0,.5,0,1.1,0,1.7h0c-.5,1.4-.7,2.6-.7,3.7-.1-.4-.2-.8-.3-1.2,0,.2,0,.4,0,.4v-.2c-.3-1.7-.2-3.2,0-4.5h-2.4l1.4-5-1.2-2.3,1.7-2.9c0-.4,0-.8,0-1.2v-2.3c.1.2.2.4.3.6,0-.4.2-.8.3-1.2v-1c0,.2,0,.4.2.5.2-.6.5-1.2.8-1.8,0,0,0,0,0,0-.1-.2-.2-.5-.4-.7h0c.1.2.2.4.4.6.2-.5.3-.9.5-1.2l.8-.5c.5-.6,1.1-1.2,1.7-1.7l-.6-.7.9.5c.3-.2.5-.4.8-.6l-.5.2-.6-1.6.7-1.2,1.9,1.5.3-.5-.7-1.2h.6s-.6,0-.6,0l-.5-.9c-.1,0-.2,0-.3.1,0-.2,0-.4,0-.6l-.4-.8c-.7.3-1.3.6-1.9,1.1l-.2-.6c-.1,0-.2.2-.3.3l.5.4c-1.1.8-2,1.8-2.7,2.9-.2.3-.4.7-.5,1.2,0,0,0,0,0,0,0,0,0,0,0,0,0,0,0,0,0,0h0c.3-4.5,2.8-7.6,5.9-9l.8-1.1.5.6c.4-.1.9-.2,1.3-.3h0s0,0,0,0c.1,0,.3,0,.4,0v-.2c0-.1.2-.2.4-.3,0,0,0-1,0-1-.4,0-.8,0-1.2,0v.2c-.3.1-.6.2-.9.4l.3-.4c-2,.4-3.3,1.3-3.6,1.5h.1c.7-.6,1.9-1.6,3.9-2.1l1-1.4h4.7c.1,0,.3,0,.4,0h.8l7.5-14.8,7,19.2,2.9,1.1v.5c0,0,50.5,0,50.5,0l-51.2,17.2c0,.3,0,.7,0,1.1l3.6,1.3,1-.9.3,1.4,1,.4,1.7-3.3,3.1,5.1,13.3,4.9h48.3l-28.1,7.4,2.4.9h-5.8s-20.2,5.3-20.2,5.3v1.5c0,.3,0,.6-.1,1-.1,1.1-.5,2.4-1.3,3.7l-.6,2c.2-.5.3-1.1.4-1.5-.2.2-.3.5-.5.7,0,0,0,0,0,0-.5.6-1,1.2-1.6,1.8,0,0,0,0,0,0l-2.2-.3c1-.4,1.8-1,2.5-1.6h-4.2c0,0,.5,1.4.5,1.4l-2.9-.5v-1.1s-1.1,0-1.1,0v.9s-.4,0-.4,0l-.5,1.4v3.1c0,0-1.1,0-1.1,0l-.2.6.6,1.3s0,0,0,0h0c0,0,.5,1,.5,1,0,0,.1,0,.2,0v.4s.1.3.1.3l-.6.3-.7.2-.3-.9c.3,0,.6,0,.9-.2l-.4-.8h0c-.2.2-.4.4-.6.6l-.2-.6-.4,1s0,0,0,0c0,0,0,0,0,0l-.6,1.6s-7,0-7,0c-.7,0-1.4,0-2-.2.2,0,.4.1.6.2h-.3c-.2-.1-.5-.2-.7-.3h-5.6c-.9.2-1.9.3-2.9.3h-1.1s-1-.2-1-.2h-.4c0,0-.5-.2-.5-.2l.2-.6c.3,0,.5,0,.8-.1v-.7c-.1.2-.4.3-.7.5l.3-1c-.6-.4-1.1-.8-1.6-1.3v-5l1.6-.5-.9-1-.8.2v-.5h0v.5l-1.1.4v1.3c0,0,1.1-.4,1.1-.4v5c-.5-.5-1-1.1-1.4-1.7v1.7c-.1,0-1.4-3-1.4-3l.4,1.6-1.3.3h-.8c.7,1.1,1.6,2,2.5,2.7h-.1c-1.2-.9-2.1-1.8-2.8-2.7h-.9s0,1.4,0,1.4c1,1,2.3,1.9,4.1,2.2v1.1c-1,0-2.5-.4-4.1-1.1,0,0,0,1.1,0,1.1,0,0-.2,0-.4,0,.2,0,.4,0,.5,0ZM157.7,105.1l1.2-2.1c-.4.4-.8.8-1.2,1.1v1ZM177.3,103.6l-.6-1.7h-.2v.6l.7,1.1ZM162.3,97h0c0,0-.1-1-.1-1h-.2s-.1.5-.1.5l.4.5h0ZM147.9,86.2v-1.5c-.1,0-.3,0-.4,0l.4,1.5ZM157.2,77.6h0ZM153.7,54.1h0c0,0-.3-.1-.3-.1h.2Z"/>
    <path class="st1" d="M211.1,107.1v-.3s-6.5,0-6.5,0l-.5-3.9c-.7-.6-1.3-1.4-1.8-2.4.1.3.2.5.3.8v-.2c-.3-.4-.5-.8-.6-1.1-.2-.4-.4-.8-.6-1.2h0c-.4,1-.9,1.9-1.5,2.6-.6.8-1.4,1.5-2.2,2.2h0s0,0,0,0c-.2.2-.4.3-.6.4l-.9-1.3c-1.4,1.6-3.4,2.8-5.8,3.6l-.4-1.1v1.5c-1.3,0-2.4-.4-3.5-.8v.9c.2,0,.4,0,.6,0-.2,0-.5,0-.6,0h0c-.3,0-1.1,0-1.6,0s-.7,0-1.1,0h-7.4s0-.9,0-.9h-.1l-2.7-2.9c-.2-.2-.3-.4-.5-.5l-2.8-3v-1.4c.1,0-.2-.2-.2-.2l.5-2.2c0,.1,0,.2,0,.3v-1c0,0,1.3.1,1.3.1l-.2-5.1h0c.1-.6.2-1.1.4-1.5-.2.2-.3.4-.5.7v-1.4c0,0,.9-.2.9-.2.3-.7.7-1.3,1.2-1.8,0,.3-.2.7-.2,1.1,0,0,0,.2,0,.3-.1.1-.3.2-.4.4h.3c-.2,1-.1,2.1.2,3.4l1-.2v-.3c0,0,1.4-.5,1.4-.5v-2.5c0,0,.1,0,.1,0,.2.4.4.7.6,1.1l1.1-.6c-.1-.2-.2-.3-.3-.5h.5c0,0,.2.2.3.2l.5-.3h1.2c-.1-.2-.3-.3-.4-.5h0s-.2-.1-.2-.1c-.1-.1-.2-.3-.4-.4l.8-.2h0s0,.4,0,.4h0v-.4h0s0,0,0,0h.4c-.2-.2-.3-.3-.4-.5v-1.1s-.6-1.1-.6-1.1c-.4,0-.8,0-1.1.1-.1-.2-.3-.5-.4-.7.3-.1.7-.2,1-.3h0c0,0,0-.2,0-.2,0,0,0,0,0,0h0c0-.1,0,0,0,0l-.5-1h0c-.2,0-.4.2-.7.4l-.4-.6c0-.2-.1-.3-.2-.5h-.2c0-.1-.1-.1-.1-.1h0c0,0-.1-.2-.1-.2,0,0,0,0,0,0h0s0,0,0,0c0,0,0,.1,0,.2h-.3c-1.3,1.3-2.1,2.9-2.4,4.2v-.2c.2-.7.5-2.3,1.6-4h-.9l1.4-1.1-.6-.9,1.5-4,1.1-6.3-22.9-10.4h28.6c0,0,0-.2,0-.4l.9-8.1h2.9c.9-1.3,2-2.4,3.3-3.2l1.4-.8.8-.2,1-1.5h5c0,0,.1,0,.2,0l6.3-15.2,7.3,16.5h.7c0,0,0,.3,0,.3l2.5.7.3,1.8h71.1l-36,9.4-14.9,6.2h6.4l-16.4,7.8,23.3,9.7h-20.2s0,1.8,0,1.8h23.5l-19.5,13.4.5,1-4.1,4.6c-.1.2-.2.3-.3.5l-3.2,4.5-4.1-.3v.3c.6,0,1.1-.2,1.2-.2h-.1c-1.3.4-2.6.7-4.1.7h-1.9l-.8-.3c-.7.2-1.4.3-2,.3-.9.2-2.2.4-3.2.4h-.6ZM215.4,97.9l.5-1.1-.9.2.4.9ZM216.3,96.7h0ZM216.7,95h0ZM178.4,82.3c.1,0,.2,0,.3-.1l-.3.2h0Z"/>
    <path class="st1" d="M244.7,106.4s-1.8,0-1.9,0h-1.4c-.9.2-1.9.3-2.9.3h-1l-1-.2h-.2s-.2-.1-.2-.1l.4-1.4c-.8.5-1.8.9-2.8,1.3l-.2-.6c.3,0,.7,0,1,0h0v-2.8s0,0,0,0v-4.9h0v-1.2h0s-1.1.3-1.1.3v1.2c0,0,1.1-.4,1.1-.4v4.9c-.5-.5-1-1.1-1.4-1.7l-.2,3.1-2.3-6.4-1.5.4v2.1c.9,1.8,2.1,3.4,3.5,4.3h-.1c-1.4-1-2.4-2.1-3.1-3.1l.2,2.5c.9.7,2,1.3,3.4,1.5v1.1c-1.2,0-2.2-.3-3.3-.7v.9c.2,0,.4,0,.5,0-.2,0-.5,0-.6,0h-.1c-.4,0-1.1,0-1.6,0s-.7,0-1.1,0h-7.4s0-1,0-1l-3-3.1-3-3.2v-1.2c0,0-1.8-.9-1.8-.9l1.1-4.8h-24.1l24.6-8.3c0-.3,0-.6.1-1,.1-.7.3-1.4.6-2v-.6c0,.2-.1.3-.1.5,0-.2,0-.3,0-.5v-.4s-2.3-3.6-2.3-3.6l.7-1.9h-25.8l26.1-8.7c0,.2,0,.3,0,.5,0,.8.1,1.7.4,2.7l.2-3.3h.2c0,0,0-.4,0-.4l1.5-.9h.1s0,0,0-.1l.9-.5c0,0,.1-.1.2-.2-.1-.2-.3-.3-.4-.5h0c-.2-.3-.3-.5-.5-.7l.8-.3-1.5-1.3c0,0-.1.2-.2.3,0,0-.1-.2-.1-.2,0,0,0,0,0,0,0-.2-.2-.3-.3-.5h-.1c-.1.2-.3.4-.4.6,0,0-.1.3-.2.7,0,0,0,0,0,0,0,0,0,0,0,0,0,0,0,0,0,0,0-.6.1-1.2.3-1.8l-1.7-1.5,1.4-5.4,1.1-8.1h5.6c.4-.2.8-.3,1.2-.4l1-1.5h4.8c.1,0,.5,0,.5,0l3.9-9.1-.2-.4.2.2,2.6-6.2,6.1,14.5,14.5-4.2-2,6.1c.4,0,.9,0,1.4,0h5.5l.5,2.3h.1c0,0,2.5.2,2.5.2l.3.8,23.5-29.3-17.4,48c.2,1.1.2,2.3-.2,3.6l5.8,2.2,54.1-29.6-40.3,34.9h.3c0,.1-.4.1-.4.1l-10.7,9.3,10.3,4.1h-14.9s-6.1,5.2-6.1,5.2c.2-.4.4-.8.5-1.1.2-.7.4-1.5.4-2.4.2-.4.3-.9.4-1.3,0,0-.4.4-.4.4,0,0,0,0,0,0-.9.9-1.8,1.4-2.3,1.7-.1,0-.3.2-.4.3,0,.3,0,.6,0,.8h-1.2s0,.3,0,.3c0,.3,0,.7,0,1,.5-.2.9-.5,1.3-.8,0,0,0,0,0,0,0,0,0,0,0,0,0,0,0,0,0,0,0,.3-.1.5-.2.8,0,0,0,0,0,0,0,0,0,0,0,0-.1.5-.3,1-.5,1.5,0,0,0,0,0,0-.2.6-.6,1.2-.9,1.8h0c-.2.3-.3.5-.5.8,0,0,0,0,0,0,0,0,0,0,0,0-.8,1-1.6,1.8-2.5,2.3-.5.3-.9.6-1.4.8l-1.1.9-.7,2.3h-3s-7.9,4.3-7.9,4.3l-1.5-4.1ZM237.6,100v-.2s0,0,0,0v.2s0,0,0,0ZM237.6,99.9v-.3c0,0,0-.3,0-.3v.5s0,0,0,0ZM232.5,94.7h0ZM231.1,94.3h0ZM264.1,81.4l-.4-.3h0c0,.1.5.3.5.3ZM223.9,58.8h.2s0-.3,0-.3v.3Z"/>
  </g>
  <g>
    <path class="st0" d="M149.6,54.3c-.1,0,.9.5.9.5,0,0,1.3-1.4,1.4-1.5,0,0,1.4-.2,1.4-.1,0,0,1.2.9,1.2.9,0,0,1.3-.8,1.3-.8,0,0,1.3.1,1.1,0,.2,0,1.6.5,1.4.6.1,0,1.6-.5,1.6-.5,0,0,.2,1.7.1,1.6.1,0-.5,1.3-.5,1.3,0,0,.8,1.4.8,1.5,0,0,.3,1.3.3,1.3,0,0-1.3,1.1-1.2,1.1-.1,0,.5,1.6.4,1.7,0,0,0,1.2,0,1.3,0,0-.9,1.4-1,1.4.1,0,.8,1.3,1,1.3-.1,0,.9,1.4.8,1.4,0,0-1.3,1.2-1.1,1.2-.1,0-.2,1.6-.2,1.6,0,0,.9,1.2.7,1.2.1,0,.8,1.3.8,1.4,0,0-.8,1.4-.8,1.4,0,0,.2,1.5,0,1.5.1,0-1.3,1.3-1.3,1.3,0,0,.2,1.4.3,1.5-.2,0,1.5,1.2,1.7,1.2-.1,0-.6,1.4-.8,1.4.2,0-.9,1.2-1,1.2.1,0-.3,1.5-.3,1.5,0,0,1,1.3,1.1,1.2-.2,0-.2,1.6-.2,1.6,0,0,1.4-1.1,1.3-1.1,0,0,1.6.1,1.8.2-.2,0,1.1,1.9,1.2,2-.2,0,1.2-1.6,1.1-1.6,0,0,1.4,1.1,1.3,1,.1,0,1.5-.5,1.6-.4,0,0,1.2-.5,1.2-.5,0,0,1.4.3,1.3.4.1,0,1.7-.9,1.6-.8,0,0,1.2,1.3,1.2,1.3,0,0,1.3-.8,1.3-.8,0,0,1.5-.4,1.3-.5.1,0,1.4,1.9,1.5,2-.1,0,1.4-1.2,1.4-1.2,0,0,1.8-.4,1.9-.4,0,0,0,1.5,0,1.5,0,0,.2,1.5.3,1.5-.1,0,0,1.6,0,1.6,0,0-1.4,1.2-1.3,1.1,0,0,0,1.5,0,1.6,0,0-.2,1.3-.2,1.3,0,0,.4,1,.5,1.1,0,0-1.2.7-1.1.7-.1,0-1.6.5-1.5.6,0,0-1.2-2.1-1.1-2.1-.1,0-1.5,1.3-1.6,1.4.1,0-1.3,0-1.5,0,.1,0-1.3-.3-1.1-.4-.1,0-1.3,1.2-1.4,1.2,0,0-1.4-.4-1.5-.4,0,0-1.2-.8-1.3-.8,0,0-1.2-.4-1.1-.5,0,0-1.6,1.2-1.5,1.3,0,0-1.3-.5-1.3-.5,0,0-1.4.3-1.5.2,0,0-1.2-.5-1.2-.6,0,0-1.5.6-1.5.6,0,0-1.3.3-1.5.2.2,0-1.2-.8-1-.8-.1,0-1.5.5-1.6.6,0,0-1.3-.7-1.4-.7,0,0-1.2.9-1.1.9-.2,0-1.6-.6-1.6-.7,0,0-1.3.8-1.4.9.1,0-1.8-.2-1.7-.2,0,0-.3-1.9-.5-2,.1,0,1-1.3,1.2-1.3-.1,0,0-1.4.2-1.4-.1,0-.1-1.2-.1-1.3,0,0-.9-1.3-1-1.4.1,0-.2-1.4-.4-1.4.2,0,.7-1.5.8-1.4-.1,0,1.2-1.4,1.3-1.3-.2,0-.6-1.4-.7-1.3.1,0,0-1.4,0-1.3,0,0-.2-1.4-.3-1.5.2,0-.1-1.3-.1-1.3,0,0,1.2-1.3,1.1-1.3,0,0-.5-1.5-.6-1.5,0,0,0-1.4.2-1.3-.2,0-1-1.4-1.1-1.5.1,0,.9-1.1,1-1.1,0,0-.3-1.6-.2-1.5-.1,0-.9-1.5-.9-1.4,0,0,1.6-1.3,1.7-1.3,0,0,0-1.7,0-1.7,0,0-1.5-1.1-1.4-1.2,0,0,.8-1.3,1-1.4-.1,0,.2-1.4.3-1.3-.1,0-1.5-1.4-1.7-1.5.1,0,0-1.4,0-1.5.1,0,.7-1.3.6-1.3,0,0,.3-1.4.4-1.5,0,0,0-1.1.2-1.1-.1,0-.7-1.5-.8-1.5.1,0,1-.7,1.1-.7Z"/>
    <path class="st0" d="M195.9,54.3c-.1,0,.9.4.9.4,0,0,1.3-1.4,1.4-1.5-.1,0,1.3-.2,1.3-.1,0,0,1.1.9,1.2.9,0,0,1.2-.8,1.3-.8,0,0,1.2.1,1,0,.2,0,1.6.5,1.4.6.2,0,1.5-.5,1.4-.6,0,0,1.7,0,1.5,0,.1,0,0,1.6,0,1.6,0,0,1.2,1.1,1.2,1.2,0,0,.7,1.1.8,1.1,0,0-.9,1.5-.7,1.5-.2,0,1,1.3.9,1.4,0,0,.5,1.2.5,1.2,0,0-.4,1.6-.6,1.6.2,0,1.3,1,1.5,1-.2,0,1.2.9,1.2,1,0,0-.8,1.6-.6,1.6-.2,0,.2,1.5.2,1.6,0,0,1.2.8,1,.9.2,0,1.2,1,1.3,1.1,0,0-.3,1.6-.2,1.6,0,0,.7,1.4.5,1.4.2,0-.8,1.7-.8,1.7,0,0,.7,1.3.9,1.4-.2,0,1.8.5,2,.6-.2,0-.1,1.5-.3,1.5.2,0-.4,1.5-.5,1.5.1,0,.3,1.5.3,1.6,0,0,1.3.8,1.5.8-.2,0,.1,1.4.2,1.4,0,0,1.4.8,1.3.7,0,0,.5,1.6.7,1.6-.2,0-1.6,1.8-1.4,1.9-.2,0,1.8.7,1.6.8.1,0-.5,1.6-.7,1.5.1,0,1.2,1.2,1.2,1.3,0,0,.8,1,.8,1,0,0,.2,1.5,0,1.5.2,0,1.4,1.1,1.4,1.1,0,0-.7,1-.8,1,0,0-.6.5-.5.5,0,0-1.5.5-1.7.4.2,0-1-1.8-.9-1.7-.1,0-1.6,1.1-1.5,1.1,0,0-1.4.8-1.4.8,0,0-1.1-.2-1-.2,0,0-1.5.3-1.3.2-.2,0-1.7.3-1.8.3,0,0-.7-1.3-.6-1.4,0,0-.4-1-.4-.9,0,0-.2-1.5-.2-1.6,0,0-.6-1.1-.5-1-.1,0-1.3-1.1-1.2-1.1-.1,0-1.1-1.2-1-1.1,0,0,1.2-2.4,1.4-2.4-.2,0-2.3,1-2.4,1.1.1,0-1.3,0-1.5,0,.1,0-1.3-.3-1.1-.4-.2,0-1.4,1.2-1.5,1.2,0,0-1.4-.4-1.5-.4,0,0-1.2-.8-1.3-.8.1,0-1.2-.4-1.1-.5,0,0-1.7,1.2-1.6,1.3-.1,0-1.4-.5-1.4-.5,0,0-1.2.2-1.4.2.1,0-.8,1-.8,1,0,0,.1,1.6,0,1.6,0,0-.1,1.4-.3,1.3.2,0-1,1.1-.8,1.1-.2,0-.1,1.5-.2,1.5.1,0-.8.8-.9.9,0,0-1,.9-.8.9-.2,0-1.7-.6-1.7-.7,0,0-1.4.8-1.5.9.1,0-1.3,0-1.2,0,0,0-1.6,0-1.8,0,.2,0-1.2-.8-1-.8-.2,0-1.6-.2-1.4-.2-.2,0-1.3.2-1.3.1,0,0-.4-1.2-.6-1.3.2,0,.3-1.4.1-1.4.2,0,1.2-1.2,1.4-1.2-.2,0,1.5-.9,1.7-.8-.2,0-.2-1.5-.3-1.4.2,0,.4-1.4.4-1.3,0,0,.3-1.4.1-1.5.2,0,.4-1.3.4-1.3,0,0,1.5-.8,1.5-.8,0,0,0-1.6,0-1.6.1,0,.5-1.3.7-1.2-.2,0-.5-1.6-.7-1.7.2,0,1.3-.8,1.4-.7-.1,0,.2-1.6.4-1.5-.2,0-.5-1.6-.4-1.6,0,0,1.9-.7,2-.7,0,0,.5-1.5.5-1.5,0,0-1-1.6-.9-1.6,0,0,1.2-1,1.4-1-.2,0,.6-1.2.7-1.1-.2,0-1-1.8-1.2-1.9.2,0,.6-1.4.4-1.4.2,0,1.1-1,1-1,0,0,.8-1.3.8-1.3,0,0,.4-1,.6-1-.2,0-.2-1.6-.4-1.6.2,0,2-.6,1.8-.6.1,0,.3-1.6.5-1.6-.2,0-.5-1.5-.4-1.5-.1,0,.3-1.4.4-1.3,0,0,1.1-1,.9-1,.2,0,.8-1.1.8-1.1,0,0,.2-1,.4-1.1ZM206.5,79.9s0-2.2,0-2.2c0,0-1.7-.8-1.7-.9,0,0-.7-1.3-.7-1.3,0,0,.5-1.5.5-1.5,0,0-1.1-1.1-1.1-1.1,0,0-.3-1.4-.4-1.4,0,0,0-1.5,0-1.5,0,0-.8-1.2-.8-1.2,0,0-.6-1.4-.6-1.4,0,0,.2-1.3.2-1.4,0,0-.6-.8-.6-.7,0,0,.3,1,.3,1,0,0-1.6.7-1.6.7,0,0,0,1.8,0,1.8,0,0-.5,1.2-.4,1.2,0,0-1.3,1.1-1.3,1.1,0,0,.3,1.5.3,1.5,0,0,.5,1.6.5,1.6,0,0-1.6.8-1.6.8,0,0-.6,1.5-.6,1.5,0,0,.4,1.4.4,1.5,0,0,0,.6,0,.7,0,0,.5.5.5.5,0,0,1.5-.3,1.5-.3,0,0,1.2,1.4,1.2,1.4,0,0,1.4-.1,1.5-.1,0,0,1.1-1.7,1.2-1.7,0,0,1.4.5,1.4.5,0,0,1.8.8,1.9.8Z"/>
    <path class="st0" d="M223.8,54.3c-.1,0,.9.5.9.5,0,0,1.3-1.4,1.4-1.5-.1,0,1.3-.2,1.4-.1,0,0,1.2.9,1.2.9,0,0,1.3-.8,1.3-.8,0,0,1.3.1,1.1,0,.2,0,1.6.5,1.4.6.1,0,1.5-.5,1.5-.6,0,0,1.5,0,1.4-.1.1,0,1.3.6,1.2.6,0,0,1.4-.7,1.5-.6,0,0,1.3-.4,1.4-.4,0,0,1,1.3,1.2,1.3-.2,0,1.5-.6,1.4-.6,0,0,1.4,0,1.5,0,0,0,1.3.8,1.1.8.2,0,1.5-.7,1.7-.8-.2,0,1.3-.9,1.2-.9,0,0,1.2,1.4,1.4,1.4-.2,0,1.3.4,1.3.5,0,0,1.5-.6,1.3-.5.2,0,1.8,0,1.9,0,0,0,.9,1.4,1,1.4,0,0,1.4.8,1.2.8.1,0,0,1.8-.1,1.9,0,0,.9.9,1.1.9-.2,0,1.8,0,2,.1-.2,0,0,1.5-.2,1.5.2,0-.5,1.3-.7,1.3.1,0,0,1.3,0,1.4,0,0,1,1,1.2,1-.2,0-.4,1.5-.3,1.5,0,0,.8,1.5.7,1.5,0,0-.6,1.7-.4,1.7-.2,0-2.5.2-2.3.2-.2,0,.2,2,0,2.1,0,0-1.7,0-1.8,0,.1,0-.8,1.3-.7,1.3,0,0-1,.6-1,.6,0,0,.9.6.8.6.2,0,1.9-.1,1.8,0,0,0,.3,1.7.3,1.7,0,0,1.4,0,1.5,0,0,0,1.3.8,1.2.8.2,0-.8,2-.7,2-.1,0,1.4.7,1.5.7,0,0,1,1.2,1,1.3,0,0,0,1,0,1,0,0,.2,1.5.4,1.4-.2,0,0,1.7,0,1.7,0,0-1.5,1-1.4.9,0,0-.3,1.4-.3,1.5,0,0-.6,1.2-.6,1.2,0,0-.3,1.2-.1,1.2-.1,0-.1,1.5,0,1.5-.1,0-.7,1.5-.6,1.6,0,0-2.3-.7-2.2-.7-.2,0-.4,1.9-.5,1.9.1,0-1.1.7-1.3.7.1,0-1.3.3-1.2.3-.1,0-1,1.5-1.1,1.6,0,0-1.5,0-1.6,0,0,0-1.4-.6-1.5-.5.1,0-1.3-.3-1.2-.4,0,0-1.6,1.3-1.5,1.4,0,0-1.4-.5-1.4-.5,0,0-1.4.3-1.5.2.1,0-1.3-.5-1.3-.6,0,0-1.5.6-1.5.6,0,0-1.4.3-1.5.2.2,0-1.2-.8-1-.8-.2,0-1.6.5-1.6.6,0,0-1.3-.7-1.4-.7,0,0-1.3.9-1.1.9-.2,0-1.6-.6-1.7-.7,0,0-1.4.8-1.5.9.1,0-1.3,0-1.2,0,0,0-1.5,0-1.7,0,.2,0-1.2-.8-1-.8-.2,0-1.6-.2-1.4-.2-.2,0-1.3.1-1.3,0,0,0-.9-1.1-1-1.1.2,0-.2-1.4-.4-1.4.2,0,.7-1.5.9-1.4-.2,0,1.1-1.4,1.3-1.3-.2,0-.6-1.4-.8-1.3.1,0,0-1.4,0-1.3,0,0-.2-1.4-.3-1.5.2,0-.1-1.3,0-1.3,0,0,1.2-1.3,1.1-1.3,0,0-.5-1.5-.6-1.5.1,0,0-1.4.3-1.3-.2,0-1-1.4-1.2-1.5.2,0,.9-1.1,1-1.1-.1,0-.3-1.6-.2-1.5-.2,0-1-1.5-.9-1.4,0,0,1.6-1.3,1.7-1.3,0,0,0-1.7,0-1.7,0,0-1.5-1.1-1.4-1.2,0,0,.8-1.3,1-1.4-.2,0,.1-1.4.3-1.3-.1,0-1.5-1.4-1.7-1.5.1,0,0-1.4,0-1.4.2,0,.7-1.3.6-1.3,0,0,.3-1.4.4-1.5,0,0,0-1.1.2-1.1-.2,0-.7-1.5-.9-1.5.1,0,1.7-1.2,1.5-1.2.1,0-.2-1.6,0-1.6-.2,0-1-1.3-.9-1.3,0,0-.2-1.4-.1-1.4,0,0,.6-.8.7-.8ZM242.6,71s1.5.3,1.5.3c0,0,1.1-1.6,1.1-1.6,0,0,1.1-.7,1.1-.7,0,0,1.5,0,1.5,0,0,0,0-1.5,0-1.5,0,0,.3-1.2.2-1.2,0,0,.4-1.4.3-1.4,0,0-.9-1-.9-1,0,0-1.1-.7-1.2-.7,0,0-.8-.9-.8-.9,0,0-1.4.5-1.4.5,0,0-1.3.2-1.3.2,0,0-1.2-1.3-1.1-1.3,0,0-1.8.6-1.8.7,0,0-1.4,0-1.3,0,0,0-1.5-.8-1.6-.8,0,0-1.4.7-1.3.7,0,0-.9.7-.9.8,0,0-1,.6-1,.6,0,0-.2,1.5-.2,1.5,0,0,.9,1.2.8,1.2,0,0,.7,1.3.7,1.4,0,0-.8,1.4-.8,1.5,0,0,.2,1.2.1,1.2,0,0,1,1.2,1,1.2,0,0,1.6-.1,1.6-.1,0,0,1.2-1.7,1.3-1.7,0,0,1.5.5,1.4.5,0,0,1.3,1,1.2,1,0,0,1.5,0,1.6,0ZM243.2,88.1c0,0,1.5.3,1.5.3,0,0,.9-1.6,1-1.6,0,0,1-.7,1-.6,0,0,1.4.2,1.4.2,0,0,.3-1.5.3-1.5,0,0,.6-1.1.5-1.1,0,0,.7-1.3.6-1.3,0,0-.5-1.3-.5-1.3,0,0-.7-1.2-.7-1.2,0,0-.4-1.2-.4-1.2,0,0-1.4,0-1.4,0,0,0-1.3,0-1.3,0,0,0-1-1.4-.9-1.4,0,0-1.8.6-1.8.6,0,0-1.3,0-1.3,0,0,0-1.5-.8-1.5-.8,0,0-1.3.7-1.3.7,0,0-1.4,1-1.4,1,0,0-1.3-1.3-1.2-1.3,0,0-1.9,0-1.9,0,0,0,.7,1.5.6,1.6,0,0,.7,1.3.7,1.3,0,0-.8,1.4-.8,1.4,0,0,.2,1.5.1,1.5,0,0-1.4,1.2-1.4,1.2,0,0,.1,1.4.2,1.4,0,0,1.4.6,1.4.6,0,0,.8.2.7.2,0,0,1.3,1,1.2,1,0,0,1.5.4,1.5.4,0,0,1.2-1,1.3-1,0,0,1.2.1,1.3.1,0,0,1.4-1.1,1.4-1.1,0,0,1,1.6,1.1,1.6Z"/>
  </g>
</svg>