<?xml version="1.0" encoding="UTF-8"?>
<svg id="Layer_2" data-name="Layer 2" xmlns="http://www.w3.org/2000/svg" viewBox="0 0 176.52 106.62">
  <defs>
    <style>
      .cls-1 {
        fill: gray;
      }
    </style>
  </defs>
  <g id="CONTEN_IDO" data-name="CONTEN IDO">
    <g>
      <g>
        <g>
          <path class="cls-1" d="M71.29,54.94c-.76.96-2.91.44-4.81-1.17-1.9-1.61-2.82-3.69-2.07-4.66.56-.71,1.87-.61,3.27.13-2.95-2.32-5.84-3.37-6.66-2.33-.87,1.11.98,4.18,4.13,6.85,3.15,2.67,6.42,3.94,7.29,2.83.55-.71,0-2.21-1.29-3.9.44.9.52,1.73.12,2.24Z"/>
          <path class="cls-1" d="M70.29,53.48c.31-.32-.14-1.27-1-2.13-.87-.86-1.82-1.31-2.13-.99-.31.32.14,1.27,1,2.13.87.86,1.82,1.31,2.13.99Z"/>
        </g>
        <g>
          <path class="cls-1" d="M63.75,45.14c2.13,1.81,4.34,2.66,4.93,1.91.37-.48,0-1.49-.86-2.63.29.61.35,1.17.08,1.51-.51.65-1.97.3-3.25-.79s-1.91-2.5-1.4-3.15c.38-.48,1.26-.41,2.21.09-1.99-1.57-3.95-2.28-4.5-1.58-.59.75.66,2.82,2.8,4.63Z"/>
          <path class="cls-1" d="M67.22,44.95c.21-.21-.09-.86-.68-1.44s-1.23-.88-1.44-.67c-.21.21.09.86.68,1.44.59.58,1.23.88,1.44.67Z"/>
        </g>
        <g>
          <path class="cls-1" d="M109.44,46.91c-.81-1.04-3.71.02-6.66,2.33,1.41-.74,2.72-.84,3.27-.13.76.96-.17,3.05-2.07,4.66-1.9,1.61-4.05,2.13-4.81,1.17-.4-.51-.32-1.34.12-2.24-1.29,1.69-1.84,3.19-1.29,3.9.87,1.11,4.13-.16,7.29-2.83,3.15-2.67,5.01-5.74,4.13-6.85Z"/>
          <path class="cls-1" d="M100.18,53.48c.31.32,1.27-.13,2.13-.99.87-.86,1.32-1.82,1-2.13-.31-.32-1.27.13-2.13.99-.87.86-1.32,1.82-1,2.13Z"/>
        </g>
        <g>
          <path class="cls-1" d="M101.79,47.05c.59.75,2.8-.11,4.93-1.91,2.13-1.81,3.38-3.88,2.8-4.63-.55-.7-2.51.01-4.5,1.58.95-.5,1.84-.57,2.21-.09.51.65-.11,2.06-1.4,3.15-1.28,1.09-2.74,1.44-3.25.79-.27-.34-.22-.9.08-1.51-.87,1.14-1.24,2.15-.87,2.63Z"/>
          <path class="cls-1" d="M103.25,44.95c.21.21.86-.09,1.44-.67.59-.58.89-1.23.68-1.44-.21-.21-.86.09-1.44.67s-.89,1.23-.68,1.44Z"/>
        </g>
      </g>
      <path class="cls-1" d="M167.33,54.59c.93-10.61-4.6-21.38-13.31-30.03-6.85-7.12-16.91-12.61-28.42-16.11.12.03.24.06.35.1-.51-.22-1.03-.42-1.55-.63-1.49-.72-3.91-6.45-8.19-7.54-5.35-1.36-11.45,1.42-14.61,1.29-13.03-1.94-27.49-1.49-40.62.76-11.94,1.9-22.78,5.9-31.11,11.33-.48.23-.94.48-1.42.72-1.71.73-14.07,1.33-17.45,3.72-4.43,3.13.4,7.26-.67,9.32C2.05,36.47-1.3,47.63.45,58.59c1.42,11.65,9.88,21.77,22.8,28.56.2.16.41.33.62.49,1.46,1.92.31,15.07,6.2,17.92,7.81,3.78,19.56-3.72,24.64-3.42,20.71,5.19,44.62,3.94,64.94-1.96,18.54-4.98,31.1-14.09,37.18-24.69.29-.3.58-.6.86-.91,1.98-1.27,17.02-2.45,18.58-6.4,1.93-4.91-8.19-10.82-8.94-13.58ZM160.27,66.81c1.89-8.08.36-16.57-4.82-24.51-6.77-10.7-21.01-20.01-37.86-23.04-14.54-2.78-33.39-.46-40.88,7.49,9.77-5.76,25.56-7.06,37.63-2.74,11.51,4.04,17.91,11.94,20.71,19.97,10.04,27.89-26.87,60.86-78.5,53.31-6.33-.92-12.38-2.41-18.13-4.3,11.92,3.2,25.87,4.14,40.76,2.02,22.88-3.06,43.11-14.22,47.67-28.9,3.98-11.64-3.88-25.55-20.13-30.34,12.06,6.33,16.83,17.83,8.97,26.93-7.6,8.99-23.76,12.91-39.35,13.6C29.94,78.58-1.89,52.15,14.6,28.09c2.39-3.49,5.61-6.74,9.31-9.8-6.39,5.68-10.32,12.43-10.63,19.77-.7,11.44,8.68,23.77,27.57,28.41,17.44,4.56,42.04.73,50.73-10.87-11.49,8.18-31.32,10.19-44.49,3.76-11.41-5.46-14.21-14.81-13.03-22.88C36.77,16,68.61.64,100.95,3.6c5.88.54,11.74,1.6,17.53,2.99-10.23-2.27-21.25-3.04-31.98-2.04-15.1,1.32-30.51,6.6-37.32,14.95-6.95,8.13-4.76,20.28,10.28,25.26-10.35-6.5-11.12-16.46-2.1-23.03,7.57-5.61,20.09-7.83,31.62-8.21,33.59-1.23,71.13,15.93,72.98,40.35.33,4.26-.31,8.59-1.69,12.95Z"/>
    </g>
  </g>
</svg>