<?xml version="1.0" encoding="UTF-8"?>
<svg id="Layer_2" data-name="Layer 2" xmlns="http://www.w3.org/2000/svg" viewBox="0 0 177.41 105.21">
  <defs>
    <style>
      .cls-1 {
        fill: gray;
      }
    </style>
  </defs>
  <g id="CONTEN_IDO" data-name="CONTEN IDO">
    <g>
      <g>
        <path class="cls-1" d="M18.39,83c-1.42-.28-3.38-1.59-3.62-2.48-.24-.71.42-1.08,1.09-1.03,8.84,0,89.26,0,98.09,0,.69-.05,1.57.32,1.3,1.12-.69,1.72-4.35,2.76-6.38,2.64-19.57,0-49.65,0-70.1,0-10.89-.17-15.2.35-20.33-.24h-.05Z"/>
        <path class="cls-1" d="M79.75,78.77c-18.27-.13-49.03.15-64.64.06-.91,0-1.7-.02-2.6-.25-1.34-.33-2.68-1.52-2.83-2.38-.06-1.62,3.55-1.01,4.96-1.13,9.49.14,22.25-.32,31.76.26,8.11.59,16.16,2.01,24.33,2.13,7.6.06,15.55-1.19,23.08-1.86,7.38-.82,15.53-.47,23.02-.53,1.2-.05,3.56.26,3.5,1.07-.1,1.39-1.85,2.26-3.11,2.51-1.38.28-3.78.16-6,.18-9.03-.03-21.8,0-31.41-.06h-.07Z"/>
        <path class="cls-1" d="M23.76,87.24c-1.75-.77-3.75-3.41-1.02-3.31,8.37,0,74.49-.01,84.17,0,.58.01,1.24.13,1.3.73-.5,2.13-4.88,2.7-6.82,2.95-16.79.23-42.11,0-60.06.08-7.39,0-13.15,0-15.4,0-.77,0-1.37-.07-2.14-.42l-.05-.02Z"/>
        <path class="cls-1" d="M41.8,92.08c-2.38-.02-6.18-.01-8.97,0-2.03-.03-4.11.16-6.07-.23-2.59-.53-2.61-2.96-1.1-3.42,9.33-.22,61.33-.03,70.81-.07.76.02,1.52.32,1.35.89-1.58,2.81-11.69,2.75-14.74,2.86-7.22,0-31.44,0-41.23-.03h-.06Z"/>
        <path class="cls-1" d="M118.09,12.33c-10.41-.39-20.94-1.8-31.4-1.16-2.03-.25-29.47,3.12-26.02-.42,1.7-1.38,4.52-1.68,6.77-1.95,12.09-.24,48.89-.27,60.04-.02,1.74.21,7.85.73,7.98,2.87-.17.46-1.29.71-2.9.74-1.42.03-3.19,0-5.13,0-2.9,0-6.75,0-9.26-.06h-.08Z"/>
        <path class="cls-1" d="M73.15,7.81c-.73-.27-.97-.84-.05-1.43.87-.55,2.47-.91,3.62-1.09,9.56-1.32,19.19-.89,28.88-.9,3.9.08,8.36.11,12.28-.12,1.66-.07,3.53-.09,5.05.59,2.04.87,2.88,2.97.74,3.17-10.26.07-28.45,0-39.53.02-3.93,0-7.05,0-8.69,0-.75-.01-1.59.03-2.27-.22h-.04Z"/>
        <path class="cls-1" d="M135.47,69.3c-.39-.68.01-1.58.53-2.12.35-.36.82-.6,1.32-.73,1.27-.32,2.83-.2,5.24-.22,6.12,0,13.8-.04,19.6.03,4.18.11,9.4-.28,13.65.14,3.74.76.12,2.99-2.25,3.16-9.06.92-27.01.21-35.89.43-.77,0-1.75-.05-2.17-.64l-.02-.03Z"/>
        <path class="cls-1" d="M137.51,64.78c-.38-.63-.07-1.46.4-1.98,1.49-1.56,4.79-.83,7.25-1,4.71.06,9.98-.13,14.56.08,1.71.28,3.16.68,4.91.51,3.41-.34,8.33-1.31,11.39.38,1.22.75,1.63,2.13-.36,2.52-1.35.31-3.26.22-4.79.23-3.24.05-7.03-.37-9.98-.1-4.93.26-10.51.05-15.54.12-1.69,0-3.23,0-4.45,0-1.67-.02-2.72.05-3.36-.72l-.02-.04Z"/>
        <path class="cls-1" d="M80.99,100.9c-10.66-1.12,13.74-3.56,14.93-3.49,7.76-.43,16.64-.11,25.14-.2,2.77-.14,4.85.81.88,2.28-5.8,1.51-11.31,1.44-17.23,1.47-7.97-.03-17.24.03-23.64-.06h-.07Z"/>
        <path class="cls-1" d="M7.87,74c-1.1-.4-2.39-2.02-1.67-2.76.66-.64,1.72-.56,2.65-.6,4.41,0,14.87,0,19.51,0,3.93.05,8.43.2,12.01,2.05,2.13,1.4-.08,1.8-1.29,1.72-4.81,0-16.93,0-23.04,0-2.61-.12-6.05.32-8.12-.38l-.06-.02Z"/>
        <path class="cls-1" d="M26.74,100.35c-.9-.65-1.27-2.04-.12-2.66.6-.34,1.6-.45,2.83-.46,2.73-.01,7.18,0,10.06,0,7.91,0,15.71.81,23.58,2.18,2.44.55,2.34,1.15.1,1.37-2.14.2-4.41.07-6.56.07-8.26.09-18.88.12-26.61.1-1.1-.02-2.35.03-3.24-.57l-.05-.03Z"/>
        <path class="cls-1" d="M100.69,96.04c-.31-1.67,4.76-2.58,6.25-2.82,3-.52,5.57-.43,8.71-.44,4.96,0,12.68,0,16.35,0,1,.04,2.62-.13,3.25.58.33.55-.32,1.07-.75,1.38-3.82,2.12-8.67,1.75-13.06,1.81-5.49,0-13.96,0-17.94,0-.86-.03-2.26.08-2.79-.48l-.02-.02Z"/>
        <path class="cls-1" d="M12.47,21.14c-3.78-.2-3.9-2.6-.27-3.3,2.75-.51,6.07-.16,8.76-.23,3.07-.06,5.95-.18,9.17-.13,2.23,0,4.54,0,6.76,0,2.52-.05,6.04-.05,3.93,2.38-2.32,2.03-5.68,1.24-9.1,1.42-2.97-.05-6.58.13-9.03-.18-1.8-.26-3.37-.49-5.43-.33-1.55.09-3.14.45-4.7.38h-.1Z"/>
        <path class="cls-1" d="M111.43,91.59c-.34-.53.28-1.07.69-1.4,3.17-2.17,7.34-1.81,11.13-1.85,5.22,0,13.51,0,17.26,0,.95.04,3.05-.12,2.84,1.17-.5,1.19-2.21,1.8-3.43,2.12-2.5.57-3.83.41-7.26.45-2.27,0-4.54,0-6.85,0-2.89,0-5.91,0-8.71.01-1.91-.01-3.35.04-4.39-.04-.45-.05-.96-.12-1.25-.44l-.02-.03Z"/>
        <path class="cls-1" d="M132.37,73.69c-.34-.64.36-1.71,1.32-2.34,1.19-.76,2.64-.67,4.03-.69,4.96,0,17.39,0,22.27,0,8.37-.13,3.3,2.44-1.16,3.37-1.71.42-3.08.38-5.79.38-3.32,0-6.72,0-10.06,0-2.13,0-3.98,0-5.99,0-1.85-.02-3.22.08-4.03-.24-.24-.1-.44-.23-.56-.44l-.02-.04Z"/>
        <path class="cls-1" d="M83.24,104.62c-2.12-.08-22.04.21-20.73-2.56.82-.49,1.86-.3,2.81-.35,6.76,0,30.15,0,36.68,0,.72,0,1.55-.02,2.17.13,1.12.25.9,1.07-1.29,1.62-6.39,1.19-13.1,1.05-19.55,1.16h-.1Z"/>
        <path class="cls-1" d="M118.95,87.13c-.52-1.08,1.36-2.17,2.8-2.65,2.63-.78,5.1-.45,7.88-.53,5.27,0,13.21-.02,16.81-.02.93.04,2.74-.1,2.78,1.06-.23,1.15-1.67,1.9-2.74,2.26-1.9.59-3.82.41-6.43.44-3.49,0-7.07,0-10.57,0-2.7,0-6.11,0-8.4,0-1.05,0-1.83-.15-2.11-.53l-.02-.03Z"/>
        <path class="cls-1" d="M55.68,65.51c-3.96-.16-19.32.46-21.19-2.68-.1-1.09,2.74-.97,3.68-1.04,2.7-.02,5.82-.02,7.99.05,5.65.19,11.38,1.46,16.96,1.81,4.09.37,8.24-.25,12.34-.41,3.68.13.03,1.32-1.3,1.46-6.07.82-12.33.74-18.39.82h-.1Z"/>
        <path class="cls-1" d="M124.73,82.61c-.24-.54.24-1.13.68-1.54,2.54-2.18,5.32-1.42,9-1.57,5.67.02,13.07-.04,17.27.02,3.45.09,1.59,2.83-.5,3.4-1.46.46-3.63.32-5.95.34-3.41,0-6.92,0-10.34,0-2.08,0-3.86,0-5.81,0-1.73-.02-3.02.08-3.8-.21-.23-.08-.43-.21-.54-.4l-.02-.03Z"/>
        <path class="cls-1" d="M129.23,78.15c-.38-.7.65-2.03,1.95-2.6,1.18-.51,2.46-.47,3.74-.49,4.53,0,15.3,0,19.58,0,.73.01,1.6.05,2.12.42,1.07.77-.3,2.46-1.31,2.87-.86.41-1.98.45-3.01.47-4.53.01-12.25,0-17.12,0-.57,0-1.12,0-1.67,0-1.7-.01-2.95.07-3.72-.22-.23-.09-.43-.22-.55-.42l-.02-.03Z"/>
        <path class="cls-1" d="M4.91,69.54c-.96-.44-2.09-1.84-1.21-2.78,1.02-.84,3.58-.47,5.71-.55,4.46.03,9.18-.05,13.56.04,2.08.1,4.67.54,6.32,1.72.59.38,1.37,1.35.39,1.75-.77.3-1.62.24-2.57.25-2.4,0-5.15,0-7.81,0-3.39,0-6.44,0-9.51,0-2.25-.06-3.38.17-4.83-.39l-.06-.03Z"/>
        <path class="cls-1" d="M139.05,60.44c-.6-.76-.28-1.99.68-2.59.87-.51,2.06-.48,3.1-.49,4.2,0,12.12,0,16.37.03,1.41-.06,3.34.42,3.19,2.09-.2,1.55-1.66,1.61-3.26,1.64-3.73,0-10.41,0-14.46,0-1.8-.11-4.56.36-5.58-.64l-.03-.04Z"/>
        <path class="cls-1" d="M139.89,56.02c-.72-.8-.46-2.15.54-2.68.85-.44,1.99-.41,2.98-.43,4.6.08,11.78-.16,16.28.11,1.64.06,2.94,2.05,1.53,3.17-.53.37-1.36.47-2.45.48-1.61.01-4.03,0-6.62,0-2.39,0-4.89,0-6.94,0-2.65-.08-4.17.26-5.29-.63l-.04-.04Z"/>
        <path class="cls-1" d="M21.6,16.7c-2.12-.24-2.63-.93-.75-1.48,2.69-.72,5.69-1.01,8.45-1.58,4.43-.85,9.81-.5,14.45-.55,4.71-.04,3.17,2.46-.04,3.35-2.02.56-5.66.32-8.54.37-4.29-.04-9.67.13-13.49-.11h-.08Z"/>
        <path class="cls-1" d="M140.01,51.64c-.73-.58-.81-1.74-.19-2.41,1-.91,2.36-.69,4.53-.74.99,0,2.01,0,3.02,0,2.29,0,4.68,0,6.95,0,2.29.03,3.88-.1,5.04.36,1.11.36,2.05,2.05,1.03,2.89-.45.36-1.24.48-2.25.5-1.51.02-3.75,0-6.2,0-2.6,0-5.06,0-7.4,0-2.12-.05-3.36.17-4.49-.58l-.04-.04Z"/>
        <path class="cls-1" d="M101.6,73.92c-.47-.44.37-1.28,2.14-1.94,3.17-1.08,6.48-1.39,9.8-1.34,1.89,0,4.58,0,6.63,0,1.09.03,2.35-.02,3.3.43,1.62.98-.47,2.77-1.64,3.02-1.43.4-3.1.28-5.75.3-2.19,0-4.45,0-6.64,0-1.65,0-3.09,0-4.64,0-1.58.02-2.78-.08-3.18-.45l-.03-.02Z"/>
        <path class="cls-1" d="M131.7,16.75c-2.97-.16-6.67-.57-9.64-1.49-2.29-.72-2.74-2.07.71-2.16,4.14-.04,9.8-.04,14.13.04,2.17.09,5.11.47,6.79,1.69,2.6,2.16-2.44,2.01-3.78,2-2.52,0-5.93.02-8.12-.07h-.09Z"/>
        <path class="cls-1" d="M2.66,65.03c-.94-.51-1.55-1.98-.56-2.7.94-.69,3.14-.53,5.87-.56,3.69.1,7.47-.26,11.07.3,3.86.8,5.68,3.74.59,3.47-3.18,0-8.16,0-11.48,0-2.09-.06-4.1.21-5.42-.48l-.06-.03Z"/>
        <path class="cls-1" d="M139.38,47.2c-.81-.61-1.03-1.99-.16-2.62,1.02-.8,4.79-.43,6.82-.51,1.73,0,3.57,0,5.28,0,3.05.07,4.69-.23,6.47.59.76.4,1.47,1.28,1.28,2.16-.38,1.02-1.83.99-3.04,1.03-3.14,0-8.15-.02-11.43-.02-2.5-.07-3.91.22-5.17-.58l-.05-.04Z"/>
        <path class="cls-1" d="M57.9,95.26c-2.47-.07-5.09-.2-7.61-.52-3.69-.56-3.59-1.48-.85-1.79,8.02-.32,18.64-.09,26.79-.11,1.85.02,4.09.47,3.06,1.16-1.84.9-4.14.88-6.16,1.08-4.88.34-10.24.26-15.13.19h-.1Z"/>
        <path class="cls-1" d="M138.2,42.86c-.97-.5-1.48-1.94-.53-2.67.81-.62,2.5-.55,4.7-.55,2.15,0,4.41,0,6.55,0,2.82.06,4.4-.19,6.14.6,2.09,1.2,2.33,3.14-.73,3.15-2.92.05-7.75,0-10.88.02-2.41-.01-4.07.09-5.19-.51l-.06-.03Z"/>
        <path class="cls-1" d="M18.12,24.99c-.44-.61.09-1.36.56-1.83,1.86-1.58,3.58-1.12,6.49-1.23,2.69,0,6.41,0,8.82,0,1.14.07,3-.18,3.51,1,.18,1.03-.83,1.97-1.74,2.33-1.34.52-3.04.4-5.56.42-1.66,0-3.35,0-5.01,0-2.17-.15-5.87.45-7.04-.65l-.03-.04Z"/>
        <path class="cls-1" d="M14.48,33.87c-.5-.51-.37-1.31,0-1.86,1.26-1.55,2.9-1.09,5.62-1.2,2.31,0,4.71,0,7.03-.01,2.87.02,4.94-.17,5.74.66,1.09,1.42-.44,2.96-2.09,2.99-3.14.17-8.18.04-11.5.09-2.29-.05-3.72.19-4.75-.62l-.04-.04Z"/>
        <path class="cls-1" d="M16.08,29.61c-1.05-.84-.23-2.41,1.3-2.92.38-.13.77-.2,1.19-.25,3.66-.21,7.52-.04,11.22-.09,2.29.05,3.74-.19,4.79.65,1.06,1.37-.67,2.87-2.15,2.98-2.96.3-8.12.07-11.4.14-1.76-.01-4.18.11-4.92-.48l-.05-.03Z"/>
        <path class="cls-1" d="M14.02,38.36c-.9-.8-.6-2.37.83-2.85.65-.22,1.3-.27,2.01-.29,3.02-.04,6.22,0,9.28-.01,2.59.03,4.49-.15,5.52.47.9.49,1.03,1.79.34,2.52-.38.41-1.03.63-1.87.72-3.11.16-7.97.03-11.23.07-2.32,0-3.99.08-4.84-.58l-.04-.04Z"/>
        <path class="cls-1" d="M14.46,42.79c-.75-.55-1.01-1.7-.36-2.4,1.21-1.03,3.05-.63,5.93-.73,2.12,0,4.3,0,6.42,0,2.84.12,4.57-.42,5.79,1.05.35.55.39,1.29,0,1.83-.31.44-.93.7-1.77.79-1.19.12-3.41.05-5.2.07-1.98,0-4.15,0-5.92,0-2.27,0-3.9.08-4.84-.58l-.05-.04Z"/>
        <path class="cls-1" d="M16.17,47.34c-.97-.45-1.77-1.87-.85-2.69.85-.73,2.96-.57,5.7-.58,1.87,0,3.84,0,5.7.01,3.17.14,4.94-.43,6.41,1.11.37.48.59,1.17.31,1.73-.95,1.41-4.17.76-6.47.91-1.88,0-3.94,0-5.66,0-2.31-.02-3.94.08-5.08-.45l-.06-.03Z"/>
        <path class="cls-1" d="M19.33,51.91c-1.21-.27-3.23-2.15-1.57-3.05.98-.49,2.99-.35,5.45-.37,3.45.13,7.05-.32,10.41.28,1.94.47,3.25,2.95.87,3.32-2.52.34-7.11.07-9.95.14-2.25-.02-3.82.06-5.13-.31l-.07-.02Z"/>
        <path class="cls-1" d="M32.35,61c-2.04-.21-5-.52-6.34-2.31-.61-1.65,3.08-1.28,5.24-1.34,2.31,0,4.86-.02,7.11.02,2.43.03,5.67.4,7.46,1.95.43.36.79,1.02.14,1.36-1.23.57-2.72.38-4.16.43-2.84-.03-6.87.04-9.37-.1h-.09Z"/>
        <path class="cls-1" d="M24.21,56.45c-1.14-.04-4.72-1.77-3.17-3.04.91-.62,3.3-.45,6.14-.48,1.99,0,4.2,0,6.13,0,1.95,0,4.26.1,5.66,1.55.68.67.88,1.37.2,1.77-1.21.59-2.58.4-4.66.44-3.16-.07-7.47.15-10.21-.22h-.09Z"/>
        <path class="cls-1" d="M136.61,38.57c-1.05-.36-2.31-1.8-1.32-2.76.88-.76,3.37-.57,6.33-.6,2.98.09,6.04-.25,8.93.31,1.81.4,3.27,2.01,2.59,2.8-.41.44-1.01.52-1.64.59-1.16.1-2.73.04-4.58.05-3.13-.14-7.71.33-10.24-.38l-.07-.03Z"/>
        <path class="cls-1" d="M33.67,11.81c-.72-.98,1.32-1.82,2.14-2.12,3.37-1.09,6.38-1.01,10.18-1.03,1.4,0,2.91-.02,4.28,0,1.08.04,2.59,0,3.19.67.55,1.36-2.56,2.42-3.78,2.68-2.71.55-5.47.33-8.27.39-2.29-.12-6.26.42-7.72-.55l-.03-.03Z"/>
        <path class="cls-1" d="M43.44,7.52c-.96-.63.29-1.35,1.07-1.68,3.85-1.36,7.77-1.43,11.89-1.6,1.55-.02,3.16-.06,4.71.01.84.06,2.06.14,2.52.63.53,1.39-4.01,2.34-5.04,2.52-2.73.54-5.46.55-8.46.56-2.09-.09-4.75.26-6.63-.43l-.05-.02Z"/>
        <path class="cls-1" d="M26.07,95.91c-.63-.45-.85-1.28-.51-1.96,1.06-1.59,3.65-1.06,6.65-1.16,2.43.05,4.86-.13,7.23.29,3,.52,4.71,3.3.78,3.43-2.62.09-6.7,0-9.5.03-2.11,0-3.71.02-4.59-.59l-.05-.04Z"/>
        <path class="cls-1" d="M1.27,60.53c-.79-.49-1.06-1.6-.44-2.3,1.26-1.17,3.6-.8,6.57-.88,2.36.05,4.75-.15,7.03.32,2.89.68,4.49,3.33.8,3.41-2.55.08-6.62.01-9.33.03-2.09,0-3.65.03-4.58-.55l-.05-.03Z"/>
        <path class="cls-1" d="M133.98,34.21c-1.15-.27-3.26-2.04-1.71-2.99,1-.56,3.4-.41,5.91-.42,2.23.04,4.46-.08,6.62.2,1.65.08,5.16,1.79,4,3-1.54.88-3.15.45-5.34.56-2.93-.09-6.95.26-9.4-.32l-.08-.02Z"/>
        <path class="cls-1" d="M34.33,105.21c-1.84-.04-4.06-.13-5.53-1.19-1.02-.72-1.21-1.58-.38-1.98,1.26-.52,2.88-.28,4.5-.34,1.5,0,3.2,0,4.77,0,1.96,0,3.92,0,5.5,0,1.18.05,4.7-.25,4.36.9-1.91,2.52-10,2.55-13.11,2.61h-.1Z"/>
        <path class="cls-1" d="M141.21,21.16c-2.25-.18-5-.53-7.02-1.7-.58-.34-1.24-1.06-.48-1.5,1.66-.77,5.39-.36,7.61-.45,2.21.03,4.29-.03,6.4.5,2.31.54,4.48,2.35,1.95,2.97-2.54.48-5.9.23-8.37.18h-.1Z"/>
        <path class="cls-1" d="M130.63,29.87c-1.27-.12-4.13-1.53-3.52-2.73.57-.67,1.77-.68,2.73-.76,1.45-.05,2.98-.03,4.44-.02,2.91.07,4.89.11,7.24,1.09,1.5.69,2.22,1.67,1.4,2.17-1.07.56-2.35.45-3.58.49-2.64-.05-6.28.14-8.61-.22l-.09-.02Z"/>
        <path class="cls-1" d="M111.47,69.56c-1.22-.95,1.32-2.35,2.8-2.76,2.01-.58,4.1-.54,6.2-.56,2.31.04,4.56-.19,5.76.73,1.02,1.11-.48,2.46-1.67,2.71-2.58.54-6.19.2-9.03.29-1.84,0-3.36,0-4.01-.39l-.04-.03Z"/>
        <path class="cls-1" d="M.81,56.13c-.7-.42-.96-1.23-.62-1.93,1.12-1.73,4.32-1.15,6.79-1.27,2.26.01,4.21.11,5.37.94,1.15.77,1.72,2.29-.19,2.64-1.99.36-5.26.13-7.45.19-1.69,0-3.05-.06-3.84-.53l-.06-.03Z"/>
        <path class="cls-1" d="M59.84,3.29c-2.25-.59.62-1.54,1.53-1.7,4.62-.85,9.17-.97,13.87-1.17,1.49-.04,3.18-.12,4.61.12.96.15,1.55.53.28,1.03-2.74.9-6.07,1.08-8.96,1.48-3.76.37-7.53.83-11.26.27l-.07-.02Z"/>
        <path class="cls-1" d="M125.45,25.51c-1.09-.01-7.08-1.41-5.2-3.03.7-.49,2.48-.6,4.12-.54,2.71.09,5.46.29,8.11.93,1.65.34,4.07,1.7,2.76,2.37-.84.4-1.62.39-2.61.46-2.23.04-4.98.05-7.06-.18h-.11Z"/>
        <path class="cls-1" d="M147.94,25.53c-1.83-.22-3.8-.61-5.19-1.81-.43-.37-.61-.97-.05-1.27,1.12-.62,3.38-.52,5.22-.53,2.3.02,4.95.11,6.42,1.02,1.39.77,2.05,2.13-.12,2.54-1.86.35-4.26.21-6.17.06h-.11Z"/>
        <path class="cls-1" d="M56.04,16.83c-4.55-.23-2.63-2.72.97-3.39,1.96-.39,3.96-.44,5.96-.44.92,0,5.37.01,4.11,1.53-.84.73-1.97,1.03-3.09,1.35-2.54.63-5.31,1-7.84.96h-.1Z"/>
        <path class="cls-1" d="M120.32,21.22c-3.67.04-7.07-.52-10.82-1.03-1.79-.3-3.84-.41-5.49-1.1-1.49-.79,3.08-1.04,4.74-.95,3.42.05,6.82.19,10.22.71,3.4.38,6.32,2.02,1.45,2.37h-.1Z"/>
        <path class="cls-1" d="M119.25,3.47c-2.83.19-5.74-.32-8.57-.69-1.36-.27-2.95-.37-3.96-1.3-.42-.85,1.7-1.21,3.68-1.36,2.9-.12,5.85-.34,8.61.46,1.94.55,3.26,2.45.34,2.88h-.1Z"/>
        <path class="cls-1" d="M117.52,65.2c-.92-.35-.82-1.23-.24-1.83,1.6-1.56,3.97-1.52,6.2-1.59,1.54-.02,3.15.14,3.94.81.9.68.51,1.9-.45,2.38-1.64.82-3.96.53-5.91.59-1.39,0-2.73-.02-3.47-.33l-.07-.03Z"/>
        <path class="cls-1" d="M.89,51.82c-1.03-.46-1.2-1.83-.36-2.52,1.04-.82,2.72-.78,4.52-.81,1.74,0,3.45.05,4.46.64.65.36,1.26,1.11,1.2,1.85-.37,1.27-1.83,1.16-3.29,1.27-1.93-.05-4.9.25-6.47-.4l-.07-.03Z"/>
        <path class="cls-1" d="M156.45,30.12c-1.86.05-7.35-.39-7.3-2.87.66-1.08,2.22-.85,3.83-.92,2,.04,4.04.03,5.7,1.09,2.29,1.7-.21,2.76-2.11,2.69h-.11Z"/>
        <path class="cls-1" d="M120.64,60.68c-.83-.5-.51-1.58.06-2.16,1.35-1.61,8.25-1.98,7.62,1.18-.7,1.87-3.3,1.33-5.02,1.42-1.05-.01-2.05-.09-2.59-.41l-.06-.04Z"/>
        <path class="cls-1" d="M166.22,60.91c-1.5-.4-1.6-2.31-.3-3,1.9-1.01,5.18-.53,6.88.97,1.56,1.64-.11,2.27-1.79,2.26-1.44,0-3.45.14-4.7-.21l-.08-.03Z"/>
        <path class="cls-1" d="M158.14,34.4c-3.59-.38-5.81-3.79-.43-3.63,1.95.07,4.85.31,5.09,2.58-.45,1.57-3.22,1.17-4.55,1.06l-.11-.02Z"/>
        <path class="cls-1" d="M51.71,21.26c-1.74.12-3.66-.99-1.87-2.53,1.23-1,2.99-1.2,4.66-1.26,2.47-.19,4.68.91,2.08,2.61-1.39.81-3.13,1.13-4.75,1.18h-.11Z"/>
        <path class="cls-1" d="M161.54,38.85c-1.34-.22-2.99-.96-3.01-2.45.32-2.04,5.7-1.32,6.48.29,1.27,2.16-1.85,2.51-3.36,2.17l-.1-.02Z"/>
        <path class="cls-1" d="M124.78,56.72c-1.6.11-3.67-.65-2.83-2.49.46-.98,1.77-1.37,3.07-1.27,3.83.28,3.82,3.96-.13,3.76h-.1Z"/>
        <path class="cls-1" d="M48.92,25.7c-3.33-.27-2.02-3.6.63-3.72,1.68-.27,3.93.07,3.14,1.89-.65,1.32-2.29,1.85-3.68,1.83h-.1Z"/>
        <path class="cls-1" d="M165.29,43.41c-1.15.05-2.48-.28-3.24-1.18-.44-.52-.65-1.3-.25-1.88.98-1.28,4.24-.83,4.98.67.72,1.21-.02,2.34-1.4,2.38h-.09Z"/>
        <path class="cls-1" d="M11.87,25.52c-1.29-.11-2.14-1.71-1.53-2.83.61-1.12,2.97-.96,4.19-.65,1.42.53.56,2.32-.88,3.08-.54.29-1.14.46-1.69.42h-.09Z"/>
        <path class="cls-1" d="M166.27,47.85c-2.11.2-3.94-3.18-1.25-3.75.74-.12,1.41-.03,2.05.29,1.75.89,1.4,3.48-.71,3.46h-.09Z"/>
        <path class="cls-1" d="M123.55,52.25c-1.49-.18-2.37-2.17-1.27-3.27.8-.78,2.54-.43,3.39.44,1.62,1.79.04,3.29-2.02,2.85l-.09-.02Z"/>
        <path class="cls-1" d="M48.21,30.1c-1.52.05-2.45-1.75-1.56-2.96.7-.98,2.59-1.11,3.4-.4,1.21,1.25-.07,3.48-1.74,3.36h-.09Z"/>
        <path class="cls-1" d="M167.65,56.75c-.67.01-1.43-.14-1.86-.69-.73-.91-.43-2.78.84-3.07,2.22-.66,4.03,3.64,1.11,3.75h-.1Z"/>
        <path class="cls-1" d="M166.74,52.26c-1.45-.1-2.31-2.03-1.5-3.2.61-.81,2.19-.77,2.92-.03,1.2,1.12.4,3.42-1.34,3.24h-.09Z"/>
        <path class="cls-1" d="M6.99,34.58c-1.47,0-1.71-1.48-.9-2.45.94-1.25,3.27-1.72,3.58-.39.11.42.03.86-.13,1.28-.37.99-1.43,1.59-2.46,1.57h-.1Z"/>
        <path class="cls-1" d="M49.11,34.29c-1.89.08-2.93-3.27-.69-3.44.94,0,1.65.8,1.72,1.72.09.72-.15,1.66-.95,1.72h-.08Z"/>
        <path class="cls-1" d="M122.83,47.78c-1.36.15-2.93-1.63-2.17-2.93.85-.93,2.83.42,3.01,1.53.18.6-.11,1.29-.76,1.39h-.08Z"/>
        <path class="cls-1" d="M9.64,29.88c-.58.02-.84-.51-.77-1.01.09-1.12,1.64-2.54,2.68-2.04,1.2,1.07-.57,2.97-1.83,3.04h-.08Z"/>
        <path class="cls-1" d="M50.64,37.34c-.71-.03-.91-1.24-.06-1.18.6,0,.79,1.07.14,1.18h-.08Z"/>
      </g>
      <path class="cls-1" d="M1.16,47.42c-.81-.43-.83-1.48-.31-2.15,1.21-1.62,5.94-1.56,7.42-.4,1.58,1.49.5,2.95-1.63,2.92-1.55-.01-4.12.25-5.42-.34l-.06-.04Z"/>
      <path class="cls-1" d="M2.38,43.12c-.87-.38-.93-1.44-.48-2.16.99-1.65,5.17-1.84,6.17-.18.49.85.17,2-.82,2.35-1.19.4-3.6.43-4.8.02l-.07-.03Z"/>
      <path class="cls-1" d="M5.53,39.03c-1.81.08-3.05-1.23-1.71-2.77,1-1.13,3.45-1.41,4.36-.37.72.83.32,2.2-.6,2.7-.53.32-1.23.43-1.95.44h-.1Z"/>
    </g>
  </g>
</svg>